<svg width="1204" height="294" viewBox="0 0 1204 294" fill="none" xmlns="http://www.w3.org/2000/svg">
<rect width="1204" height="294" rx="10" fill="url(#paint0_linear_24_20)"/>
<path d="M625.185 109.315C624.532 109.315 623.995 109.163 623.575 108.86C623.178 108.557 622.922 108.148 622.805 107.635C622.712 107.122 622.817 106.55 623.12 105.92L632.08 86.285C632.453 85.4917 632.897 84.92 633.41 84.57C633.923 84.1967 634.518 84.01 635.195 84.01C635.872 84.01 636.467 84.1967 636.98 84.57C637.493 84.92 637.925 85.4917 638.275 86.285L647.305 105.92C647.608 106.55 647.713 107.133 647.62 107.67C647.55 108.183 647.317 108.592 646.92 108.895C646.523 109.175 646.01 109.315 645.38 109.315C644.587 109.315 643.968 109.128 643.525 108.755C643.105 108.382 642.732 107.798 642.405 107.005L640.305 102.14L642.475 103.645H627.88L630.05 102.14L627.985 107.005C627.635 107.822 627.262 108.417 626.865 108.79C626.492 109.14 625.932 109.315 625.185 109.315ZM635.125 90.1L630.645 100.775L629.7 99.41H640.655L639.71 100.775L635.195 90.1H635.125ZM662.888 109.315C662.025 109.315 661.36 109.082 660.893 108.615C660.45 108.148 660.228 107.483 660.228 106.62V94.195C660.228 93.3317 660.45 92.6783 660.893 92.235C661.36 91.7683 662.001 91.535 662.818 91.535C663.658 91.535 664.3 91.7683 664.743 92.235C665.186 92.6783 665.408 93.3317 665.408 94.195V96.435L665.023 95.035C665.49 93.9617 666.213 93.0983 667.193 92.445C668.173 91.7917 669.328 91.465 670.658 91.465C671.988 91.465 673.096 91.78 673.983 92.41C674.87 93.04 675.5 94.0083 675.873 95.315H675.383C675.896 94.125 676.678 93.1917 677.728 92.515C678.801 91.815 680.026 91.465 681.403 91.465C682.733 91.465 683.818 91.7333 684.658 92.27C685.521 92.7833 686.163 93.5767 686.583 94.65C687.003 95.7 687.213 97.0417 687.213 98.675V106.62C687.213 107.483 686.98 108.148 686.513 108.615C686.07 109.082 685.428 109.315 684.588 109.315C683.725 109.315 683.06 109.082 682.593 108.615C682.15 108.148 681.928 107.483 681.928 106.62V98.85C681.928 97.7067 681.741 96.8783 681.368 96.365C681.018 95.8283 680.411 95.56 679.548 95.56C678.545 95.56 677.763 95.91 677.203 96.61C676.643 97.31 676.363 98.3017 676.363 99.585V106.62C676.363 107.483 676.13 108.148 675.663 108.615C675.22 109.082 674.578 109.315 673.738 109.315C672.898 109.315 672.245 109.082 671.778 108.615C671.311 108.148 671.078 107.483 671.078 106.62V98.85C671.078 97.7067 670.891 96.8783 670.518 96.365C670.168 95.8283 669.561 95.56 668.698 95.56C667.695 95.56 666.913 95.91 666.353 96.61C665.793 97.31 665.513 98.3017 665.513 99.585V106.62C665.513 108.417 664.638 109.315 662.888 109.315ZM693.921 109.28C693.058 109.28 692.393 109.035 691.926 108.545C691.483 108.032 691.261 107.32 691.261 106.41V94.44C691.261 93.5067 691.483 92.795 691.926 92.305C692.393 91.7917 693.058 91.535 693.921 91.535C694.761 91.535 695.403 91.7917 695.846 92.305C696.313 92.795 696.546 93.5067 696.546 94.44V106.41C696.546 107.32 696.325 108.032 695.881 108.545C695.438 109.035 694.785 109.28 693.921 109.28ZM693.921 88.665C692.941 88.665 692.183 88.4433 691.646 88C691.133 87.5333 690.876 86.88 690.876 86.04C690.876 85.1767 691.133 84.5233 691.646 84.08C692.183 83.6133 692.941 83.38 693.921 83.38C694.901 83.38 695.648 83.6133 696.161 84.08C696.675 84.5233 696.931 85.1767 696.931 86.04C696.931 86.88 696.675 87.5333 696.161 88C695.648 88.4433 694.901 88.665 693.921 88.665ZM708.992 109.385C707.125 109.385 705.492 109.023 704.092 108.3C702.715 107.553 701.653 106.503 700.907 105.15C700.16 103.797 699.787 102.198 699.787 100.355C699.787 98.9783 699.997 97.7417 700.417 96.645C700.837 95.5483 701.443 94.615 702.237 93.845C703.053 93.075 704.033 92.4917 705.177 92.095C706.32 91.675 707.592 91.465 708.992 91.465C709.715 91.465 710.485 91.5583 711.302 91.745C712.118 91.9083 712.923 92.2 713.717 92.62C714.183 92.83 714.498 93.1333 714.662 93.53C714.848 93.9033 714.918 94.3 714.872 94.72C714.825 95.1167 714.673 95.4783 714.417 95.805C714.183 96.1083 713.88 96.3183 713.507 96.435C713.133 96.5283 712.713 96.4583 712.247 96.225C711.803 95.9683 711.337 95.7817 710.847 95.665C710.38 95.5483 709.937 95.49 709.517 95.49C708.817 95.49 708.198 95.6067 707.662 95.84C707.125 96.05 706.67 96.365 706.297 96.785C705.947 97.1817 705.667 97.6833 705.457 98.29C705.27 98.8967 705.177 99.5967 705.177 100.39C705.177 101.93 705.55 103.143 706.297 104.03C707.067 104.893 708.14 105.325 709.517 105.325C709.937 105.325 710.38 105.278 710.847 105.185C711.313 105.068 711.78 104.882 712.247 104.625C712.713 104.392 713.133 104.333 713.507 104.45C713.88 104.567 714.172 104.788 714.382 105.115C714.615 105.418 714.743 105.78 714.767 106.2C714.813 106.597 714.743 106.993 714.557 107.39C714.393 107.763 714.09 108.055 713.647 108.265C712.853 108.662 712.06 108.942 711.267 109.105C710.473 109.292 709.715 109.385 708.992 109.385ZM720.071 109.315C719.184 109.315 718.507 109.082 718.041 108.615C717.574 108.148 717.341 107.483 717.341 106.62V94.195C717.341 93.3317 717.562 92.6783 718.006 92.235C718.472 91.7683 719.114 91.535 719.931 91.535C720.771 91.535 721.412 91.7683 721.856 92.235C722.299 92.6783 722.521 93.3317 722.521 94.195V96.015H722.171C722.451 94.615 723.069 93.53 724.026 92.76C724.982 91.99 726.219 91.5583 727.736 91.465C728.319 91.4183 728.762 91.57 729.066 91.92C729.392 92.2467 729.567 92.795 729.591 93.565C729.637 94.2883 729.486 94.86 729.136 95.28C728.809 95.7 728.249 95.9567 727.456 96.05L726.651 96.12C725.321 96.2367 724.329 96.6217 723.676 97.275C723.046 97.9283 722.731 98.8733 722.731 100.11V106.62C722.731 107.483 722.497 108.148 722.031 108.615C721.587 109.082 720.934 109.315 720.071 109.315ZM739.717 109.385C737.873 109.385 736.263 109.023 734.887 108.3C733.533 107.577 732.483 106.538 731.737 105.185C730.99 103.832 730.617 102.233 730.617 100.39C730.617 99.0133 730.827 97.7767 731.247 96.68C731.667 95.5833 732.273 94.65 733.067 93.88C733.883 93.0867 734.852 92.4917 735.972 92.095C737.092 91.675 738.34 91.465 739.717 91.465C741.56 91.465 743.158 91.8267 744.512 92.55C745.888 93.2733 746.95 94.3 747.697 95.63C748.467 96.96 748.852 98.5467 748.852 100.39C748.852 101.79 748.63 103.038 748.187 104.135C747.767 105.232 747.16 106.177 746.367 106.97C745.573 107.763 744.605 108.37 743.462 108.79C742.342 109.187 741.093 109.385 739.717 109.385ZM739.717 105.43C740.487 105.43 741.152 105.243 741.712 104.87C742.272 104.497 742.715 103.948 743.042 103.225C743.368 102.478 743.532 101.533 743.532 100.39C743.532 98.6867 743.182 97.4383 742.482 96.645C741.782 95.8283 740.86 95.42 739.717 95.42C738.97 95.42 738.305 95.595 737.722 95.945C737.162 96.295 736.718 96.8433 736.392 97.59C736.088 98.3133 735.937 99.2467 735.937 100.39C735.937 102.093 736.287 103.365 736.987 104.205C737.687 105.022 738.597 105.43 739.717 105.43ZM765.028 109.315C764.141 109.315 763.464 109.07 762.998 108.58C762.531 108.09 762.298 107.402 762.298 106.515V87.09C762.298 86.18 762.531 85.4917 762.998 85.025C763.488 84.5583 764.176 84.325 765.063 84.325H773.568C776.321 84.325 778.444 84.99 779.938 86.32C781.431 87.65 782.178 89.505 782.178 91.885C782.178 93.425 781.839 94.755 781.163 95.875C780.486 96.995 779.506 97.8583 778.223 98.465C776.963 99.0717 775.411 99.375 773.568 99.375L773.848 98.78H775.283C776.263 98.78 777.114 99.025 777.838 99.515C778.584 99.9817 779.226 100.705 779.763 101.685L781.933 105.71C782.259 106.293 782.411 106.865 782.388 107.425C782.364 107.985 782.154 108.44 781.758 108.79C781.361 109.14 780.778 109.315 780.008 109.315C779.238 109.315 778.608 109.152 778.118 108.825C777.651 108.498 777.231 107.997 776.858 107.32L773.498 101.125C773.148 100.472 772.716 100.028 772.203 99.795C771.713 99.5617 771.106 99.445 770.383 99.445H767.723V106.515C767.723 107.402 767.489 108.09 767.023 108.58C766.579 109.07 765.914 109.315 765.028 109.315ZM767.723 95.525H772.588C774.034 95.525 775.119 95.2333 775.843 94.65C776.589 94.0667 776.963 93.1917 776.963 92.025C776.963 90.8817 776.589 90.0183 775.843 89.435C775.119 88.8517 774.034 88.56 772.588 88.56H767.723V95.525ZM795.385 109.385C794.405 109.385 793.402 109.303 792.375 109.14C791.372 109 790.403 108.79 789.47 108.51C788.56 108.23 787.743 107.88 787.02 107.46C786.507 107.18 786.145 106.818 785.935 106.375C785.725 105.908 785.643 105.442 785.69 104.975C785.76 104.508 785.935 104.1 786.215 103.75C786.518 103.377 786.892 103.143 787.335 103.05C787.802 102.933 788.315 103.015 788.875 103.295C789.832 103.832 790.87 104.228 791.99 104.485C793.133 104.742 794.265 104.87 795.385 104.87C797.088 104.87 798.302 104.613 799.025 104.1C799.748 103.563 800.11 102.898 800.11 102.105C800.11 101.428 799.853 100.892 799.34 100.495C798.827 100.098 797.928 99.76 796.645 99.48L792.69 98.64C790.45 98.1733 788.782 97.38 787.685 96.26C786.612 95.1167 786.075 93.6233 786.075 91.78C786.075 90.6133 786.32 89.5517 786.81 88.595C787.3 87.6383 787.988 86.81 788.875 86.11C789.762 85.41 790.812 84.8733 792.025 84.5C793.262 84.1267 794.615 83.94 796.085 83.94C797.392 83.94 798.675 84.1033 799.935 84.43C801.195 84.7333 802.303 85.1883 803.26 85.795C803.727 86.075 804.042 86.4367 804.205 86.88C804.392 87.3 804.45 87.7317 804.38 88.175C804.333 88.595 804.158 88.9683 803.855 89.295C803.575 89.6217 803.213 89.8317 802.77 89.925C802.327 90.0183 801.79 89.9133 801.16 89.61C800.39 89.2133 799.573 88.9217 798.71 88.735C797.847 88.5483 796.96 88.455 796.05 88.455C795.07 88.455 794.23 88.5833 793.53 88.84C792.853 89.0967 792.328 89.4583 791.955 89.925C791.605 90.3917 791.43 90.9283 791.43 91.535C791.43 92.2117 791.675 92.76 792.165 93.18C792.655 93.6 793.507 93.9383 794.72 94.195L798.675 95.035C800.962 95.525 802.665 96.3183 803.785 97.415C804.905 98.4883 805.465 99.9117 805.465 101.685C805.465 102.852 805.232 103.913 804.765 104.87C804.298 105.803 803.622 106.608 802.735 107.285C801.848 107.962 800.787 108.487 799.55 108.86C798.313 109.21 796.925 109.385 795.385 109.385ZM817.807 109.385C816.827 109.385 815.824 109.303 814.797 109.14C813.794 109 812.825 108.79 811.892 108.51C810.982 108.23 810.165 107.88 809.442 107.46C808.929 107.18 808.567 106.818 808.357 106.375C808.147 105.908 808.065 105.442 808.112 104.975C808.182 104.508 808.357 104.1 808.637 103.75C808.94 103.377 809.314 103.143 809.757 103.05C810.224 102.933 810.737 103.015 811.297 103.295C812.254 103.832 813.292 104.228 814.412 104.485C815.555 104.742 816.687 104.87 817.807 104.87C819.51 104.87 820.724 104.613 821.447 104.1C822.17 103.563 822.532 102.898 822.532 102.105C822.532 101.428 822.275 100.892 821.762 100.495C821.249 100.098 820.35 99.76 819.067 99.48L815.112 98.64C812.872 98.1733 811.204 97.38 810.107 96.26C809.034 95.1167 808.497 93.6233 808.497 91.78C808.497 90.6133 808.742 89.5517 809.232 88.595C809.722 87.6383 810.41 86.81 811.297 86.11C812.184 85.41 813.234 84.8733 814.447 84.5C815.684 84.1267 817.037 83.94 818.507 83.94C819.814 83.94 821.097 84.1033 822.357 84.43C823.617 84.7333 824.725 85.1883 825.682 85.795C826.149 86.075 826.464 86.4367 826.627 86.88C826.814 87.3 826.872 87.7317 826.802 88.175C826.755 88.595 826.58 88.9683 826.277 89.295C825.997 89.6217 825.635 89.8317 825.192 89.925C824.749 90.0183 824.212 89.9133 823.582 89.61C822.812 89.2133 821.995 88.9217 821.132 88.735C820.269 88.5483 819.382 88.455 818.472 88.455C817.492 88.455 816.652 88.5833 815.952 88.84C815.275 89.0967 814.75 89.4583 814.377 89.925C814.027 90.3917 813.852 90.9283 813.852 91.535C813.852 92.2117 814.097 92.76 814.587 93.18C815.077 93.6 815.929 93.9383 817.142 94.195L821.097 95.035C823.384 95.525 825.087 96.3183 826.207 97.415C827.327 98.4883 827.887 99.9117 827.887 101.685C827.887 102.852 827.654 103.913 827.187 104.87C826.72 105.803 826.044 106.608 825.157 107.285C824.27 107.962 823.209 108.487 821.972 108.86C820.735 109.21 819.347 109.385 817.807 109.385ZM844.719 109.315C843.856 109.315 843.191 109.082 842.724 108.615C842.281 108.148 842.059 107.483 842.059 106.62V95.77H840.799C840.146 95.77 839.633 95.595 839.259 95.245C838.909 94.895 838.734 94.4167 838.734 93.81C838.734 93.1567 838.909 92.6667 839.259 92.34C839.633 91.99 840.146 91.815 840.799 91.815H843.599L842.059 93.215V92.13C842.059 89.6333 842.678 87.7667 843.914 86.53C845.174 85.2933 847.018 84.5467 849.444 84.29L850.564 84.185C851.171 84.1383 851.649 84.2317 851.999 84.465C852.373 84.6983 852.618 85.0017 852.734 85.375C852.851 85.7483 852.874 86.1333 852.804 86.53C852.734 86.9033 852.571 87.2417 852.314 87.545C852.081 87.825 851.754 87.9767 851.334 88L850.844 88.035C849.584 88.1283 848.686 88.4317 848.149 88.945C847.613 89.435 847.344 90.1933 847.344 91.22V92.41L846.679 91.815H849.829C850.506 91.815 851.019 91.99 851.369 92.34C851.719 92.6667 851.894 93.1567 851.894 93.81C851.894 94.4167 851.719 94.895 851.369 95.245C851.019 95.595 850.506 95.77 849.829 95.77H847.344V106.62C847.344 108.417 846.469 109.315 844.719 109.315ZM862.608 109.385C860.578 109.385 858.828 109.023 857.358 108.3C855.912 107.553 854.792 106.515 853.998 105.185C853.228 103.832 852.843 102.245 852.843 100.425C852.843 98.6517 853.217 97.1 853.963 95.77C854.71 94.4167 855.748 93.3667 857.078 92.62C858.432 91.85 859.96 91.465 861.663 91.465C862.9 91.465 864.02 91.675 865.023 92.095C866.027 92.4917 866.89 93.075 867.613 93.845C868.337 94.5917 868.885 95.5133 869.258 96.61C869.632 97.6833 869.818 98.885 869.818 100.215C869.818 100.658 869.678 100.997 869.398 101.23C869.118 101.44 868.71 101.545 868.173 101.545H857.183V98.815H866.003L865.443 99.305C865.443 98.3483 865.303 97.555 865.023 96.925C864.743 96.2717 864.335 95.7817 863.798 95.455C863.285 95.1283 862.643 94.965 861.873 94.965C861.01 94.965 860.275 95.1633 859.668 95.56C859.062 95.9567 858.595 96.5283 858.268 97.275C857.942 98.0217 857.778 98.92 857.778 99.97V100.25C857.778 102.023 858.187 103.33 859.003 104.17C859.843 105.01 861.08 105.43 862.713 105.43C863.273 105.43 863.915 105.36 864.638 105.22C865.362 105.08 866.038 104.858 866.668 104.555C867.205 104.298 867.683 104.217 868.103 104.31C868.523 104.38 868.85 104.567 869.083 104.87C869.317 105.173 869.445 105.523 869.468 105.92C869.515 106.317 869.433 106.713 869.223 107.11C869.013 107.483 868.663 107.798 868.173 108.055C867.38 108.498 866.482 108.825 865.478 109.035C864.498 109.268 863.542 109.385 862.608 109.385ZM881.817 109.385C879.787 109.385 878.037 109.023 876.567 108.3C875.121 107.553 874.001 106.515 873.207 105.185C872.437 103.832 872.052 102.245 872.052 100.425C872.052 98.6517 872.426 97.1 873.172 95.77C873.919 94.4167 874.957 93.3667 876.287 92.62C877.641 91.85 879.169 91.465 880.872 91.465C882.109 91.465 883.229 91.675 884.232 92.095C885.236 92.4917 886.099 93.075 886.822 93.845C887.546 94.5917 888.094 95.5133 888.467 96.61C888.841 97.6833 889.027 98.885 889.027 100.215C889.027 100.658 888.887 100.997 888.607 101.23C888.327 101.44 887.919 101.545 887.382 101.545H876.392V98.815H885.212L884.652 99.305C884.652 98.3483 884.512 97.555 884.232 96.925C883.952 96.2717 883.544 95.7817 883.007 95.455C882.494 95.1283 881.852 94.965 881.082 94.965C880.219 94.965 879.484 95.1633 878.877 95.56C878.271 95.9567 877.804 96.5283 877.477 97.275C877.151 98.0217 876.987 98.92 876.987 99.97V100.25C876.987 102.023 877.396 103.33 878.212 104.17C879.052 105.01 880.289 105.43 881.922 105.43C882.482 105.43 883.124 105.36 883.847 105.22C884.571 105.08 885.247 104.858 885.877 104.555C886.414 104.298 886.892 104.217 887.312 104.31C887.732 104.38 888.059 104.567 888.292 104.87C888.526 105.173 888.654 105.523 888.677 105.92C888.724 106.317 888.642 106.713 888.432 107.11C888.222 107.483 887.872 107.798 887.382 108.055C886.589 108.498 885.691 108.825 884.687 109.035C883.707 109.268 882.751 109.385 881.817 109.385ZM898.786 109.385C897.293 109.385 895.975 109.023 894.831 108.3C893.711 107.577 892.836 106.538 892.206 105.185C891.576 103.832 891.261 102.233 891.261 100.39C891.261 98.5467 891.576 96.96 892.206 95.63C892.836 94.3 893.711 93.2733 894.831 92.55C895.975 91.8267 897.293 91.465 898.786 91.465C900.14 91.465 901.33 91.7917 902.356 92.445C903.406 93.0983 904.118 93.95 904.491 95H904.106V86.705C904.106 85.8183 904.328 85.1533 904.771 84.71C905.215 84.2433 905.868 84.01 906.731 84.01C907.571 84.01 908.225 84.2433 908.691 84.71C909.158 85.1533 909.391 85.8183 909.391 86.705V106.62C909.391 107.483 909.158 108.148 908.691 108.615C908.248 109.082 907.606 109.315 906.766 109.315C905.926 109.315 905.273 109.082 904.806 108.615C904.363 108.148 904.141 107.483 904.141 106.62V104.24L904.526 105.605C904.2 106.748 903.5 107.67 902.426 108.37C901.376 109.047 900.163 109.385 898.786 109.385ZM900.361 105.43C901.131 105.43 901.796 105.243 902.356 104.87C902.916 104.497 903.36 103.948 903.686 103.225C904.013 102.478 904.176 101.533 904.176 100.39C904.176 98.6867 903.826 97.4383 903.126 96.645C902.426 95.8283 901.505 95.42 900.361 95.42C899.615 95.42 898.95 95.595 898.366 95.945C897.806 96.295 897.363 96.8433 897.036 97.59C896.733 98.3133 896.581 99.2467 896.581 100.39C896.581 102.093 896.931 103.365 897.631 104.205C898.331 105.022 899.241 105.43 900.361 105.43ZM931.604 109.385C929.737 109.385 928.104 109.023 926.704 108.3C925.327 107.553 924.266 106.503 923.519 105.15C922.772 103.797 922.399 102.198 922.399 100.355C922.399 98.9783 922.609 97.7417 923.029 96.645C923.449 95.5483 924.056 94.615 924.849 93.845C925.666 93.075 926.646 92.4917 927.789 92.095C928.932 91.675 930.204 91.465 931.604 91.465C932.327 91.465 933.097 91.5583 933.914 91.745C934.731 91.9083 935.536 92.2 936.329 92.62C936.796 92.83 937.111 93.1333 937.274 93.53C937.461 93.9033 937.531 94.3 937.484 94.72C937.437 95.1167 937.286 95.4783 937.029 95.805C936.796 96.1083 936.492 96.3183 936.119 96.435C935.746 96.5283 935.326 96.4583 934.859 96.225C934.416 95.9683 933.949 95.7817 933.459 95.665C932.992 95.5483 932.549 95.49 932.129 95.49C931.429 95.49 930.811 95.6067 930.274 95.84C929.737 96.05 929.282 96.365 928.909 96.785C928.559 97.1817 928.279 97.6833 928.069 98.29C927.882 98.8967 927.789 99.5967 927.789 100.39C927.789 101.93 928.162 103.143 928.909 104.03C929.679 104.893 930.752 105.325 932.129 105.325C932.549 105.325 932.992 105.278 933.459 105.185C933.926 105.068 934.392 104.882 934.859 104.625C935.326 104.392 935.746 104.333 936.119 104.45C936.492 104.567 936.784 104.788 936.994 105.115C937.227 105.418 937.356 105.78 937.379 106.2C937.426 106.597 937.356 106.993 937.169 107.39C937.006 107.763 936.702 108.055 936.259 108.265C935.466 108.662 934.672 108.942 933.879 109.105C933.086 109.292 932.327 109.385 931.604 109.385ZM947.871 109.385C946.028 109.385 944.418 109.023 943.041 108.3C941.688 107.577 940.638 106.538 939.891 105.185C939.144 103.832 938.771 102.233 938.771 100.39C938.771 99.0133 938.981 97.7767 939.401 96.68C939.821 95.5833 940.428 94.65 941.221 93.88C942.038 93.0867 943.006 92.4917 944.126 92.095C945.246 91.675 946.494 91.465 947.871 91.465C949.714 91.465 951.313 91.8267 952.666 92.55C954.043 93.2733 955.104 94.3 955.851 95.63C956.621 96.96 957.006 98.5467 957.006 100.39C957.006 101.79 956.784 103.038 956.341 104.135C955.921 105.232 955.314 106.177 954.521 106.97C953.728 107.763 952.759 108.37 951.616 108.79C950.496 109.187 949.248 109.385 947.871 109.385ZM947.871 105.43C948.641 105.43 949.306 105.243 949.866 104.87C950.426 104.497 950.869 103.948 951.196 103.225C951.523 102.478 951.686 101.533 951.686 100.39C951.686 98.6867 951.336 97.4383 950.636 96.645C949.936 95.8283 949.014 95.42 947.871 95.42C947.124 95.42 946.459 95.595 945.876 95.945C945.316 96.295 944.873 96.8433 944.546 97.59C944.243 98.3133 944.091 99.2467 944.091 100.39C944.091 102.093 944.441 103.365 945.141 104.205C945.841 105.022 946.751 105.43 947.871 105.43ZM962.881 109.315C962.018 109.315 961.353 109.082 960.886 108.615C960.443 108.148 960.221 107.483 960.221 106.62V94.195C960.221 93.3317 960.443 92.6783 960.886 92.235C961.353 91.7683 961.995 91.535 962.811 91.535C963.651 91.535 964.293 91.7683 964.736 92.235C965.18 92.6783 965.401 93.3317 965.401 94.195V96.19L965.016 95.035C965.553 93.8917 966.346 93.0167 967.396 92.41C968.47 91.78 969.683 91.465 971.036 91.465C972.413 91.465 973.545 91.7333 974.431 92.27C975.318 92.7833 975.983 93.5767 976.426 94.65C976.87 95.7 977.091 97.0417 977.091 98.675V106.62C977.091 107.483 976.858 108.148 976.391 108.615C975.948 109.082 975.295 109.315 974.431 109.315C973.591 109.315 972.938 109.082 972.471 108.615C972.028 108.148 971.806 107.483 971.806 106.62V98.92C971.806 97.73 971.585 96.8783 971.141 96.365C970.721 95.8283 970.068 95.56 969.181 95.56C968.061 95.56 967.163 95.91 966.486 96.61C965.833 97.31 965.506 98.2433 965.506 99.41V106.62C965.506 108.417 964.631 109.315 962.881 109.315ZM989.297 115.685C988.037 115.685 986.824 115.58 985.657 115.37C984.514 115.16 983.499 114.845 982.612 114.425C982.075 114.192 981.69 113.888 981.457 113.515C981.247 113.142 981.154 112.745 981.177 112.325C981.224 111.905 981.364 111.532 981.597 111.205C981.854 110.878 982.169 110.645 982.542 110.505C982.915 110.388 983.312 110.423 983.732 110.61C984.759 111.077 985.704 111.38 986.567 111.52C987.454 111.66 988.212 111.73 988.842 111.73C990.335 111.73 991.455 111.392 992.202 110.715C992.949 110.038 993.322 109 993.322 107.6V104.94H993.637C993.287 106.013 992.564 106.888 991.467 107.565C990.37 108.242 989.157 108.58 987.827 108.58C986.287 108.58 984.945 108.23 983.802 107.53C982.659 106.807 981.772 105.803 981.142 104.52C980.512 103.213 980.197 101.708 980.197 100.005C980.197 98.7217 980.372 97.555 980.722 96.505C981.095 95.455 981.609 94.5567 982.262 93.81C982.939 93.0633 983.744 92.4917 984.677 92.095C985.634 91.675 986.684 91.465 987.827 91.465C989.204 91.465 990.417 91.8033 991.467 92.48C992.54 93.1333 993.252 93.9967 993.602 95.07L993.252 96.19V94.195C993.252 93.3317 993.474 92.6783 993.917 92.235C994.384 91.7683 995.037 91.535 995.877 91.535C996.717 91.535 997.359 91.7683 997.802 92.235C998.245 92.6783 998.467 93.3317 998.467 94.195V107.005C998.467 109.875 997.674 112.033 996.087 113.48C994.524 114.95 992.26 115.685 989.297 115.685ZM989.402 104.625C990.195 104.625 990.872 104.438 991.432 104.065C992.015 103.692 992.47 103.167 992.797 102.49C993.124 101.79 993.287 100.962 993.287 100.005C993.287 98.5583 992.925 97.4383 992.202 96.645C991.502 95.8283 990.569 95.42 989.402 95.42C988.609 95.42 987.92 95.6067 987.337 95.98C986.754 96.33 986.299 96.855 985.972 97.555C985.669 98.2317 985.517 99.0483 985.517 100.005C985.517 101.452 985.867 102.583 986.567 103.4C987.267 104.217 988.212 104.625 989.402 104.625ZM1005.3 109.315C1004.41 109.315 1003.74 109.082 1003.27 108.615C1002.8 108.148 1002.57 107.483 1002.57 106.62V94.195C1002.57 93.3317 1002.79 92.6783 1003.24 92.235C1003.7 91.7683 1004.34 91.535 1005.16 91.535C1006 91.535 1006.64 91.7683 1007.09 92.235C1007.53 92.6783 1007.75 93.3317 1007.75 94.195V96.015H1007.4C1007.68 94.615 1008.3 93.53 1009.26 92.76C1010.21 91.99 1011.45 91.5583 1012.97 91.465C1013.55 91.4183 1013.99 91.57 1014.3 91.92C1014.62 92.2467 1014.8 92.795 1014.82 93.565C1014.87 94.2883 1014.72 94.86 1014.37 95.28C1014.04 95.7 1013.48 95.9567 1012.69 96.05L1011.88 96.12C1010.55 96.2367 1009.56 96.6217 1008.91 97.275C1008.28 97.9283 1007.96 98.8733 1007.96 100.11V106.62C1007.96 107.483 1007.73 108.148 1007.26 108.615C1006.82 109.082 1006.16 109.315 1005.3 109.315ZM1025.61 109.385C1023.58 109.385 1021.83 109.023 1020.36 108.3C1018.91 107.553 1017.79 106.515 1017 105.185C1016.23 103.832 1015.85 102.245 1015.85 100.425C1015.85 98.6517 1016.22 97.1 1016.97 95.77C1017.71 94.4167 1018.75 93.3667 1020.08 92.62C1021.43 91.85 1022.96 91.465 1024.67 91.465C1025.9 91.465 1027.02 91.675 1028.03 92.095C1029.03 92.4917 1029.89 93.075 1030.62 93.845C1031.34 94.5917 1031.89 95.5133 1032.26 96.61C1032.63 97.6833 1032.82 98.885 1032.82 100.215C1032.82 100.658 1032.68 100.997 1032.4 101.23C1032.12 101.44 1031.71 101.545 1031.18 101.545H1020.19V98.815H1029.01L1028.45 99.305C1028.45 98.3483 1028.31 97.555 1028.03 96.925C1027.75 96.2717 1027.34 95.7817 1026.8 95.455C1026.29 95.1283 1025.65 94.965 1024.88 94.965C1024.01 94.965 1023.28 95.1633 1022.67 95.56C1022.06 95.9567 1021.6 96.5283 1021.27 97.275C1020.94 98.0217 1020.78 98.92 1020.78 99.97V100.25C1020.78 102.023 1021.19 103.33 1022.01 104.17C1022.85 105.01 1024.08 105.43 1025.72 105.43C1026.28 105.43 1026.92 105.36 1027.64 105.22C1028.36 105.08 1029.04 104.858 1029.67 104.555C1030.21 104.298 1030.69 104.217 1031.11 104.31C1031.53 104.38 1031.85 104.567 1032.09 104.87C1032.32 105.173 1032.45 105.523 1032.47 105.92C1032.52 106.317 1032.44 106.713 1032.23 107.11C1032.02 107.483 1031.67 107.798 1031.18 108.055C1030.38 108.498 1029.48 108.825 1028.48 109.035C1027.5 109.268 1026.54 109.385 1025.61 109.385ZM1044.16 115.685C1042.9 115.685 1041.68 115.58 1040.52 115.37C1039.37 115.16 1038.36 114.845 1037.47 114.425C1036.93 114.192 1036.55 113.888 1036.32 113.515C1036.11 113.142 1036.01 112.745 1036.04 112.325C1036.08 111.905 1036.22 111.532 1036.46 111.205C1036.71 110.878 1037.03 110.645 1037.4 110.505C1037.77 110.388 1038.17 110.423 1038.59 110.61C1039.62 111.077 1040.56 111.38 1041.43 111.52C1042.31 111.66 1043.07 111.73 1043.7 111.73C1045.19 111.73 1046.31 111.392 1047.06 110.715C1047.81 110.038 1048.18 109 1048.18 107.6V104.94H1048.5C1048.15 106.013 1047.42 106.888 1046.33 107.565C1045.23 108.242 1044.02 108.58 1042.69 108.58C1041.15 108.58 1039.8 108.23 1038.66 107.53C1037.52 106.807 1036.63 105.803 1036 104.52C1035.37 103.213 1035.06 101.708 1035.06 100.005C1035.06 98.7217 1035.23 97.555 1035.58 96.505C1035.95 95.455 1036.47 94.5567 1037.12 93.81C1037.8 93.0633 1038.6 92.4917 1039.54 92.095C1040.49 91.675 1041.54 91.465 1042.69 91.465C1044.06 91.465 1045.28 91.8033 1046.33 92.48C1047.4 93.1333 1048.11 93.9967 1048.46 95.07L1048.11 96.19V94.195C1048.11 93.3317 1048.33 92.6783 1048.78 92.235C1049.24 91.7683 1049.9 91.535 1050.74 91.535C1051.58 91.535 1052.22 91.7683 1052.66 92.235C1053.1 92.6783 1053.33 93.3317 1053.33 94.195V107.005C1053.33 109.875 1052.53 112.033 1050.95 113.48C1049.38 114.95 1047.12 115.685 1044.16 115.685ZM1044.26 104.625C1045.05 104.625 1045.73 104.438 1046.29 104.065C1046.87 103.692 1047.33 103.167 1047.66 102.49C1047.98 101.79 1048.15 100.962 1048.15 100.005C1048.15 98.5583 1047.78 97.4383 1047.06 96.645C1046.36 95.8283 1045.43 95.42 1044.26 95.42C1043.47 95.42 1042.78 95.6067 1042.2 95.98C1041.61 96.33 1041.16 96.855 1040.83 97.555C1040.53 98.2317 1040.38 99.0483 1040.38 100.005C1040.38 101.452 1040.73 102.583 1041.43 103.4C1042.13 104.217 1043.07 104.625 1044.26 104.625ZM1063.24 109.385C1061.98 109.385 1060.85 109.14 1059.84 108.65C1058.84 108.16 1058.06 107.495 1057.5 106.655C1056.94 105.815 1056.66 104.87 1056.66 103.82C1056.66 102.56 1056.99 101.568 1057.64 100.845C1058.29 100.098 1059.35 99.5733 1060.82 99.27C1062.29 98.9433 1064.24 98.78 1066.67 98.78H1068.52V101.51H1066.7C1065.51 101.51 1064.55 101.58 1063.8 101.72C1063.08 101.837 1062.55 102.047 1062.22 102.35C1061.92 102.653 1061.77 103.073 1061.77 103.61C1061.77 104.263 1061.99 104.8 1062.43 105.22C1062.9 105.64 1063.57 105.85 1064.43 105.85C1065.11 105.85 1065.7 105.698 1066.21 105.395C1066.75 105.068 1067.17 104.637 1067.47 104.1C1067.78 103.54 1067.93 102.91 1067.93 102.21V98.185C1067.93 97.1583 1067.7 96.435 1067.23 96.015C1066.76 95.5717 1065.97 95.35 1064.85 95.35C1064.22 95.35 1063.53 95.4317 1062.78 95.595C1062.06 95.735 1061.26 95.98 1060.37 96.33C1059.86 96.5633 1059.4 96.6217 1059 96.505C1058.61 96.365 1058.3 96.1317 1058.09 95.805C1057.88 95.455 1057.78 95.0817 1057.78 94.685C1057.78 94.265 1057.9 93.8683 1058.13 93.495C1058.36 93.0983 1058.75 92.8067 1059.28 92.62C1060.38 92.1767 1061.41 91.8733 1062.36 91.71C1063.34 91.5467 1064.24 91.465 1065.06 91.465C1066.86 91.465 1068.33 91.7333 1069.47 92.27C1070.64 92.7833 1071.51 93.5883 1072.09 94.685C1072.68 95.7583 1072.97 97.1467 1072.97 98.85V106.62C1072.97 107.483 1072.76 108.148 1072.34 108.615C1071.92 109.082 1071.31 109.315 1070.52 109.315C1069.73 109.315 1069.11 109.082 1068.66 108.615C1068.24 108.148 1068.03 107.483 1068.03 106.62V105.325L1068.28 105.535C1068.14 106.328 1067.84 107.017 1067.37 107.6C1066.93 108.16 1066.35 108.603 1065.65 108.93C1064.95 109.233 1064.15 109.385 1063.24 109.385ZM1085.35 109.385C1083.74 109.385 1082.38 109.117 1081.29 108.58C1080.21 108.043 1079.41 107.262 1078.87 106.235C1078.36 105.208 1078.1 103.913 1078.1 102.35V95.77H1076.63C1075.98 95.77 1075.46 95.595 1075.09 95.245C1074.74 94.895 1074.57 94.4167 1074.57 93.81C1074.57 93.1567 1074.74 92.6667 1075.09 92.34C1075.46 91.99 1075.98 91.815 1076.63 91.815H1078.1V89.155C1078.1 88.2683 1078.33 87.6033 1078.8 87.16C1079.27 86.6933 1079.92 86.46 1080.76 86.46C1081.62 86.46 1082.28 86.6933 1082.72 87.16C1083.16 87.6033 1083.39 88.2683 1083.39 89.155V91.815H1086.71C1087.36 91.815 1087.87 91.99 1088.22 92.34C1088.57 92.6667 1088.74 93.1567 1088.74 93.81C1088.74 94.4167 1088.57 94.895 1088.22 95.245C1087.87 95.595 1087.36 95.77 1086.71 95.77H1083.39V102.14C1083.39 103.12 1083.61 103.855 1084.05 104.345C1084.52 104.835 1085.25 105.08 1086.26 105.08C1086.61 105.08 1086.93 105.045 1087.24 104.975C1087.54 104.905 1087.82 104.858 1088.08 104.835C1088.4 104.812 1088.67 104.917 1088.88 105.15C1089.09 105.36 1089.2 105.838 1089.2 106.585C1089.2 107.145 1089.1 107.635 1088.92 108.055C1088.73 108.475 1088.4 108.778 1087.94 108.965C1087.63 109.082 1087.21 109.175 1086.68 109.245C1086.16 109.338 1085.72 109.385 1085.35 109.385ZM1099.15 109.385C1097.31 109.385 1095.7 109.023 1094.32 108.3C1092.97 107.577 1091.92 106.538 1091.17 105.185C1090.42 103.832 1090.05 102.233 1090.05 100.39C1090.05 99.0133 1090.26 97.7767 1090.68 96.68C1091.1 95.5833 1091.71 94.65 1092.5 93.88C1093.32 93.0867 1094.29 92.4917 1095.41 92.095C1096.53 91.675 1097.77 91.465 1099.15 91.465C1100.99 91.465 1102.59 91.8267 1103.95 92.55C1105.32 93.2733 1106.38 94.3 1107.13 95.63C1107.9 96.96 1108.29 98.5467 1108.29 100.39C1108.29 101.79 1108.06 103.038 1107.62 104.135C1107.2 105.232 1106.59 106.177 1105.8 106.97C1105.01 107.763 1104.04 108.37 1102.9 108.79C1101.78 109.187 1100.53 109.385 1099.15 109.385ZM1099.15 105.43C1099.92 105.43 1100.59 105.243 1101.15 104.87C1101.71 104.497 1102.15 103.948 1102.48 103.225C1102.8 102.478 1102.97 101.533 1102.97 100.39C1102.97 98.6867 1102.62 97.4383 1101.92 96.645C1101.22 95.8283 1100.29 95.42 1099.15 95.42C1098.4 95.42 1097.74 95.595 1097.16 95.945C1096.6 96.295 1096.15 96.8433 1095.83 97.59C1095.52 98.3133 1095.37 99.2467 1095.37 100.39C1095.37 102.093 1095.72 103.365 1096.42 104.205C1097.12 105.022 1098.03 105.43 1099.15 105.43ZM1114.23 109.315C1113.34 109.315 1112.67 109.082 1112.2 108.615C1111.73 108.148 1111.5 107.483 1111.5 106.62V94.195C1111.5 93.3317 1111.72 92.6783 1112.17 92.235C1112.63 91.7683 1113.27 91.535 1114.09 91.535C1114.93 91.535 1115.57 91.7683 1116.02 92.235C1116.46 92.6783 1116.68 93.3317 1116.68 94.195V96.015H1116.33C1116.61 94.615 1117.23 93.53 1118.19 92.76C1119.14 91.99 1120.38 91.5583 1121.9 91.465C1122.48 91.4183 1122.92 91.57 1123.23 91.92C1123.55 92.2467 1123.73 92.795 1123.75 93.565C1123.8 94.2883 1123.65 94.86 1123.3 95.28C1122.97 95.7 1122.41 95.9567 1121.62 96.05L1120.81 96.12C1119.48 96.2367 1118.49 96.6217 1117.84 97.275C1117.21 97.9283 1116.89 98.8733 1116.89 100.11V106.62C1116.89 107.483 1116.66 108.148 1116.19 108.615C1115.75 109.082 1115.09 109.315 1114.23 109.315ZM1127.66 109.175C1126.73 109.175 1125.98 108.895 1125.42 108.335C1124.88 107.775 1124.61 107.052 1124.61 106.165C1124.61 105.302 1124.88 104.602 1125.42 104.065C1125.98 103.505 1126.73 103.225 1127.66 103.225C1128.59 103.225 1129.32 103.505 1129.83 104.065C1130.37 104.602 1130.63 105.302 1130.63 106.165C1130.63 107.052 1130.37 107.775 1129.83 108.335C1129.32 108.895 1128.59 109.175 1127.66 109.175Z" fill="white"/>
<path d="M1056.74 249.315C1055.99 249.315 1055.38 249.152 1054.89 248.825C1054.42 248.475 1054.03 247.95 1053.73 247.25L1044.91 227.65C1044.58 226.95 1044.49 226.332 1044.63 225.795C1044.77 225.235 1045.06 224.803 1045.51 224.5C1045.95 224.173 1046.49 224.01 1047.12 224.01C1047.91 224.01 1048.52 224.197 1048.94 224.57C1049.36 224.92 1049.71 225.445 1049.99 226.145L1057.72 244.03H1055.97L1063.71 226.11C1064.01 225.41 1064.37 224.885 1064.79 224.535C1065.21 224.185 1065.79 224.01 1066.54 224.01C1067.17 224.01 1067.68 224.173 1068.08 224.5C1068.5 224.803 1068.76 225.235 1068.85 225.795C1068.97 226.332 1068.87 226.95 1068.57 227.65L1059.75 247.25C1059.42 247.95 1059.03 248.475 1058.56 248.825C1058.12 249.152 1057.51 249.315 1056.74 249.315ZM1075.12 249.385C1073.86 249.385 1072.72 249.14 1071.72 248.65C1070.72 248.16 1069.94 247.495 1069.38 246.655C1068.82 245.815 1068.54 244.87 1068.54 243.82C1068.54 242.56 1068.86 241.568 1069.52 240.845C1070.17 240.098 1071.23 239.573 1072.7 239.27C1074.17 238.943 1076.12 238.78 1078.55 238.78H1080.4V241.51H1078.58C1077.39 241.51 1076.42 241.58 1075.68 241.72C1074.95 241.837 1074.43 242.047 1074.1 242.35C1073.8 242.653 1073.65 243.073 1073.65 243.61C1073.65 244.263 1073.87 244.8 1074.31 245.22C1074.78 245.64 1075.44 245.85 1076.31 245.85C1076.98 245.85 1077.58 245.698 1078.09 245.395C1078.63 245.068 1079.05 244.637 1079.35 244.1C1079.65 243.54 1079.81 242.91 1079.81 242.21V238.185C1079.81 237.158 1079.57 236.435 1079.11 236.015C1078.64 235.572 1077.85 235.35 1076.73 235.35C1076.1 235.35 1075.41 235.432 1074.66 235.595C1073.94 235.735 1073.13 235.98 1072.25 236.33C1071.73 236.563 1071.28 236.622 1070.88 236.505C1070.48 236.365 1070.18 236.132 1069.97 235.805C1069.76 235.455 1069.66 235.082 1069.66 234.685C1069.66 234.265 1069.77 233.868 1070.01 233.495C1070.24 233.098 1070.62 232.807 1071.16 232.62C1072.26 232.177 1073.28 231.873 1074.24 231.71C1075.22 231.547 1076.12 231.465 1076.94 231.465C1078.73 231.465 1080.2 231.733 1081.35 232.27C1082.51 232.783 1083.39 233.588 1083.97 234.685C1084.55 235.758 1084.85 237.147 1084.85 238.85V246.62C1084.85 247.483 1084.64 248.148 1084.22 248.615C1083.8 249.082 1083.19 249.315 1082.4 249.315C1081.6 249.315 1080.98 249.082 1080.54 248.615C1080.12 248.148 1079.91 247.483 1079.91 246.62V245.325L1080.16 245.535C1080.02 246.328 1079.71 247.017 1079.25 247.6C1078.8 248.16 1078.23 248.603 1077.53 248.93C1076.83 249.233 1076.03 249.385 1075.12 249.385ZM1095.12 249.385C1093.68 249.385 1092.48 249.117 1091.52 248.58C1090.56 248.043 1089.85 247.238 1089.38 246.165C1088.94 245.068 1088.72 243.715 1088.72 242.105V234.195C1088.72 233.308 1088.94 232.643 1089.38 232.2C1089.85 231.757 1090.5 231.535 1091.34 231.535C1092.18 231.535 1092.84 231.757 1093.3 232.2C1093.77 232.643 1094 233.308 1094 234.195V242.245C1094 243.272 1094.21 244.042 1094.63 244.555C1095.05 245.045 1095.72 245.29 1096.63 245.29C1097.63 245.29 1098.45 244.94 1099.08 244.24C1099.73 243.517 1100.06 242.572 1100.06 241.405V234.195C1100.06 233.308 1100.28 232.643 1100.72 232.2C1101.19 231.757 1101.84 231.535 1102.68 231.535C1103.55 231.535 1104.2 231.757 1104.64 232.2C1105.11 232.643 1105.34 233.308 1105.34 234.195V246.62C1105.34 248.417 1104.49 249.315 1102.79 249.315C1101.95 249.315 1101.31 249.082 1100.86 248.615C1100.42 248.148 1100.2 247.483 1100.2 246.62V244.275L1100.72 245.64C1100.21 246.83 1099.48 247.752 1098.52 248.405C1097.56 249.058 1096.43 249.385 1095.12 249.385ZM1115.63 249.385C1113.55 249.385 1112 248.813 1110.97 247.67C1109.95 246.503 1109.43 244.777 1109.43 242.49V226.705C1109.43 225.818 1109.65 225.153 1110.1 224.71C1110.56 224.243 1111.23 224.01 1112.09 224.01C1112.93 224.01 1113.57 224.243 1114.02 224.71C1114.48 225.153 1114.72 225.818 1114.72 226.705V242.28C1114.72 243.237 1114.92 243.948 1115.31 244.415C1115.73 244.858 1116.28 245.08 1116.96 245.08C1117.14 245.08 1117.32 245.068 1117.48 245.045C1117.65 245.022 1117.82 245.01 1118.01 245.01C1118.38 244.963 1118.64 245.08 1118.78 245.36C1118.94 245.617 1119.02 246.142 1119.02 246.935C1119.02 247.635 1118.88 248.172 1118.6 248.545C1118.32 248.895 1117.89 249.128 1117.31 249.245C1117.07 249.268 1116.81 249.292 1116.5 249.315C1116.2 249.362 1115.91 249.385 1115.63 249.385ZM1129.01 249.385C1127.4 249.385 1126.05 249.117 1124.95 248.58C1123.88 248.043 1123.07 247.262 1122.54 246.235C1122.02 245.208 1121.77 243.913 1121.77 242.35V235.77H1120.3C1119.64 235.77 1119.13 235.595 1118.76 235.245C1118.41 234.895 1118.23 234.417 1118.23 233.81C1118.23 233.157 1118.41 232.667 1118.76 232.34C1119.13 231.99 1119.64 231.815 1120.3 231.815H1121.77V229.155C1121.77 228.268 1122 227.603 1122.47 227.16C1122.93 226.693 1123.59 226.46 1124.43 226.46C1125.29 226.46 1125.94 226.693 1126.39 227.16C1126.83 227.603 1127.05 228.268 1127.05 229.155V231.815H1130.38C1131.03 231.815 1131.53 231.99 1131.88 232.34C1132.23 232.667 1132.41 233.157 1132.41 233.81C1132.41 234.417 1132.23 234.895 1131.88 235.245C1131.53 235.595 1131.03 235.77 1130.38 235.77H1127.05V242.14C1127.05 243.12 1127.27 243.855 1127.72 244.345C1128.18 244.835 1128.92 245.08 1129.92 245.08C1130.27 245.08 1130.6 245.045 1130.9 244.975C1131.2 244.905 1131.48 244.858 1131.74 244.835C1132.07 244.812 1132.34 244.917 1132.55 245.15C1132.76 245.36 1132.86 245.838 1132.86 246.585C1132.86 247.145 1132.77 247.635 1132.58 248.055C1132.39 248.475 1132.07 248.778 1131.6 248.965C1131.3 249.082 1130.88 249.175 1130.34 249.245C1129.83 249.338 1129.38 249.385 1129.01 249.385Z" fill="white"/>
<path d="M626.56 160C625.78 160 625.18 159.79 624.76 159.37C624.34 158.95 624.13 158.35 624.13 157.57V141.28C624.13 140.5 624.34 139.9 624.76 139.48C625.18 139.06 625.78 138.85 626.56 138.85H633.82C635.32 138.85 636.6 139.07 637.66 139.51C638.72 139.95 639.52 140.58 640.06 141.4C640.62 142.22 640.9 143.2 640.9 144.34C640.9 145.6 640.54 146.67 639.82 147.55C639.1 148.43 638.11 149.02 636.85 149.32V148.84C638.31 149.1 639.44 149.68 640.24 150.58C641.06 151.46 641.47 152.61 641.47 154.03C641.47 155.91 640.82 157.38 639.52 158.44C638.22 159.48 636.43 160 634.15 160H626.56ZM628.57 156.55H633.52C634.72 156.55 635.6 156.32 636.16 155.86C636.72 155.38 637 154.68 637 153.76C637 152.84 636.72 152.15 636.16 151.69C635.6 151.23 634.72 151 633.52 151H628.57V156.55ZM628.57 147.55H633.01C634.17 147.55 635.03 147.33 635.59 146.89C636.15 146.45 636.43 145.79 636.43 144.91C636.43 144.05 636.15 143.4 635.59 142.96C635.03 142.52 634.17 142.3 633.01 142.3H628.57V147.55ZM650.029 160.33C648.789 160.33 647.759 160.1 646.939 159.64C646.119 159.18 645.509 158.49 645.109 157.57C644.729 156.63 644.539 155.47 644.539 154.09V147.31C644.539 146.55 644.729 145.98 645.109 145.6C645.509 145.22 646.069 145.03 646.789 145.03C647.509 145.03 648.069 145.22 648.469 145.6C648.869 145.98 649.069 146.55 649.069 147.31V154.21C649.069 155.09 649.249 155.75 649.609 156.19C649.969 156.61 650.539 156.82 651.319 156.82C652.179 156.82 652.879 156.52 653.419 155.92C653.979 155.3 654.259 154.49 654.259 153.49V147.31C654.259 146.55 654.449 145.98 654.829 145.6C655.229 145.22 655.789 145.03 656.509 145.03C657.249 145.03 657.809 145.22 658.189 145.6C658.589 145.98 658.789 146.55 658.789 147.31V157.96C658.789 159.5 658.059 160.27 656.599 160.27C655.879 160.27 655.329 160.07 654.949 159.67C654.569 159.27 654.379 158.7 654.379 157.96V155.95L654.829 157.12C654.389 158.14 653.759 158.93 652.939 159.49C652.119 160.05 651.149 160.33 650.029 160.33ZM664.575 160.24C663.835 160.24 663.265 160.03 662.865 159.61C662.485 159.17 662.295 158.56 662.295 157.78V147.52C662.295 146.72 662.485 146.11 662.865 145.69C663.265 145.25 663.835 145.03 664.575 145.03C665.295 145.03 665.845 145.25 666.225 145.69C666.625 146.11 666.825 146.72 666.825 147.52V157.78C666.825 158.56 666.635 159.17 666.255 159.61C665.875 160.03 665.315 160.24 664.575 160.24ZM664.575 142.57C663.735 142.57 663.085 142.38 662.625 142C662.185 141.6 661.965 141.04 661.965 140.32C661.965 139.58 662.185 139.02 662.625 138.64C663.085 138.24 663.735 138.04 664.575 138.04C665.415 138.04 666.055 138.24 666.495 138.64C666.935 139.02 667.155 139.58 667.155 140.32C667.155 141.04 666.935 141.6 666.495 142C666.055 142.38 665.415 142.57 664.575 142.57ZM675.632 160.33C673.852 160.33 672.522 159.84 671.642 158.86C670.762 157.86 670.322 156.38 670.322 154.42V140.89C670.322 140.13 670.512 139.56 670.892 139.18C671.292 138.78 671.862 138.58 672.602 138.58C673.322 138.58 673.872 138.78 674.252 139.18C674.652 139.56 674.852 140.13 674.852 140.89V154.24C674.852 155.06 675.022 155.67 675.362 156.07C675.722 156.45 676.192 156.64 676.772 156.64C676.932 156.64 677.082 156.63 677.222 156.61C677.362 156.59 677.512 156.58 677.672 156.58C677.992 156.54 678.212 156.64 678.332 156.88C678.472 157.1 678.542 157.55 678.542 158.23C678.542 158.83 678.422 159.29 678.182 159.61C677.942 159.91 677.572 160.11 677.072 160.21C676.872 160.23 676.642 160.25 676.382 160.27C676.122 160.31 675.872 160.33 675.632 160.33ZM687.103 160.33C685.723 160.33 684.563 160.1 683.623 159.64C682.703 159.18 682.013 158.51 681.553 157.63C681.113 156.75 680.893 155.64 680.893 154.3V148.66H679.633C679.073 148.66 678.633 148.51 678.313 148.21C678.013 147.91 677.863 147.5 677.863 146.98C677.863 146.42 678.013 146 678.313 145.72C678.633 145.42 679.073 145.27 679.633 145.27H680.893V142.99C680.893 142.23 681.093 141.66 681.493 141.28C681.893 140.88 682.453 140.68 683.173 140.68C683.913 140.68 684.473 140.88 684.853 141.28C685.233 141.66 685.423 142.23 685.423 142.99V145.27H688.273C688.833 145.27 689.263 145.42 689.563 145.72C689.863 146 690.013 146.42 690.013 146.98C690.013 147.5 689.863 147.91 689.563 148.21C689.263 148.51 688.833 148.66 688.273 148.66H685.423V154.12C685.423 154.96 685.613 155.59 685.993 156.01C686.393 156.43 687.023 156.64 687.883 156.64C688.183 156.64 688.463 156.61 688.723 156.55C688.983 156.49 689.223 156.45 689.443 156.43C689.723 156.41 689.953 156.5 690.133 156.7C690.313 156.88 690.403 157.29 690.403 157.93C690.403 158.41 690.323 158.83 690.163 159.19C690.003 159.55 689.723 159.81 689.323 159.97C689.063 160.07 688.703 160.15 688.243 160.21C687.803 160.29 687.423 160.33 687.103 160.33ZM709.471 160.33C708.291 160.33 707.241 160.04 706.321 159.46C705.421 158.86 704.821 158.07 704.521 157.09L704.851 156.1V157.96C704.851 158.7 704.661 159.27 704.281 159.67C703.901 160.07 703.351 160.27 702.631 160.27C701.911 160.27 701.351 160.07 700.951 159.67C700.571 159.27 700.381 158.7 700.381 157.96V140.89C700.381 140.13 700.571 139.56 700.951 139.18C701.351 138.78 701.921 138.58 702.661 138.58C703.381 138.58 703.931 138.78 704.311 139.18C704.711 139.56 704.911 140.13 704.911 140.89V148H704.551C704.871 147.1 705.481 146.37 706.381 145.81C707.281 145.25 708.311 144.97 709.471 144.97C710.771 144.97 711.901 145.28 712.861 145.9C713.821 146.52 714.571 147.4 715.111 148.54C715.651 149.68 715.921 151.04 715.921 152.62C715.921 154.2 715.651 155.57 715.111 156.73C714.571 157.89 713.811 158.78 712.831 159.4C711.871 160.02 710.751 160.33 709.471 160.33ZM708.121 156.94C708.761 156.94 709.321 156.78 709.801 156.46C710.301 156.14 710.681 155.67 710.941 155.05C711.221 154.41 711.361 153.6 711.361 152.62C711.361 151.16 711.061 150.09 710.461 149.41C709.861 148.71 709.081 148.36 708.121 148.36C707.481 148.36 706.911 148.51 706.411 148.81C705.931 149.11 705.551 149.58 705.271 150.22C704.991 150.84 704.851 151.64 704.851 152.62C704.851 154.08 705.151 155.17 705.751 155.89C706.351 156.59 707.141 156.94 708.121 156.94ZM722.36 165.67C721.84 165.67 721.41 165.53 721.07 165.25C720.73 164.97 720.53 164.6 720.47 164.14C720.41 163.7 720.49 163.23 720.71 162.73L722.72 158.29V160.15L717.41 147.97C717.21 147.45 717.14 146.97 717.2 146.53C717.28 146.07 717.5 145.71 717.86 145.45C718.24 145.17 718.76 145.03 719.42 145.03C719.96 145.03 720.39 145.16 720.71 145.42C721.05 145.66 721.36 146.13 721.64 146.83L725.18 155.83H724.22L727.88 146.8C728.16 146.12 728.47 145.66 728.81 145.42C729.17 145.16 729.65 145.03 730.25 145.03C730.77 145.03 731.18 145.17 731.48 145.45C731.8 145.71 731.99 146.06 732.05 146.5C732.13 146.94 732.05 147.42 731.81 147.94L724.76 163.93C724.46 164.61 724.12 165.07 723.74 165.31C723.38 165.55 722.92 165.67 722.36 165.67ZM736.526 160.15C735.726 160.15 735.086 159.91 734.606 159.43C734.146 158.95 733.916 158.33 733.916 157.57C733.916 156.83 734.146 156.23 734.606 155.77C735.086 155.29 735.726 155.05 736.526 155.05C737.326 155.05 737.946 155.29 738.386 155.77C738.846 156.23 739.076 156.83 739.076 157.57C739.076 158.33 738.846 158.95 738.386 159.43C737.946 159.91 737.326 160.15 736.526 160.15ZM736.526 150.22C735.726 150.22 735.086 149.98 734.606 149.5C734.146 149.02 733.916 148.41 733.916 147.67C733.916 146.91 734.146 146.3 734.606 145.84C735.086 145.36 735.726 145.12 736.526 145.12C737.326 145.12 737.946 145.36 738.386 145.84C738.846 146.3 739.076 146.91 739.076 147.67C739.076 148.41 738.846 149.02 738.386 149.5C737.946 149.98 737.326 150.22 736.526 150.22ZM763.378 164.98C761.438 164.98 759.658 164.67 758.038 164.05C756.438 163.45 755.058 162.57 753.898 161.41C752.738 160.27 751.838 158.91 751.198 157.33C750.578 155.75 750.268 153.99 750.268 152.05C750.268 150.01 750.588 148.16 751.228 146.5C751.888 144.84 752.818 143.42 754.018 142.24C755.238 141.04 756.678 140.12 758.338 139.48C760.018 138.84 761.888 138.52 763.948 138.52C766.328 138.52 768.408 138.99 770.188 139.93C771.988 140.85 773.378 142.15 774.358 143.83C775.338 145.51 775.828 147.5 775.828 149.8C775.828 151.52 775.578 153.02 775.078 154.3C774.598 155.56 773.918 156.53 773.038 157.21C772.158 157.89 771.128 158.23 769.948 158.23C768.708 158.23 767.738 157.9 767.038 157.24C766.338 156.58 765.928 155.65 765.808 154.45L766.948 153.88C766.448 155.34 765.738 156.43 764.818 157.15C763.898 157.87 762.878 158.23 761.758 158.23C760.138 158.23 758.878 157.72 757.978 156.7C757.078 155.68 756.628 154.29 756.628 152.53C756.628 151.07 756.898 149.77 757.438 148.63C757.998 147.49 758.758 146.6 759.718 145.96C760.678 145.3 761.778 144.97 763.018 144.97C764.078 144.97 764.938 145.23 765.598 145.75C766.258 146.27 766.718 147.05 766.978 148.09H766.378L766.618 146.71C766.798 145.71 767.398 145.21 768.418 145.21C768.978 145.21 769.388 145.37 769.648 145.69C769.908 145.99 769.988 146.43 769.888 147.01L768.958 152.2C768.898 152.56 768.848 152.89 768.808 153.19C768.768 153.47 768.748 153.72 768.748 153.94C768.748 154.54 768.868 154.98 769.108 155.26C769.348 155.52 769.698 155.65 770.158 155.65C770.758 155.65 771.278 155.41 771.718 154.93C772.158 154.45 772.498 153.76 772.738 152.86C772.998 151.96 773.128 150.94 773.128 149.8C773.128 147.96 772.758 146.4 772.018 145.12C771.278 143.84 770.228 142.87 768.868 142.21C767.508 141.53 765.858 141.19 763.918 141.19C761.758 141.19 759.888 141.64 758.308 142.54C756.728 143.42 755.498 144.67 754.618 146.29C753.738 147.91 753.298 149.83 753.298 152.05C753.298 154.17 753.708 156 754.528 157.54C755.368 159.08 756.538 160.26 758.038 161.08C759.538 161.9 761.318 162.31 763.378 162.31C764.598 162.31 765.718 162.17 766.738 161.89C767.778 161.61 768.728 161.21 769.588 160.69C770.008 160.43 770.388 160.35 770.728 160.45C771.068 160.57 771.308 160.79 771.448 161.11C771.608 161.43 771.638 161.77 771.538 162.13C771.438 162.49 771.178 162.8 770.758 163.06C769.858 163.64 768.778 164.1 767.518 164.44C766.278 164.8 764.898 164.98 763.378 164.98ZM762.478 155.47C763.158 155.47 763.758 155.26 764.278 154.84C764.798 154.42 765.198 153.83 765.478 153.07C765.778 152.29 765.928 151.4 765.928 150.4C765.928 149.54 765.738 148.89 765.358 148.45C764.998 147.99 764.428 147.76 763.648 147.76C762.948 147.76 762.328 147.96 761.788 148.36C761.268 148.76 760.858 149.31 760.558 150.01C760.258 150.71 760.108 151.54 760.108 152.5C760.108 153.46 760.308 154.2 760.708 154.72C761.128 155.22 761.718 155.47 762.478 155.47ZM781.352 165.67C780.612 165.67 780.042 165.47 779.642 165.07C779.262 164.69 779.072 164.12 779.072 163.36V147.31C779.072 146.57 779.262 146.01 779.642 145.63C780.042 145.23 780.592 145.03 781.292 145.03C782.032 145.03 782.592 145.23 782.972 145.63C783.352 146.01 783.542 146.57 783.542 147.31V149.35L783.212 148.18C783.512 147.22 784.112 146.45 785.012 145.87C785.932 145.27 786.982 144.97 788.162 144.97C789.442 144.97 790.562 145.28 791.522 145.9C792.502 146.52 793.262 147.4 793.802 148.54C794.342 149.68 794.612 151.04 794.612 152.62C794.612 154.2 794.342 155.57 793.802 156.73C793.262 157.89 792.512 158.78 791.552 159.4C790.592 160.02 789.462 160.33 788.162 160.33C787.002 160.33 785.972 160.05 785.072 159.49C784.172 158.91 783.562 158.16 783.242 157.24H783.602V163.36C783.602 164.12 783.402 164.69 783.002 165.07C782.622 165.47 782.072 165.67 781.352 165.67ZM786.812 156.94C787.452 156.94 788.012 156.78 788.492 156.46C788.992 156.14 789.372 155.67 789.632 155.05C789.912 154.41 790.052 153.6 790.052 152.62C790.052 151.16 789.752 150.09 789.152 149.41C788.552 148.71 787.772 148.36 786.812 148.36C786.172 148.36 785.602 148.51 785.102 148.81C784.622 149.11 784.242 149.58 783.962 150.22C783.682 150.84 783.542 151.64 783.542 152.62C783.542 154.08 783.842 155.17 784.442 155.89C785.042 156.59 785.832 156.94 786.812 156.94ZM805.033 160.33C803.293 160.33 801.793 160.02 800.533 159.4C799.293 158.76 798.333 157.87 797.653 156.73C796.993 155.57 796.663 154.21 796.663 152.65C796.663 151.13 796.983 149.8 797.623 148.66C798.263 147.5 799.153 146.6 800.293 145.96C801.453 145.3 802.763 144.97 804.223 144.97C805.283 144.97 806.243 145.15 807.103 145.51C807.963 145.85 808.703 146.35 809.323 147.01C809.943 147.65 810.413 148.44 810.733 149.38C811.053 150.3 811.213 151.33 811.213 152.47C811.213 152.85 811.093 153.14 810.853 153.34C810.613 153.52 810.263 153.61 809.803 153.61H800.383V151.27H807.943L807.463 151.69C807.463 150.87 807.343 150.19 807.103 149.65C806.863 149.09 806.513 148.67 806.053 148.39C805.613 148.11 805.063 147.97 804.403 147.97C803.663 147.97 803.033 148.14 802.513 148.48C801.993 148.82 801.593 149.31 801.313 149.95C801.033 150.59 800.893 151.36 800.893 152.26V152.5C800.893 154.02 801.243 155.14 801.943 155.86C802.663 156.58 803.723 156.94 805.123 156.94C805.603 156.94 806.153 156.88 806.773 156.76C807.393 156.64 807.973 156.45 808.513 156.19C808.973 155.97 809.383 155.9 809.743 155.98C810.103 156.04 810.383 156.2 810.583 156.46C810.783 156.72 810.893 157.02 810.913 157.36C810.953 157.7 810.883 158.04 810.703 158.38C810.523 158.7 810.223 158.97 809.803 159.19C809.123 159.57 808.353 159.85 807.493 160.03C806.653 160.23 805.833 160.33 805.033 160.33ZM816.127 160.27C815.387 160.27 814.817 160.07 814.417 159.67C814.037 159.27 813.847 158.7 813.847 157.96V147.31C813.847 146.57 814.037 146.01 814.417 145.63C814.817 145.23 815.367 145.03 816.067 145.03C816.787 145.03 817.337 145.23 817.717 145.63C818.097 146.01 818.287 146.57 818.287 147.31V149.02L817.957 148.03C818.417 147.05 819.097 146.3 819.997 145.78C820.917 145.24 821.957 144.97 823.117 144.97C824.297 144.97 825.267 145.2 826.027 145.66C826.787 146.1 827.357 146.78 827.737 147.7C828.117 148.6 828.307 149.75 828.307 151.15V157.96C828.307 158.7 828.107 159.27 827.707 159.67C827.327 160.07 826.767 160.27 826.027 160.27C825.307 160.27 824.747 160.07 824.347 159.67C823.967 159.27 823.777 158.7 823.777 157.96V151.36C823.777 150.34 823.587 149.61 823.207 149.17C822.847 148.71 822.287 148.48 821.527 148.48C820.567 148.48 819.797 148.78 819.217 149.38C818.657 149.98 818.377 150.78 818.377 151.78V157.96C818.377 159.5 817.627 160.27 816.127 160.27ZM834.029 160.27C833.269 160.27 832.689 160.07 832.289 159.67C831.889 159.27 831.689 158.7 831.689 157.96V147.31C831.689 146.57 831.879 146.01 832.259 145.63C832.659 145.23 833.209 145.03 833.909 145.03C834.629 145.03 835.179 145.23 835.559 145.63C835.939 146.01 836.129 146.57 836.129 147.31V148.87H835.829C836.069 147.67 836.599 146.74 837.419 146.08C838.239 145.42 839.299 145.05 840.599 144.97C841.099 144.93 841.479 145.06 841.739 145.36C842.019 145.64 842.169 146.11 842.189 146.77C842.229 147.39 842.099 147.88 841.799 148.24C841.519 148.6 841.039 148.82 840.359 148.9L839.669 148.96C838.529 149.06 837.679 149.39 837.119 149.95C836.579 150.51 836.309 151.32 836.309 152.38V157.96C836.309 158.7 836.109 159.27 835.709 159.67C835.329 160.07 834.769 160.27 834.029 160.27ZM850.869 160.33C849.289 160.33 847.909 160.02 846.729 159.4C845.569 158.78 844.669 157.89 844.029 156.73C843.389 155.57 843.069 154.2 843.069 152.62C843.069 151.44 843.249 150.38 843.609 149.44C843.969 148.5 844.489 147.7 845.169 147.04C845.869 146.36 846.699 145.85 847.659 145.51C848.619 145.15 849.689 144.97 850.869 144.97C852.449 144.97 853.819 145.28 854.979 145.9C856.159 146.52 857.069 147.4 857.709 148.54C858.369 149.68 858.699 151.04 858.699 152.62C858.699 153.82 858.509 154.89 858.129 155.83C857.769 156.77 857.249 157.58 856.569 158.26C855.889 158.94 855.059 159.46 854.079 159.82C853.119 160.16 852.049 160.33 850.869 160.33ZM850.869 156.94C851.529 156.94 852.099 156.78 852.579 156.46C853.059 156.14 853.439 155.67 853.719 155.05C853.999 154.41 854.139 153.6 854.139 152.62C854.139 151.16 853.839 150.09 853.239 149.41C852.639 148.71 851.849 148.36 850.869 148.36C850.229 148.36 849.659 148.51 849.159 148.81C848.679 149.11 848.299 149.58 848.019 150.22C847.759 150.84 847.629 151.64 847.629 152.62C847.629 154.08 847.929 155.17 848.529 155.89C849.129 156.59 849.909 156.94 850.869 156.94ZM867.185 160.33C865.905 160.33 864.775 160.02 863.795 159.4C862.835 158.78 862.085 157.89 861.545 156.73C861.005 155.57 860.735 154.2 860.735 152.62C860.735 151.04 861.005 149.68 861.545 148.54C862.085 147.4 862.835 146.52 863.795 145.9C864.775 145.28 865.905 144.97 867.185 144.97C868.345 144.97 869.365 145.25 870.245 145.81C871.145 146.37 871.755 147.1 872.075 148H871.745V140.89C871.745 140.13 871.935 139.56 872.315 139.18C872.695 138.78 873.255 138.58 873.995 138.58C874.715 138.58 875.275 138.78 875.675 139.18C876.075 139.56 876.275 140.13 876.275 140.89V157.96C876.275 158.7 876.075 159.27 875.675 159.67C875.295 160.07 874.745 160.27 874.025 160.27C873.305 160.27 872.745 160.07 872.345 159.67C871.965 159.27 871.775 158.7 871.775 157.96V155.92L872.105 157.09C871.825 158.07 871.225 158.86 870.305 159.46C869.405 160.04 868.365 160.33 867.185 160.33ZM868.535 156.94C869.195 156.94 869.765 156.78 870.245 156.46C870.725 156.14 871.105 155.67 871.385 155.05C871.665 154.41 871.805 153.6 871.805 152.62C871.805 151.16 871.505 150.09 870.905 149.41C870.305 148.71 869.515 148.36 868.535 148.36C867.895 148.36 867.325 148.51 866.825 148.81C866.345 149.11 865.965 149.58 865.685 150.22C865.425 150.84 865.295 151.64 865.295 152.62C865.295 154.08 865.595 155.17 866.195 155.89C866.795 156.59 867.575 156.94 868.535 156.94ZM885.075 160.33C883.295 160.33 881.965 159.84 881.085 158.86C880.205 157.86 879.765 156.38 879.765 154.42V140.89C879.765 140.13 879.955 139.56 880.335 139.18C880.735 138.78 881.305 138.58 882.045 138.58C882.765 138.58 883.315 138.78 883.695 139.18C884.095 139.56 884.295 140.13 884.295 140.89V154.24C884.295 155.06 884.465 155.67 884.805 156.07C885.165 156.45 885.635 156.64 886.215 156.64C886.375 156.64 886.525 156.63 886.665 156.61C886.805 156.59 886.955 156.58 887.115 156.58C887.435 156.54 887.655 156.64 887.775 156.88C887.915 157.1 887.985 157.55 887.985 158.23C887.985 158.83 887.865 159.29 887.625 159.61C887.385 159.91 887.015 160.11 886.515 160.21C886.315 160.23 886.085 160.25 885.825 160.27C885.565 160.31 885.315 160.33 885.075 160.33ZM896.689 160.33C895.109 160.33 893.729 160.02 892.549 159.4C891.389 158.78 890.489 157.89 889.849 156.73C889.209 155.57 888.889 154.2 888.889 152.62C888.889 151.44 889.069 150.38 889.429 149.44C889.789 148.5 890.309 147.7 890.989 147.04C891.689 146.36 892.519 145.85 893.479 145.51C894.439 145.15 895.509 144.97 896.689 144.97C898.269 144.97 899.639 145.28 900.799 145.9C901.979 146.52 902.889 147.4 903.529 148.54C904.189 149.68 904.519 151.04 904.519 152.62C904.519 153.82 904.329 154.89 903.949 155.83C903.589 156.77 903.069 157.58 902.389 158.26C901.709 158.94 900.879 159.46 899.899 159.82C898.939 160.16 897.869 160.33 896.689 160.33ZM896.689 156.94C897.349 156.94 897.919 156.78 898.399 156.46C898.879 156.14 899.259 155.67 899.539 155.05C899.819 154.41 899.959 153.6 899.959 152.62C899.959 151.16 899.659 150.09 899.059 149.41C898.459 148.71 897.669 148.36 896.689 148.36C896.049 148.36 895.479 148.51 894.979 148.81C894.499 149.11 894.119 149.58 893.839 150.22C893.579 150.84 893.449 151.64 893.449 152.62C893.449 154.08 893.749 155.17 894.349 155.89C894.949 156.59 895.729 156.94 896.689 156.94ZM912.585 160.33C910.805 160.33 909.475 159.84 908.595 158.86C907.715 157.86 907.275 156.38 907.275 154.42V140.89C907.275 140.13 907.465 139.56 907.845 139.18C908.245 138.78 908.815 138.58 909.555 138.58C910.275 138.58 910.825 138.78 911.205 139.18C911.605 139.56 911.805 140.13 911.805 140.89V154.24C911.805 155.06 911.975 155.67 912.315 156.07C912.675 156.45 913.145 156.64 913.725 156.64C913.885 156.64 914.035 156.63 914.175 156.61C914.315 156.59 914.465 156.58 914.625 156.58C914.945 156.54 915.165 156.64 915.285 156.88C915.425 157.1 915.495 157.55 915.495 158.23C915.495 158.83 915.375 159.29 915.135 159.61C914.895 159.91 914.525 160.11 914.025 160.21C913.825 160.23 913.595 160.25 913.335 160.27C913.075 160.31 912.825 160.33 912.585 160.33Z" fill="#A9A9BD"/>
<path fill-rule="evenodd" clip-rule="evenodd" d="M494.848 193.774C493.26 189.41 479.621 187.572 438.632 186.041C400.385 184.586 355.859 180.375 278.066 182.672C218.603 184.433 144.563 191.477 144.563 195.382C144.563 198.215 147.449 198.291 175.016 195.764C200.49 193.468 213.552 192.932 229.5 192.319C165.562 198.291 151.923 202.196 117.862 205.948C96.5011 208.321 108.986 215.135 116.779 214.446C116.851 214.446 216.222 205.871 225.603 206.33C226.469 206.407 217.015 207.785 204.531 209.393C169.676 213.987 176.387 221.642 202.51 218.12C290.406 206.253 373.107 202.578 436.828 207.708C456.962 209.316 459.199 209.316 459.199 207.325C459.199 203.803 453.714 201.124 445.127 200.588C431.704 199.669 380.034 197.065 356.653 196.3C354.849 196.223 355.715 194.769 357.303 194.616C366.828 193.621 442.457 194.386 472.188 195.457C494.054 196.223 495.642 196.147 494.848 193.774Z" fill="#ABACDB"/>
<path d="M144.2 141.9C141.733 141.9 139.833 141.233 138.5 139.9C137.233 138.567 136.6 136.667 136.6 134.2V103.2H133C131.133 103.2 129.667 102.7 128.6 101.7C127.6 100.7 127.1 99.3333 127.1 97.6C127.1 95.7333 127.6 94.3333 128.6 93.4C129.667 92.4 131.133 91.9 133 91.9H141L136.6 95.9V92.8C136.6 85.6667 138.367 80.3333 141.9 76.8C145.5 73.2667 150.767 71.1333 157.7 70.4L160.9 70.1C162.633 69.9667 164 70.2333 165 70.9C166.067 71.5667 166.767 72.4333 167.1 73.5C167.433 74.5667 167.5 75.6667 167.3 76.8C167.1 77.8667 166.633 78.8333 165.9 79.7C165.233 80.5 164.3 80.9333 163.1 81L161.7 81.1C158.1 81.3667 155.533 82.2333 154 83.7C152.467 85.1 151.7 87.2667 151.7 90.2V93.6L149.8 91.9H158.8C160.733 91.9 162.2 92.4 163.2 93.4C164.2 94.3333 164.7 95.7333 164.7 97.6C164.7 99.3333 164.2 100.7 163.2 101.7C162.2 102.7 160.733 103.2 158.8 103.2H151.7V134.2C151.7 139.333 149.2 141.9 144.2 141.9ZM195.312 142.1C189.512 142.1 184.512 141.067 180.312 139C176.178 136.867 172.978 133.9 170.712 130.1C168.512 126.233 167.412 121.7 167.412 116.5C167.412 111.433 168.478 107 170.612 103.2C172.745 99.3333 175.712 96.3333 179.512 94.2C183.378 92 187.745 90.9 192.612 90.9C196.145 90.9 199.345 91.5 202.212 92.7C205.078 93.8333 207.545 95.5 209.612 97.7C211.678 99.8333 213.245 102.467 214.312 105.6C215.378 108.667 215.912 112.1 215.912 115.9C215.912 117.167 215.512 118.133 214.712 118.8C213.912 119.4 212.745 119.7 211.212 119.7H179.812V111.9H205.012L203.412 113.3C203.412 110.567 203.012 108.3 202.212 106.5C201.412 104.633 200.245 103.233 198.712 102.3C197.245 101.367 195.412 100.9 193.212 100.9C190.745 100.9 188.645 101.467 186.912 102.6C185.178 103.733 183.845 105.367 182.912 107.5C181.978 109.633 181.512 112.2 181.512 115.2V116C181.512 121.067 182.678 124.8 185.012 127.2C187.412 129.6 190.945 130.8 195.612 130.8C197.212 130.8 199.045 130.6 201.112 130.2C203.178 129.8 205.112 129.167 206.912 128.3C208.445 127.567 209.812 127.333 211.012 127.6C212.212 127.8 213.145 128.333 213.812 129.2C214.478 130.067 214.845 131.067 214.912 132.2C215.045 133.333 214.812 134.467 214.212 135.6C213.612 136.667 212.612 137.567 211.212 138.3C208.945 139.567 206.378 140.5 203.512 141.1C200.712 141.767 197.978 142.1 195.312 142.1ZM250.195 142.1C244.395 142.1 239.395 141.067 235.195 139C231.061 136.867 227.861 133.9 225.595 130.1C223.395 126.233 222.295 121.7 222.295 116.5C222.295 111.433 223.361 107 225.495 103.2C227.628 99.3333 230.595 96.3333 234.395 94.2C238.261 92 242.628 90.9 247.495 90.9C251.028 90.9 254.228 91.5 257.095 92.7C259.961 93.8333 262.428 95.5 264.495 97.7C266.561 99.8333 268.128 102.467 269.195 105.6C270.261 108.667 270.795 112.1 270.795 115.9C270.795 117.167 270.395 118.133 269.595 118.8C268.795 119.4 267.628 119.7 266.095 119.7H234.695V111.9H259.895L258.295 113.3C258.295 110.567 257.895 108.3 257.095 106.5C256.295 104.633 255.128 103.233 253.595 102.3C252.128 101.367 250.295 100.9 248.095 100.9C245.628 100.9 243.528 101.467 241.795 102.6C240.061 103.733 238.728 105.367 237.795 107.5C236.861 109.633 236.395 112.2 236.395 115.2V116C236.395 121.067 237.561 124.8 239.895 127.2C242.295 129.6 245.828 130.8 250.495 130.8C252.095 130.8 253.928 130.6 255.995 130.2C258.061 129.8 259.995 129.167 261.795 128.3C263.328 127.567 264.695 127.333 265.895 127.6C267.095 127.8 268.028 128.333 268.695 129.2C269.361 130.067 269.728 131.067 269.795 132.2C269.928 133.333 269.695 134.467 269.095 135.6C268.495 136.667 267.495 137.567 266.095 138.3C263.828 139.567 261.261 140.5 258.395 141.1C255.595 141.767 252.861 142.1 250.195 142.1ZM298.677 142.1C294.411 142.1 290.644 141.067 287.377 139C284.177 136.933 281.677 133.967 279.877 130.1C278.077 126.233 277.177 121.667 277.177 116.4C277.177 111.133 278.077 106.6 279.877 102.8C281.677 99 284.177 96.0667 287.377 94C290.644 91.9333 294.411 90.9 298.677 90.9C302.544 90.9 305.944 91.8333 308.877 93.7C311.877 95.5667 313.911 98 314.977 101H313.877V77.3C313.877 74.7667 314.511 72.8667 315.777 71.6C317.044 70.2667 318.911 69.6 321.377 69.6C323.777 69.6 325.644 70.2667 326.977 71.6C328.311 72.8667 328.977 74.7667 328.977 77.3V134.2C328.977 136.667 328.311 138.567 326.977 139.9C325.711 141.233 323.877 141.9 321.477 141.9C319.077 141.9 317.211 141.233 315.877 139.9C314.611 138.567 313.977 136.667 313.977 134.2V127.4L315.077 131.3C314.144 134.567 312.144 137.2 309.077 139.2C306.077 141.133 302.611 142.1 298.677 142.1ZM303.177 130.8C305.377 130.8 307.277 130.267 308.877 129.2C310.477 128.133 311.744 126.567 312.677 124.5C313.611 122.367 314.077 119.667 314.077 116.4C314.077 111.533 313.077 107.967 311.077 105.7C309.077 103.367 306.444 102.2 303.177 102.2C301.044 102.2 299.144 102.7 297.477 103.7C295.877 104.7 294.611 106.267 293.677 108.4C292.811 110.467 292.377 113.133 292.377 116.4C292.377 121.267 293.377 124.9 295.377 127.3C297.377 129.633 299.977 130.8 303.177 130.8ZM336.213 159.8C334.412 159.867 332.979 159.567 331.912 158.9C330.846 158.233 330.112 157.367 329.712 156.3C329.312 155.3 329.212 154.267 329.412 153.2C329.546 152.133 329.979 151.2 330.712 150.4C331.446 149.6 332.446 149.133 333.712 149C336.313 148.8 338.179 148.067 339.313 146.8C340.513 145.6 341.113 143.733 341.113 141.2V98.7C341.113 96.2333 341.779 94.3667 343.113 93.1C344.446 91.7667 346.313 91.1 348.713 91.1C351.113 91.1 352.946 91.7667 354.213 93.1C355.546 94.3667 356.213 96.2333 356.213 98.7V139.8C356.213 144.2 355.479 147.833 354.013 150.7C352.613 153.567 350.446 155.733 347.513 157.2C344.579 158.733 340.813 159.6 336.213 159.8ZM348.613 82.9C345.879 82.9 343.746 82.2667 342.213 81C340.746 79.6667 340.013 77.8 340.013 75.4C340.013 72.9333 340.746 71.0667 342.213 69.8C343.746 68.4667 345.879 67.8 348.613 67.8C351.413 67.8 353.546 68.4667 355.013 69.8C356.479 71.0667 357.213 72.9333 357.213 75.4C357.213 77.8 356.479 79.6667 355.013 81C353.546 82.2667 351.413 82.9 348.613 82.9ZM391.556 142.1C386.29 142.1 381.69 141.067 377.756 139C373.89 136.933 370.89 133.967 368.756 130.1C366.623 126.233 365.556 121.667 365.556 116.4C365.556 112.467 366.156 108.933 367.356 105.8C368.556 102.667 370.29 100 372.556 97.8C374.89 95.5333 377.656 93.8333 380.856 92.7C384.056 91.5 387.623 90.9 391.556 90.9C396.823 90.9 401.39 91.9333 405.256 94C409.19 96.0667 412.223 99 414.356 102.8C416.556 106.6 417.656 111.133 417.656 116.4C417.656 120.4 417.023 123.967 415.756 127.1C414.556 130.233 412.823 132.933 410.556 135.2C408.29 137.467 405.523 139.2 402.256 140.4C399.056 141.533 395.49 142.1 391.556 142.1ZM391.556 130.8C393.756 130.8 395.656 130.267 397.256 129.2C398.856 128.133 400.123 126.567 401.056 124.5C401.99 122.367 402.456 119.667 402.456 116.4C402.456 111.533 401.456 107.967 399.456 105.7C397.456 103.367 394.823 102.2 391.556 102.2C389.423 102.2 387.523 102.7 385.856 103.7C384.256 104.7 382.99 106.267 382.056 108.4C381.19 110.467 380.756 113.133 380.756 116.4C380.756 121.267 381.756 124.9 383.756 127.3C385.756 129.633 388.356 130.8 391.556 130.8ZM439.071 159.9C437.338 159.9 435.904 159.433 434.771 158.5C433.638 157.567 432.971 156.333 432.771 154.8C432.571 153.333 432.838 151.767 433.571 150.1L440.271 135.3V141.5L422.571 100.9C421.904 99.1667 421.671 97.5667 421.871 96.1C422.138 94.5667 422.871 93.3667 424.071 92.5C425.338 91.5667 427.071 91.1 429.271 91.1C431.071 91.1 432.504 91.5333 433.571 92.4C434.704 93.2 435.738 94.7667 436.671 97.1L448.471 127.1H445.271L457.471 97C458.404 94.7333 459.438 93.2 460.571 92.4C461.771 91.5333 463.371 91.1 465.371 91.1C467.104 91.1 468.471 91.5667 469.471 92.5C470.538 93.3667 471.171 94.5333 471.371 96C471.638 97.4667 471.371 99.0667 470.571 100.8L447.071 154.1C446.071 156.367 444.938 157.9 443.671 158.7C442.471 159.5 440.938 159.9 439.071 159.9Z" fill="#9899EC"/>
<path d="M987 225.667C998.184 225.667 1007.25 222.701 1007.25 219.042C1007.25 215.383 998.184 212.417 987 212.417C975.816 212.417 966.75 215.383 966.75 219.042C966.75 222.701 975.816 225.667 987 225.667Z" stroke="#9899EC" stroke-width="2" stroke-linecap="round" stroke-linejoin="round"/>
<path d="M1007.25 234.5C1007.25 238.166 998.25 241.125 987 241.125C975.75 241.125 966.75 238.166 966.75 234.5" stroke="#9899EC" stroke-width="2" stroke-linecap="round" stroke-linejoin="round"/>
<path d="M966.75 219.042V249.958C966.75 253.624 975.75 256.583 987 256.583C998.25 256.583 1007.25 253.624 1007.25 249.958V219.042" stroke="#9899EC" stroke-width="2" stroke-linecap="round" stroke-linejoin="round"/>
<defs>
<linearGradient id="paint0_linear_24_20" x1="602" y1="159.997" x2="602" y2="294" gradientUnits="userSpaceOnUse">
<stop stop-color="#0A0B0A"/>
<stop offset="1" stop-color="#0A0B0A" stop-opacity="0"/>
</linearGradient>
</defs>
</svg>
