<svg width="1204" height="245" viewBox="0 0 1204 245" fill="none" xmlns="http://www.w3.org/2000/svg">
<rect width="1204" height="245" fill="#0A0B0A"/>
<path d="M647.73 103.27C647.17 103.27 646.71 103.14 646.35 102.88C646.01 102.62 645.79 102.27 645.69 101.83C645.61 101.39 645.7 100.9 645.96 100.36L653.64 83.53C653.96 82.85 654.34 82.36 654.78 82.06C655.22 81.74 655.73 81.58 656.31 81.58C656.89 81.58 657.4 81.74 657.84 82.06C658.28 82.36 658.65 82.85 658.95 83.53L666.69 100.36C666.95 100.9 667.04 101.4 666.96 101.86C666.9 102.3 666.7 102.65 666.36 102.91C666.02 103.15 665.58 103.27 665.04 103.27C664.36 103.27 663.83 103.11 663.45 102.79C663.09 102.47 662.77 101.97 662.49 101.29L660.69 97.12L662.55 98.41H650.04L651.9 97.12L650.13 101.29C649.83 101.99 649.51 102.5 649.17 102.82C648.85 103.12 648.37 103.27 647.73 103.27ZM656.25 86.8L652.41 95.95L651.6 94.78H660.99L660.18 95.95L656.31 86.8H656.25ZM680.047 103.27C679.307 103.27 678.737 103.07 678.337 102.67C677.957 102.27 677.767 101.7 677.767 100.96V90.31C677.767 89.57 677.957 89.01 678.337 88.63C678.737 88.23 679.287 88.03 679.987 88.03C680.707 88.03 681.257 88.23 681.637 88.63C682.017 89.01 682.207 89.57 682.207 90.31V92.23L681.877 91.03C682.277 90.11 682.897 89.37 683.737 88.81C684.577 88.25 685.567 87.97 686.707 87.97C687.847 87.97 688.797 88.24 689.557 88.78C690.317 89.32 690.857 90.15 691.177 91.27H690.757C691.197 90.25 691.867 89.45 692.767 88.87C693.687 88.27 694.737 87.97 695.917 87.97C697.057 87.97 697.987 88.2 698.707 88.66C699.447 89.1 699.997 89.78 700.357 90.7C700.717 91.6 700.897 92.75 700.897 94.15V100.96C700.897 101.7 700.697 102.27 700.297 102.67C699.917 103.07 699.367 103.27 698.647 103.27C697.907 103.27 697.337 103.07 696.937 102.67C696.557 102.27 696.367 101.7 696.367 100.96V94.3C696.367 93.32 696.207 92.61 695.887 92.17C695.587 91.71 695.067 91.48 694.327 91.48C693.467 91.48 692.797 91.78 692.317 92.38C691.837 92.98 691.597 93.83 691.597 94.93V100.96C691.597 101.7 691.397 102.27 690.997 102.67C690.617 103.07 690.067 103.27 689.347 103.27C688.627 103.27 688.067 103.07 687.667 102.67C687.267 102.27 687.067 101.7 687.067 100.96V94.3C687.067 93.32 686.907 92.61 686.587 92.17C686.287 91.71 685.767 91.48 685.027 91.48C684.167 91.48 683.497 91.78 683.017 92.38C682.537 92.98 682.297 93.83 682.297 94.93V100.96C682.297 102.5 681.547 103.27 680.047 103.27ZM706.647 103.24C705.907 103.24 705.337 103.03 704.937 102.61C704.557 102.17 704.367 101.56 704.367 100.78V90.52C704.367 89.72 704.557 89.11 704.937 88.69C705.337 88.25 705.907 88.03 706.647 88.03C707.367 88.03 707.917 88.25 708.297 88.69C708.697 89.11 708.897 89.72 708.897 90.52V100.78C708.897 101.56 708.707 102.17 708.327 102.61C707.947 103.03 707.387 103.24 706.647 103.24ZM706.647 85.57C705.807 85.57 705.157 85.38 704.697 85C704.257 84.6 704.037 84.04 704.037 83.32C704.037 82.58 704.257 82.02 704.697 81.64C705.157 81.24 705.807 81.04 706.647 81.04C707.487 81.04 708.127 81.24 708.567 81.64C709.007 82.02 709.227 82.58 709.227 83.32C709.227 84.04 709.007 84.6 708.567 85C708.127 85.38 707.487 85.57 706.647 85.57ZM719.564 103.33C717.964 103.33 716.564 103.02 715.364 102.4C714.184 101.76 713.274 100.86 712.634 99.7C711.994 98.54 711.674 97.17 711.674 95.59C711.674 94.41 711.854 93.35 712.214 92.41C712.574 91.47 713.094 90.67 713.774 90.01C714.474 89.35 715.314 88.85 716.294 88.51C717.274 88.15 718.364 87.97 719.564 87.97C720.184 87.97 720.844 88.05 721.544 88.21C722.244 88.35 722.934 88.6 723.614 88.96C724.014 89.14 724.284 89.4 724.424 89.74C724.584 90.06 724.644 90.4 724.604 90.76C724.564 91.1 724.434 91.41 724.214 91.69C724.014 91.95 723.754 92.13 723.434 92.23C723.114 92.31 722.754 92.25 722.354 92.05C721.974 91.83 721.574 91.67 721.154 91.57C720.754 91.47 720.374 91.42 720.014 91.42C719.414 91.42 718.884 91.52 718.424 91.72C717.964 91.9 717.574 92.17 717.254 92.53C716.954 92.87 716.714 93.3 716.534 93.82C716.374 94.34 716.294 94.94 716.294 95.62C716.294 96.94 716.614 97.98 717.254 98.74C717.914 99.48 718.834 99.85 720.014 99.85C720.374 99.85 720.754 99.81 721.154 99.73C721.554 99.63 721.954 99.47 722.354 99.25C722.754 99.05 723.114 99 723.434 99.1C723.754 99.2 724.004 99.39 724.184 99.67C724.384 99.93 724.494 100.24 724.514 100.6C724.554 100.94 724.494 101.28 724.334 101.62C724.194 101.94 723.934 102.19 723.554 102.37C722.874 102.71 722.194 102.95 721.514 103.09C720.834 103.25 720.184 103.33 719.564 103.33ZM729.06 103.27C728.3 103.27 727.72 103.07 727.32 102.67C726.92 102.27 726.72 101.7 726.72 100.96V90.31C726.72 89.57 726.91 89.01 727.29 88.63C727.69 88.23 728.24 88.03 728.94 88.03C729.66 88.03 730.21 88.23 730.59 88.63C730.97 89.01 731.16 89.57 731.16 90.31V91.87H730.86C731.1 90.67 731.63 89.74 732.45 89.08C733.27 88.42 734.33 88.05 735.63 87.97C736.13 87.93 736.51 88.06 736.77 88.36C737.05 88.64 737.2 89.11 737.22 89.77C737.26 90.39 737.13 90.88 736.83 91.24C736.55 91.6 736.07 91.82 735.39 91.9L734.7 91.96C733.56 92.06 732.71 92.39 732.15 92.95C731.61 93.51 731.34 94.32 731.34 95.38V100.96C731.34 101.7 731.14 102.27 730.74 102.67C730.36 103.07 729.8 103.27 729.06 103.27ZM745.9 103.33C744.32 103.33 742.94 103.02 741.76 102.4C740.6 101.78 739.7 100.89 739.06 99.73C738.42 98.57 738.1 97.2 738.1 95.62C738.1 94.44 738.28 93.38 738.64 92.44C739 91.5 739.52 90.7 740.2 90.04C740.9 89.36 741.73 88.85 742.69 88.51C743.65 88.15 744.72 87.97 745.9 87.97C747.48 87.97 748.85 88.28 750.01 88.9C751.19 89.52 752.1 90.4 752.74 91.54C753.4 92.68 753.73 94.04 753.73 95.62C753.73 96.82 753.54 97.89 753.16 98.83C752.8 99.77 752.28 100.58 751.6 101.26C750.92 101.94 750.09 102.46 749.11 102.82C748.15 103.16 747.08 103.33 745.9 103.33ZM745.9 99.94C746.56 99.94 747.13 99.78 747.61 99.46C748.09 99.14 748.47 98.67 748.75 98.05C749.03 97.41 749.17 96.6 749.17 95.62C749.17 94.16 748.87 93.09 748.27 92.41C747.67 91.71 746.88 91.36 745.9 91.36C745.26 91.36 744.69 91.51 744.19 91.81C743.71 92.11 743.33 92.58 743.05 93.22C742.79 93.84 742.66 94.64 742.66 95.62C742.66 97.08 742.96 98.17 743.56 98.89C744.16 99.59 744.94 99.94 745.9 99.94ZM767.595 103.27C766.835 103.27 766.255 103.06 765.855 102.64C765.455 102.22 765.255 101.63 765.255 100.87V84.22C765.255 83.44 765.455 82.85 765.855 82.45C766.275 82.05 766.865 81.85 767.625 81.85H774.915C777.275 81.85 779.095 82.42 780.375 83.56C781.655 84.7 782.295 86.29 782.295 88.33C782.295 89.65 782.005 90.79 781.425 91.75C780.845 92.71 780.005 93.45 778.905 93.97C777.825 94.49 776.495 94.75 774.915 94.75L775.155 94.24H776.385C777.225 94.24 777.955 94.45 778.575 94.87C779.215 95.27 779.765 95.89 780.225 96.73L782.085 100.18C782.365 100.68 782.495 101.17 782.475 101.65C782.455 102.13 782.275 102.52 781.935 102.82C781.595 103.12 781.095 103.27 780.435 103.27C779.775 103.27 779.235 103.13 778.815 102.85C778.415 102.57 778.055 102.14 777.735 101.56L774.855 96.25C774.555 95.69 774.185 95.31 773.745 95.11C773.325 94.91 772.805 94.81 772.185 94.81H769.905V100.87C769.905 101.63 769.705 102.22 769.305 102.64C768.925 103.06 768.355 103.27 767.595 103.27ZM769.905 91.45H774.075C775.315 91.45 776.245 91.2 776.865 90.7C777.505 90.2 777.825 89.45 777.825 88.45C777.825 87.47 777.505 86.73 776.865 86.23C776.245 85.73 775.315 85.48 774.075 85.48H769.905V91.45ZM793.616 103.33C792.776 103.33 791.916 103.26 791.036 103.12C790.176 103 789.346 102.82 788.546 102.58C787.766 102.34 787.066 102.04 786.446 101.68C786.006 101.44 785.696 101.13 785.516 100.75C785.336 100.35 785.266 99.95 785.306 99.55C785.366 99.15 785.516 98.8 785.756 98.5C786.016 98.18 786.336 97.98 786.716 97.9C787.116 97.8 787.556 97.87 788.036 98.11C788.856 98.57 789.746 98.91 790.706 99.13C791.686 99.35 792.656 99.46 793.616 99.46C795.076 99.46 796.116 99.24 796.736 98.8C797.356 98.34 797.666 97.77 797.666 97.09C797.666 96.51 797.446 96.05 797.006 95.71C796.566 95.37 795.796 95.08 794.696 94.84L791.306 94.12C789.386 93.72 787.956 93.04 787.016 92.08C786.096 91.1 785.636 89.82 785.636 88.24C785.636 87.24 785.846 86.33 786.266 85.51C786.686 84.69 787.276 83.98 788.036 83.38C788.796 82.78 789.696 82.32 790.736 82C791.796 81.68 792.956 81.52 794.216 81.52C795.336 81.52 796.436 81.66 797.516 81.94C798.596 82.2 799.546 82.59 800.366 83.11C800.766 83.35 801.036 83.66 801.176 84.04C801.336 84.4 801.386 84.77 801.326 85.15C801.286 85.51 801.136 85.83 800.876 86.11C800.636 86.39 800.326 86.57 799.946 86.65C799.566 86.73 799.106 86.64 798.566 86.38C797.906 86.04 797.206 85.79 796.466 85.63C795.726 85.47 794.966 85.39 794.186 85.39C793.346 85.39 792.626 85.5 792.026 85.72C791.446 85.94 790.996 86.25 790.676 86.65C790.376 87.05 790.226 87.51 790.226 88.03C790.226 88.61 790.436 89.08 790.856 89.44C791.276 89.8 792.006 90.09 793.046 90.31L796.436 91.03C798.396 91.45 799.856 92.13 800.816 93.07C801.776 93.99 802.256 95.21 802.256 96.73C802.256 97.73 802.056 98.64 801.656 99.46C801.256 100.26 800.676 100.95 799.916 101.53C799.156 102.11 798.246 102.56 797.186 102.88C796.126 103.18 794.936 103.33 793.616 103.33ZM812.835 103.33C811.995 103.33 811.135 103.26 810.255 103.12C809.395 103 808.565 102.82 807.765 102.58C806.985 102.34 806.285 102.04 805.665 101.68C805.225 101.44 804.915 101.13 804.735 100.75C804.555 100.35 804.485 99.95 804.525 99.55C804.585 99.15 804.735 98.8 804.975 98.5C805.235 98.18 805.555 97.98 805.935 97.9C806.335 97.8 806.775 97.87 807.255 98.11C808.075 98.57 808.965 98.91 809.925 99.13C810.905 99.35 811.875 99.46 812.835 99.46C814.295 99.46 815.335 99.24 815.955 98.8C816.575 98.34 816.885 97.77 816.885 97.09C816.885 96.51 816.665 96.05 816.225 95.71C815.785 95.37 815.015 95.08 813.915 94.84L810.525 94.12C808.605 93.72 807.175 93.04 806.235 92.08C805.315 91.1 804.855 89.82 804.855 88.24C804.855 87.24 805.065 86.33 805.485 85.51C805.905 84.69 806.495 83.98 807.255 83.38C808.015 82.78 808.915 82.32 809.955 82C811.015 81.68 812.175 81.52 813.435 81.52C814.555 81.52 815.655 81.66 816.735 81.94C817.815 82.2 818.765 82.59 819.585 83.11C819.985 83.35 820.255 83.66 820.395 84.04C820.555 84.4 820.605 84.77 820.545 85.15C820.505 85.51 820.355 85.83 820.095 86.11C819.855 86.39 819.545 86.57 819.165 86.65C818.785 86.73 818.325 86.64 817.785 86.38C817.125 86.04 816.425 85.79 815.685 85.63C814.945 85.47 814.185 85.39 813.405 85.39C812.565 85.39 811.845 85.5 811.245 85.72C810.665 85.94 810.215 86.25 809.895 86.65C809.595 87.05 809.445 87.51 809.445 88.03C809.445 88.61 809.655 89.08 810.075 89.44C810.495 89.8 811.225 90.09 812.265 90.31L815.655 91.03C817.615 91.45 819.075 92.13 820.035 93.07C820.995 93.99 821.475 95.21 821.475 96.73C821.475 97.73 821.275 98.64 820.875 99.46C820.475 100.26 819.895 100.95 819.135 101.53C818.375 102.11 817.465 102.56 816.405 102.88C815.345 103.18 814.155 103.33 812.835 103.33ZM835.902 103.27C835.162 103.27 834.592 103.07 834.192 102.67C833.812 102.27 833.622 101.7 833.622 100.96V91.66H832.542C831.982 91.66 831.542 91.51 831.222 91.21C830.922 90.91 830.772 90.5 830.772 89.98C830.772 89.42 830.922 89 831.222 88.72C831.542 88.42 831.982 88.27 832.542 88.27H834.942L833.622 89.47V88.54C833.622 86.4 834.152 84.8 835.212 83.74C836.292 82.68 837.872 82.04 839.952 81.82L840.912 81.73C841.432 81.69 841.842 81.77 842.142 81.97C842.462 82.17 842.672 82.43 842.772 82.75C842.872 83.07 842.892 83.4 842.832 83.74C842.772 84.06 842.632 84.35 842.412 84.61C842.212 84.85 841.932 84.98 841.572 85L841.152 85.03C840.072 85.11 839.302 85.37 838.842 85.81C838.382 86.23 838.152 86.88 838.152 87.76V88.78L837.582 88.27H840.282C840.862 88.27 841.302 88.42 841.602 88.72C841.902 89 842.052 89.42 842.052 89.98C842.052 90.5 841.902 90.91 841.602 91.21C841.302 91.51 840.862 91.66 840.282 91.66H838.152V100.96C838.152 102.5 837.402 103.27 835.902 103.27ZM851.236 103.33C849.496 103.33 847.996 103.02 846.736 102.4C845.496 101.76 844.536 100.87 843.856 99.73C843.196 98.57 842.866 97.21 842.866 95.65C842.866 94.13 843.186 92.8 843.826 91.66C844.466 90.5 845.356 89.6 846.496 88.96C847.656 88.3 848.966 87.97 850.426 87.97C851.486 87.97 852.446 88.15 853.306 88.51C854.166 88.85 854.906 89.35 855.526 90.01C856.146 90.65 856.616 91.44 856.936 92.38C857.256 93.3 857.416 94.33 857.416 95.47C857.416 95.85 857.296 96.14 857.056 96.34C856.816 96.52 856.466 96.61 856.006 96.61H846.586V94.27H854.146L853.666 94.69C853.666 93.87 853.546 93.19 853.306 92.65C853.066 92.09 852.716 91.67 852.256 91.39C851.816 91.11 851.266 90.97 850.606 90.97C849.866 90.97 849.236 91.14 848.716 91.48C848.196 91.82 847.796 92.31 847.516 92.95C847.236 93.59 847.096 94.36 847.096 95.26V95.5C847.096 97.02 847.446 98.14 848.146 98.86C848.866 99.58 849.926 99.94 851.326 99.94C851.806 99.94 852.356 99.88 852.976 99.76C853.596 99.64 854.176 99.45 854.716 99.19C855.176 98.97 855.586 98.9 855.946 98.98C856.306 99.04 856.586 99.2 856.786 99.46C856.986 99.72 857.096 100.02 857.116 100.36C857.156 100.7 857.086 101.04 856.906 101.38C856.726 101.7 856.426 101.97 856.006 102.19C855.326 102.57 854.556 102.85 853.696 103.03C852.856 103.23 852.036 103.33 851.236 103.33ZM867.701 103.33C865.961 103.33 864.461 103.02 863.201 102.4C861.961 101.76 861.001 100.87 860.321 99.73C859.661 98.57 859.331 97.21 859.331 95.65C859.331 94.13 859.651 92.8 860.291 91.66C860.931 90.5 861.821 89.6 862.961 88.96C864.121 88.3 865.431 87.97 866.891 87.97C867.951 87.97 868.911 88.15 869.771 88.51C870.631 88.85 871.371 89.35 871.991 90.01C872.611 90.65 873.081 91.44 873.401 92.38C873.721 93.3 873.881 94.33 873.881 95.47C873.881 95.85 873.761 96.14 873.521 96.34C873.281 96.52 872.931 96.61 872.471 96.61H863.051V94.27H870.611L870.131 94.69C870.131 93.87 870.011 93.19 869.771 92.65C869.531 92.09 869.181 91.67 868.721 91.39C868.281 91.11 867.731 90.97 867.071 90.97C866.331 90.97 865.701 91.14 865.181 91.48C864.661 91.82 864.261 92.31 863.981 92.95C863.701 93.59 863.561 94.36 863.561 95.26V95.5C863.561 97.02 863.911 98.14 864.611 98.86C865.331 99.58 866.391 99.94 867.791 99.94C868.271 99.94 868.821 99.88 869.441 99.76C870.061 99.64 870.641 99.45 871.181 99.19C871.641 98.97 872.051 98.9 872.411 98.98C872.771 99.04 873.051 99.2 873.251 99.46C873.451 99.72 873.561 100.02 873.581 100.36C873.621 100.7 873.551 101.04 873.371 101.38C873.191 101.7 872.891 101.97 872.471 102.19C871.791 102.57 871.021 102.85 870.161 103.03C869.321 103.23 868.501 103.33 867.701 103.33ZM882.245 103.33C880.965 103.33 879.835 103.02 878.855 102.4C877.895 101.78 877.145 100.89 876.605 99.73C876.065 98.57 875.795 97.2 875.795 95.62C875.795 94.04 876.065 92.68 876.605 91.54C877.145 90.4 877.895 89.52 878.855 88.9C879.835 88.28 880.965 87.97 882.245 87.97C883.405 87.97 884.425 88.25 885.305 88.81C886.205 89.37 886.815 90.1 887.135 91H886.805V83.89C886.805 83.13 886.995 82.56 887.375 82.18C887.755 81.78 888.315 81.58 889.055 81.58C889.775 81.58 890.335 81.78 890.735 82.18C891.135 82.56 891.335 83.13 891.335 83.89V100.96C891.335 101.7 891.135 102.27 890.735 102.67C890.355 103.07 889.805 103.27 889.085 103.27C888.365 103.27 887.805 103.07 887.405 102.67C887.025 102.27 886.835 101.7 886.835 100.96V98.92L887.165 100.09C886.885 101.07 886.285 101.86 885.365 102.46C884.465 103.04 883.425 103.33 882.245 103.33ZM883.595 99.94C884.255 99.94 884.825 99.78 885.305 99.46C885.785 99.14 886.165 98.67 886.445 98.05C886.725 97.41 886.865 96.6 886.865 95.62C886.865 94.16 886.565 93.09 885.965 92.41C885.365 91.71 884.575 91.36 883.595 91.36C882.955 91.36 882.385 91.51 881.885 91.81C881.405 92.11 881.025 92.58 880.745 93.22C880.485 93.84 880.355 94.64 880.355 95.62C880.355 97.08 880.655 98.17 881.255 98.89C881.855 99.59 882.635 99.94 883.595 99.94ZM910.375 103.33C908.775 103.33 907.375 103.02 906.175 102.4C904.995 101.76 904.085 100.86 903.445 99.7C902.805 98.54 902.485 97.17 902.485 95.59C902.485 94.41 902.665 93.35 903.025 92.41C903.385 91.47 903.905 90.67 904.585 90.01C905.285 89.35 906.125 88.85 907.105 88.51C908.085 88.15 909.175 87.97 910.375 87.97C910.995 87.97 911.655 88.05 912.355 88.21C913.055 88.35 913.745 88.6 914.425 88.96C914.825 89.14 915.095 89.4 915.235 89.74C915.395 90.06 915.455 90.4 915.415 90.76C915.375 91.1 915.245 91.41 915.025 91.69C914.825 91.95 914.565 92.13 914.245 92.23C913.925 92.31 913.565 92.25 913.165 92.05C912.785 91.83 912.385 91.67 911.965 91.57C911.565 91.47 911.185 91.42 910.825 91.42C910.225 91.42 909.695 91.52 909.235 91.72C908.775 91.9 908.385 92.17 908.065 92.53C907.765 92.87 907.525 93.3 907.345 93.82C907.185 94.34 907.105 94.94 907.105 95.62C907.105 96.94 907.425 97.98 908.065 98.74C908.725 99.48 909.645 99.85 910.825 99.85C911.185 99.85 911.565 99.81 911.965 99.73C912.365 99.63 912.765 99.47 913.165 99.25C913.565 99.05 913.925 99 914.245 99.1C914.565 99.2 914.815 99.39 914.995 99.67C915.195 99.93 915.305 100.24 915.325 100.6C915.365 100.94 915.305 101.28 915.145 101.62C915.005 101.94 914.745 102.19 914.365 102.37C913.685 102.71 913.005 102.95 912.325 103.09C911.645 103.25 910.995 103.33 910.375 103.33ZM924.318 103.33C922.738 103.33 921.358 103.02 920.178 102.4C919.018 101.78 918.118 100.89 917.478 99.73C916.838 98.57 916.518 97.2 916.518 95.62C916.518 94.44 916.698 93.38 917.058 92.44C917.418 91.5 917.938 90.7 918.618 90.04C919.318 89.36 920.148 88.85 921.108 88.51C922.068 88.15 923.138 87.97 924.318 87.97C925.898 87.97 927.268 88.28 928.428 88.9C929.608 89.52 930.518 90.4 931.158 91.54C931.818 92.68 932.148 94.04 932.148 95.62C932.148 96.82 931.958 97.89 931.578 98.83C931.218 99.77 930.698 100.58 930.018 101.26C929.338 101.94 928.508 102.46 927.528 102.82C926.568 103.16 925.498 103.33 924.318 103.33ZM924.318 99.94C924.978 99.94 925.548 99.78 926.028 99.46C926.508 99.14 926.888 98.67 927.168 98.05C927.448 97.41 927.588 96.6 927.588 95.62C927.588 94.16 927.288 93.09 926.688 92.41C926.088 91.71 925.298 91.36 924.318 91.36C923.678 91.36 923.108 91.51 922.608 91.81C922.128 92.11 921.748 92.58 921.468 93.22C921.208 93.84 921.078 94.64 921.078 95.62C921.078 97.08 921.378 98.17 921.978 98.89C922.578 99.59 923.358 99.94 924.318 99.94ZM937.184 103.27C936.444 103.27 935.874 103.07 935.474 102.67C935.094 102.27 934.904 101.7 934.904 100.96V90.31C934.904 89.57 935.094 89.01 935.474 88.63C935.874 88.23 936.424 88.03 937.124 88.03C937.844 88.03 938.394 88.23 938.774 88.63C939.154 89.01 939.344 89.57 939.344 90.31V92.02L939.014 91.03C939.474 90.05 940.154 89.3 941.054 88.78C941.974 88.24 943.014 87.97 944.174 87.97C945.354 87.97 946.324 88.2 947.084 88.66C947.844 89.1 948.414 89.78 948.794 90.7C949.174 91.6 949.364 92.75 949.364 94.15V100.96C949.364 101.7 949.164 102.27 948.764 102.67C948.384 103.07 947.824 103.27 947.084 103.27C946.364 103.27 945.804 103.07 945.404 102.67C945.024 102.27 944.834 101.7 944.834 100.96V94.36C944.834 93.34 944.644 92.61 944.264 92.17C943.904 91.71 943.344 91.48 942.584 91.48C941.624 91.48 940.854 91.78 940.274 92.38C939.714 92.98 939.434 93.78 939.434 94.78V100.96C939.434 102.5 938.684 103.27 937.184 103.27ZM959.826 108.73C958.746 108.73 957.706 108.64 956.706 108.46C955.726 108.28 954.856 108.01 954.096 107.65C953.636 107.45 953.306 107.19 953.106 106.87C952.926 106.55 952.846 106.21 952.866 105.85C952.906 105.49 953.026 105.17 953.226 104.89C953.446 104.61 953.716 104.41 954.036 104.29C954.356 104.19 954.696 104.22 955.056 104.38C955.936 104.78 956.746 105.04 957.486 105.16C958.246 105.28 958.896 105.34 959.436 105.34C960.716 105.34 961.676 105.05 962.316 104.47C962.956 103.89 963.276 103 963.276 101.8V99.52H963.546C963.246 100.44 962.626 101.19 961.686 101.77C960.746 102.35 959.706 102.64 958.566 102.64C957.246 102.64 956.096 102.34 955.116 101.74C954.136 101.12 953.376 100.26 952.836 99.16C952.296 98.04 952.026 96.75 952.026 95.29C952.026 94.19 952.176 93.19 952.476 92.29C952.796 91.39 953.236 90.62 953.796 89.98C954.376 89.34 955.066 88.85 955.866 88.51C956.686 88.15 957.586 87.97 958.566 87.97C959.746 87.97 960.786 88.26 961.686 88.84C962.606 89.4 963.216 90.14 963.516 91.06L963.216 92.02V90.31C963.216 89.57 963.406 89.01 963.786 88.63C964.186 88.23 964.746 88.03 965.466 88.03C966.186 88.03 966.736 88.23 967.116 88.63C967.496 89.01 967.686 89.57 967.686 90.31V101.29C967.686 103.75 967.006 105.6 965.646 106.84C964.306 108.1 962.366 108.73 959.826 108.73ZM959.916 99.25C960.596 99.25 961.176 99.09 961.656 98.77C962.156 98.45 962.546 98 962.826 97.42C963.106 96.82 963.246 96.11 963.246 95.29C963.246 94.05 962.936 93.09 962.316 92.41C961.716 91.71 960.916 91.36 959.916 91.36C959.236 91.36 958.646 91.52 958.146 91.84C957.646 92.14 957.256 92.59 956.976 93.19C956.716 93.77 956.586 94.47 956.586 95.29C956.586 96.53 956.886 97.5 957.486 98.2C958.086 98.9 958.896 99.25 959.916 99.25ZM973.543 103.27C972.783 103.27 972.203 103.07 971.803 102.67C971.403 102.27 971.203 101.7 971.203 100.96V90.31C971.203 89.57 971.393 89.01 971.773 88.63C972.173 88.23 972.723 88.03 973.423 88.03C974.143 88.03 974.693 88.23 975.073 88.63C975.453 89.01 975.643 89.57 975.643 90.31V91.87H975.343C975.583 90.67 976.113 89.74 976.933 89.08C977.753 88.42 978.813 88.05 980.113 87.97C980.613 87.93 980.993 88.06 981.253 88.36C981.533 88.64 981.683 89.11 981.703 89.77C981.743 90.39 981.613 90.88 981.313 91.24C981.033 91.6 980.553 91.82 979.873 91.9L979.183 91.96C978.043 92.06 977.193 92.39 976.633 92.95C976.093 93.51 975.823 94.32 975.823 95.38V100.96C975.823 101.7 975.623 102.27 975.223 102.67C974.843 103.07 974.283 103.27 973.543 103.27ZM990.953 103.33C989.213 103.33 987.713 103.02 986.453 102.4C985.213 101.76 984.253 100.87 983.573 99.73C982.913 98.57 982.583 97.21 982.583 95.65C982.583 94.13 982.903 92.8 983.542 91.66C984.183 90.5 985.073 89.6 986.213 88.96C987.373 88.3 988.683 87.97 990.143 87.97C991.203 87.97 992.163 88.15 993.023 88.51C993.883 88.85 994.623 89.35 995.243 90.01C995.863 90.65 996.333 91.44 996.653 92.38C996.973 93.3 997.133 94.33 997.133 95.47C997.133 95.85 997.013 96.14 996.773 96.34C996.533 96.52 996.183 96.61 995.723 96.61H986.303V94.27H993.863L993.383 94.69C993.383 93.87 993.263 93.19 993.023 92.65C992.783 92.09 992.433 91.67 991.973 91.39C991.533 91.11 990.983 90.97 990.323 90.97C989.583 90.97 988.953 91.14 988.433 91.48C987.913 91.82 987.513 92.31 987.233 92.95C986.953 93.59 986.813 94.36 986.813 95.26V95.5C986.813 97.02 987.163 98.14 987.863 98.86C988.583 99.58 989.643 99.94 991.043 99.94C991.523 99.94 992.073 99.88 992.693 99.76C993.313 99.64 993.893 99.45 994.433 99.19C994.893 98.97 995.303 98.9 995.663 98.98C996.023 99.04 996.303 99.2 996.503 99.46C996.703 99.72 996.813 100.02 996.833 100.36C996.873 100.7 996.803 101.04 996.623 101.38C996.443 101.7 996.143 101.97 995.723 102.19C995.043 102.57 994.273 102.85 993.413 103.03C992.573 103.23 991.753 103.33 990.953 103.33ZM1006.85 108.73C1005.77 108.73 1004.73 108.64 1003.73 108.46C1002.75 108.28 1001.88 108.01 1001.12 107.65C1000.66 107.45 1000.33 107.19 1000.13 106.87C999.947 106.55 999.867 106.21 999.887 105.85C999.927 105.49 1000.05 105.17 1000.25 104.89C1000.47 104.61 1000.74 104.41 1001.06 104.29C1001.38 104.19 1001.72 104.22 1002.08 104.38C1002.96 104.78 1003.77 105.04 1004.51 105.16C1005.27 105.28 1005.92 105.34 1006.46 105.34C1007.74 105.34 1008.7 105.05 1009.34 104.47C1009.98 103.89 1010.3 103 1010.3 101.8V99.52H1010.57C1010.27 100.44 1009.65 101.19 1008.71 101.77C1007.77 102.35 1006.73 102.64 1005.59 102.64C1004.27 102.64 1003.12 102.34 1002.14 101.74C1001.16 101.12 1000.4 100.26 999.857 99.16C999.317 98.04 999.047 96.75 999.047 95.29C999.047 94.19 999.197 93.19 999.497 92.29C999.817 91.39 1000.26 90.62 1000.82 89.98C1001.4 89.34 1002.09 88.85 1002.89 88.51C1003.71 88.15 1004.61 87.97 1005.59 87.97C1006.77 87.97 1007.81 88.26 1008.71 88.84C1009.63 89.4 1010.24 90.14 1010.54 91.06L1010.24 92.02V90.31C1010.24 89.57 1010.43 89.01 1010.81 88.63C1011.21 88.23 1011.77 88.03 1012.49 88.03C1013.21 88.03 1013.76 88.23 1014.14 88.63C1014.52 89.01 1014.71 89.57 1014.71 90.31V101.29C1014.71 103.75 1014.03 105.6 1012.67 106.84C1011.33 108.1 1009.39 108.73 1006.85 108.73ZM1006.94 99.25C1007.62 99.25 1008.2 99.09 1008.68 98.77C1009.18 98.45 1009.57 98 1009.85 97.42C1010.13 96.82 1010.27 96.11 1010.27 95.29C1010.27 94.05 1009.96 93.09 1009.34 92.41C1008.74 91.71 1007.94 91.36 1006.94 91.36C1006.26 91.36 1005.67 91.52 1005.17 91.84C1004.67 92.14 1004.28 92.59 1004 93.19C1003.74 93.77 1003.61 94.47 1003.61 95.29C1003.61 96.53 1003.91 97.5 1004.51 98.2C1005.11 98.9 1005.92 99.25 1006.94 99.25ZM1023.2 103.33C1022.12 103.33 1021.15 103.12 1020.29 102.7C1019.43 102.28 1018.76 101.71 1018.28 100.99C1017.8 100.27 1017.56 99.46 1017.56 98.56C1017.56 97.48 1017.84 96.63 1018.4 96.01C1018.96 95.37 1019.87 94.92 1021.13 94.66C1022.39 94.38 1024.06 94.24 1026.14 94.24H1027.73V96.58H1026.17C1025.15 96.58 1024.32 96.64 1023.68 96.76C1023.06 96.86 1022.61 97.04 1022.33 97.3C1022.07 97.56 1021.94 97.92 1021.94 98.38C1021.94 98.94 1022.13 99.4 1022.51 99.76C1022.91 100.12 1023.48 100.3 1024.22 100.3C1024.8 100.3 1025.31 100.17 1025.75 99.91C1026.21 99.63 1026.57 99.26 1026.83 98.8C1027.09 98.32 1027.22 97.78 1027.22 97.18V93.73C1027.22 92.85 1027.02 92.23 1026.62 91.87C1026.22 91.49 1025.54 91.3 1024.58 91.3C1024.04 91.3 1023.45 91.37 1022.81 91.51C1022.19 91.63 1021.5 91.84 1020.74 92.14C1020.3 92.34 1019.91 92.39 1019.57 92.29C1019.23 92.17 1018.97 91.97 1018.79 91.69C1018.61 91.39 1018.52 91.07 1018.52 90.73C1018.52 90.37 1018.62 90.03 1018.82 89.71C1019.02 89.37 1019.35 89.12 1019.81 88.96C1020.75 88.58 1021.63 88.32 1022.45 88.18C1023.29 88.04 1024.06 87.97 1024.76 87.97C1026.3 87.97 1027.56 88.2 1028.54 88.66C1029.54 89.1 1030.29 89.79 1030.79 90.73C1031.29 91.65 1031.54 92.84 1031.54 94.3V100.96C1031.54 101.7 1031.36 102.27 1031 102.67C1030.64 103.07 1030.12 103.27 1029.44 103.27C1028.76 103.27 1028.23 103.07 1027.85 102.67C1027.49 102.27 1027.31 101.7 1027.31 100.96V99.85L1027.52 100.03C1027.4 100.71 1027.14 101.3 1026.74 101.8C1026.36 102.28 1025.87 102.66 1025.27 102.94C1024.67 103.2 1023.98 103.33 1023.2 103.33ZM1042.15 103.33C1040.77 103.33 1039.61 103.1 1038.67 102.64C1037.75 102.18 1037.06 101.51 1036.6 100.63C1036.16 99.75 1035.94 98.64 1035.94 97.3V91.66H1034.68C1034.12 91.66 1033.68 91.51 1033.36 91.21C1033.06 90.91 1032.91 90.5 1032.91 89.98C1032.91 89.42 1033.06 89 1033.36 88.72C1033.68 88.42 1034.12 88.27 1034.68 88.27H1035.94V85.99C1035.94 85.23 1036.14 84.66 1036.54 84.28C1036.94 83.88 1037.5 83.68 1038.22 83.68C1038.96 83.68 1039.52 83.88 1039.9 84.28C1040.28 84.66 1040.47 85.23 1040.47 85.99V88.27H1043.32C1043.88 88.27 1044.31 88.42 1044.61 88.72C1044.91 89 1045.06 89.42 1045.06 89.98C1045.06 90.5 1044.91 90.91 1044.61 91.21C1044.31 91.51 1043.88 91.66 1043.32 91.66H1040.47V97.12C1040.47 97.96 1040.66 98.59 1041.04 99.01C1041.44 99.43 1042.07 99.64 1042.93 99.64C1043.23 99.64 1043.51 99.61 1043.77 99.55C1044.03 99.49 1044.27 99.45 1044.49 99.43C1044.77 99.41 1045 99.5 1045.18 99.7C1045.36 99.88 1045.45 100.29 1045.45 100.93C1045.45 101.41 1045.37 101.83 1045.21 102.19C1045.05 102.55 1044.77 102.81 1044.37 102.97C1044.11 103.07 1043.75 103.15 1043.29 103.21C1042.85 103.29 1042.47 103.33 1042.15 103.33ZM1053.99 103.33C1052.41 103.33 1051.03 103.02 1049.85 102.4C1048.69 101.78 1047.79 100.89 1047.15 99.73C1046.51 98.57 1046.19 97.2 1046.19 95.62C1046.19 94.44 1046.37 93.38 1046.73 92.44C1047.09 91.5 1047.61 90.7 1048.29 90.04C1048.99 89.36 1049.82 88.85 1050.78 88.51C1051.74 88.15 1052.81 87.97 1053.99 87.97C1055.57 87.97 1056.94 88.28 1058.1 88.9C1059.28 89.52 1060.19 90.4 1060.83 91.54C1061.49 92.68 1061.82 94.04 1061.82 95.62C1061.82 96.82 1061.63 97.89 1061.25 98.83C1060.89 99.77 1060.37 100.58 1059.69 101.26C1059.01 101.94 1058.18 102.46 1057.2 102.82C1056.24 103.16 1055.17 103.33 1053.99 103.33ZM1053.99 99.94C1054.65 99.94 1055.22 99.78 1055.7 99.46C1056.18 99.14 1056.56 98.67 1056.84 98.05C1057.12 97.41 1057.26 96.6 1057.26 95.62C1057.26 94.16 1056.96 93.09 1056.36 92.41C1055.76 91.71 1054.97 91.36 1053.99 91.36C1053.35 91.36 1052.78 91.51 1052.28 91.81C1051.8 92.11 1051.42 92.58 1051.14 93.22C1050.88 93.84 1050.75 94.64 1050.75 95.62C1050.75 97.08 1051.05 98.17 1051.65 98.89C1052.25 99.59 1053.03 99.94 1053.99 99.94ZM1066.91 103.27C1066.15 103.27 1065.57 103.07 1065.17 102.67C1064.77 102.27 1064.57 101.7 1064.57 100.96V90.31C1064.57 89.57 1064.76 89.01 1065.14 88.63C1065.54 88.23 1066.09 88.03 1066.79 88.03C1067.51 88.03 1068.06 88.23 1068.44 88.63C1068.82 89.01 1069.01 89.57 1069.01 90.31V91.87H1068.71C1068.95 90.67 1069.48 89.74 1070.3 89.08C1071.12 88.42 1072.18 88.05 1073.48 87.97C1073.98 87.93 1074.36 88.06 1074.62 88.36C1074.9 88.64 1075.05 89.11 1075.07 89.77C1075.11 90.39 1074.98 90.88 1074.68 91.24C1074.4 91.6 1073.92 91.82 1073.24 91.9L1072.55 91.96C1071.41 92.06 1070.56 92.39 1070 92.95C1069.46 93.51 1069.19 94.32 1069.19 95.38V100.96C1069.19 101.7 1068.99 102.27 1068.59 102.67C1068.21 103.07 1067.65 103.27 1066.91 103.27ZM1078.42 103.15C1077.62 103.15 1076.98 102.91 1076.5 102.43C1076.04 101.95 1075.81 101.33 1075.81 100.57C1075.81 99.83 1076.04 99.23 1076.5 98.77C1076.98 98.29 1077.62 98.05 1078.42 98.05C1079.22 98.05 1079.84 98.29 1080.28 98.77C1080.74 99.23 1080.97 99.83 1080.97 100.57C1080.97 101.33 1080.74 101.95 1080.28 102.43C1079.84 102.91 1079.22 103.15 1078.42 103.15Z" fill="white"/>
<path d="M649.56 160C648.78 160 648.18 159.79 647.76 159.37C647.34 158.95 647.13 158.35 647.13 157.57V141.28C647.13 140.5 647.34 139.9 647.76 139.48C648.18 139.06 648.78 138.85 649.56 138.85H656.82C658.32 138.85 659.6 139.07 660.66 139.51C661.72 139.95 662.52 140.58 663.06 141.4C663.62 142.22 663.9 143.2 663.9 144.34C663.9 145.6 663.54 146.67 662.82 147.55C662.1 148.43 661.11 149.02 659.85 149.32V148.84C661.31 149.1 662.44 149.68 663.24 150.58C664.06 151.46 664.47 152.61 664.47 154.03C664.47 155.91 663.82 157.38 662.52 158.44C661.22 159.48 659.43 160 657.15 160H649.56ZM651.57 156.55H656.52C657.72 156.55 658.6 156.32 659.16 155.86C659.72 155.38 660 154.68 660 153.76C660 152.84 659.72 152.15 659.16 151.69C658.6 151.23 657.72 151 656.52 151H651.57V156.55ZM651.57 147.55H656.01C657.17 147.55 658.03 147.33 658.59 146.89C659.15 146.45 659.43 145.79 659.43 144.91C659.43 144.05 659.15 143.4 658.59 142.96C658.03 142.52 657.17 142.3 656.01 142.3H651.57V147.55ZM673.029 160.33C671.789 160.33 670.759 160.1 669.939 159.64C669.119 159.18 668.509 158.49 668.109 157.57C667.729 156.63 667.539 155.47 667.539 154.09V147.31C667.539 146.55 667.729 145.98 668.109 145.6C668.509 145.22 669.069 145.03 669.789 145.03C670.509 145.03 671.069 145.22 671.469 145.6C671.869 145.98 672.069 146.55 672.069 147.31V154.21C672.069 155.09 672.249 155.75 672.609 156.19C672.969 156.61 673.539 156.82 674.319 156.82C675.179 156.82 675.879 156.52 676.419 155.92C676.979 155.3 677.259 154.49 677.259 153.49V147.31C677.259 146.55 677.449 145.98 677.829 145.6C678.229 145.22 678.789 145.03 679.509 145.03C680.249 145.03 680.809 145.22 681.189 145.6C681.589 145.98 681.789 146.55 681.789 147.31V157.96C681.789 159.5 681.059 160.27 679.599 160.27C678.879 160.27 678.329 160.07 677.949 159.67C677.569 159.27 677.379 158.7 677.379 157.96V155.95L677.829 157.12C677.389 158.14 676.759 158.93 675.939 159.49C675.119 160.05 674.149 160.33 673.029 160.33ZM687.575 160.24C686.835 160.24 686.265 160.03 685.865 159.61C685.485 159.17 685.295 158.56 685.295 157.78V147.52C685.295 146.72 685.485 146.11 685.865 145.69C686.265 145.25 686.835 145.03 687.575 145.03C688.295 145.03 688.845 145.25 689.225 145.69C689.625 146.11 689.825 146.72 689.825 147.52V157.78C689.825 158.56 689.635 159.17 689.255 159.61C688.875 160.03 688.315 160.24 687.575 160.24ZM687.575 142.57C686.735 142.57 686.085 142.38 685.625 142C685.185 141.6 684.965 141.04 684.965 140.32C684.965 139.58 685.185 139.02 685.625 138.64C686.085 138.24 686.735 138.04 687.575 138.04C688.415 138.04 689.055 138.24 689.495 138.64C689.935 139.02 690.155 139.58 690.155 140.32C690.155 141.04 689.935 141.6 689.495 142C689.055 142.38 688.415 142.57 687.575 142.57ZM698.632 160.33C696.852 160.33 695.522 159.84 694.642 158.86C693.762 157.86 693.322 156.38 693.322 154.42V140.89C693.322 140.13 693.512 139.56 693.892 139.18C694.292 138.78 694.862 138.58 695.602 138.58C696.322 138.58 696.872 138.78 697.252 139.18C697.652 139.56 697.852 140.13 697.852 140.89V154.24C697.852 155.06 698.022 155.67 698.362 156.07C698.722 156.45 699.192 156.64 699.772 156.64C699.932 156.64 700.082 156.63 700.222 156.61C700.362 156.59 700.512 156.58 700.672 156.58C700.992 156.54 701.212 156.64 701.332 156.88C701.472 157.1 701.542 157.55 701.542 158.23C701.542 158.83 701.422 159.29 701.182 159.61C700.942 159.91 700.572 160.11 700.072 160.21C699.872 160.23 699.642 160.25 699.382 160.27C699.122 160.31 698.872 160.33 698.632 160.33ZM710.103 160.33C708.723 160.33 707.563 160.1 706.623 159.64C705.703 159.18 705.013 158.51 704.553 157.63C704.113 156.75 703.893 155.64 703.893 154.3V148.66H702.633C702.073 148.66 701.633 148.51 701.313 148.21C701.013 147.91 700.863 147.5 700.863 146.98C700.863 146.42 701.013 146 701.313 145.72C701.633 145.42 702.073 145.27 702.633 145.27H703.893V142.99C703.893 142.23 704.093 141.66 704.493 141.28C704.893 140.88 705.453 140.68 706.173 140.68C706.913 140.68 707.473 140.88 707.853 141.28C708.233 141.66 708.423 142.23 708.423 142.99V145.27H711.273C711.833 145.27 712.263 145.42 712.563 145.72C712.863 146 713.013 146.42 713.013 146.98C713.013 147.5 712.863 147.91 712.563 148.21C712.263 148.51 711.833 148.66 711.273 148.66H708.423V154.12C708.423 154.96 708.613 155.59 708.993 156.01C709.393 156.43 710.023 156.64 710.883 156.64C711.183 156.64 711.463 156.61 711.723 156.55C711.983 156.49 712.223 156.45 712.443 156.43C712.723 156.41 712.953 156.5 713.133 156.7C713.313 156.88 713.403 157.29 713.403 157.93C713.403 158.41 713.323 158.83 713.163 159.19C713.003 159.55 712.723 159.81 712.323 159.97C712.063 160.07 711.703 160.15 711.243 160.21C710.803 160.29 710.423 160.33 710.103 160.33ZM732.471 160.33C731.291 160.33 730.241 160.04 729.321 159.46C728.421 158.86 727.821 158.07 727.521 157.09L727.851 156.1V157.96C727.851 158.7 727.661 159.27 727.281 159.67C726.901 160.07 726.351 160.27 725.631 160.27C724.911 160.27 724.351 160.07 723.951 159.67C723.571 159.27 723.381 158.7 723.381 157.96V140.89C723.381 140.13 723.571 139.56 723.951 139.18C724.351 138.78 724.921 138.58 725.661 138.58C726.381 138.58 726.931 138.78 727.311 139.18C727.711 139.56 727.911 140.13 727.911 140.89V148H727.551C727.871 147.1 728.481 146.37 729.381 145.81C730.281 145.25 731.311 144.97 732.471 144.97C733.771 144.97 734.901 145.28 735.861 145.9C736.821 146.52 737.571 147.4 738.111 148.54C738.651 149.68 738.921 151.04 738.921 152.62C738.921 154.2 738.651 155.57 738.111 156.73C737.571 157.89 736.811 158.78 735.831 159.4C734.871 160.02 733.751 160.33 732.471 160.33ZM731.121 156.94C731.761 156.94 732.321 156.78 732.801 156.46C733.301 156.14 733.681 155.67 733.941 155.05C734.221 154.41 734.361 153.6 734.361 152.62C734.361 151.16 734.061 150.09 733.461 149.41C732.861 148.71 732.081 148.36 731.121 148.36C730.481 148.36 729.911 148.51 729.411 148.81C728.931 149.11 728.551 149.58 728.271 150.22C727.991 150.84 727.851 151.64 727.851 152.62C727.851 154.08 728.151 155.17 728.751 155.89C729.351 156.59 730.141 156.94 731.121 156.94ZM745.36 165.67C744.84 165.67 744.41 165.53 744.07 165.25C743.73 164.97 743.53 164.6 743.47 164.14C743.41 163.7 743.49 163.23 743.71 162.73L745.72 158.29V160.15L740.41 147.97C740.21 147.45 740.14 146.97 740.2 146.53C740.28 146.07 740.5 145.71 740.86 145.45C741.24 145.17 741.76 145.03 742.42 145.03C742.96 145.03 743.39 145.16 743.71 145.42C744.05 145.66 744.36 146.13 744.64 146.83L748.18 155.83H747.22L750.88 146.8C751.16 146.12 751.47 145.66 751.81 145.42C752.17 145.16 752.65 145.03 753.25 145.03C753.77 145.03 754.18 145.17 754.48 145.45C754.8 145.71 754.99 146.06 755.05 146.5C755.13 146.94 755.05 147.42 754.81 147.94L747.76 163.93C747.46 164.61 747.12 165.07 746.74 165.31C746.38 165.55 745.92 165.67 745.36 165.67ZM759.526 160.15C758.726 160.15 758.086 159.91 757.606 159.43C757.146 158.95 756.916 158.33 756.916 157.57C756.916 156.83 757.146 156.23 757.606 155.77C758.086 155.29 758.726 155.05 759.526 155.05C760.326 155.05 760.946 155.29 761.386 155.77C761.846 156.23 762.076 156.83 762.076 157.57C762.076 158.33 761.846 158.95 761.386 159.43C760.946 159.91 760.326 160.15 759.526 160.15ZM759.526 150.22C758.726 150.22 758.086 149.98 757.606 149.5C757.146 149.02 756.916 148.41 756.916 147.67C756.916 146.91 757.146 146.3 757.606 145.84C758.086 145.36 758.726 145.12 759.526 145.12C760.326 145.12 760.946 145.36 761.386 145.84C761.846 146.3 762.076 146.91 762.076 147.67C762.076 148.41 761.846 149.02 761.386 149.5C760.946 149.98 760.326 150.22 759.526 150.22ZM786.378 164.98C784.438 164.98 782.658 164.67 781.038 164.05C779.438 163.45 778.058 162.57 776.898 161.41C775.738 160.27 774.838 158.91 774.198 157.33C773.578 155.75 773.268 153.99 773.268 152.05C773.268 150.01 773.588 148.16 774.228 146.5C774.888 144.84 775.818 143.42 777.018 142.24C778.238 141.04 779.678 140.12 781.338 139.48C783.018 138.84 784.888 138.52 786.948 138.52C789.328 138.52 791.408 138.99 793.188 139.93C794.988 140.85 796.378 142.15 797.358 143.83C798.338 145.51 798.828 147.5 798.828 149.8C798.828 151.52 798.578 153.02 798.078 154.3C797.598 155.56 796.918 156.53 796.038 157.21C795.158 157.89 794.128 158.23 792.948 158.23C791.708 158.23 790.738 157.9 790.038 157.24C789.338 156.58 788.928 155.65 788.808 154.45L789.948 153.88C789.448 155.34 788.738 156.43 787.818 157.15C786.898 157.87 785.878 158.23 784.758 158.23C783.138 158.23 781.878 157.72 780.978 156.7C780.078 155.68 779.628 154.29 779.628 152.53C779.628 151.07 779.898 149.77 780.438 148.63C780.998 147.49 781.758 146.6 782.718 145.96C783.678 145.3 784.778 144.97 786.018 144.97C787.078 144.97 787.938 145.23 788.598 145.75C789.258 146.27 789.718 147.05 789.978 148.09H789.378L789.618 146.71C789.798 145.71 790.398 145.21 791.418 145.21C791.978 145.21 792.388 145.37 792.648 145.69C792.908 145.99 792.988 146.43 792.888 147.01L791.958 152.2C791.898 152.56 791.848 152.89 791.808 153.19C791.768 153.47 791.748 153.72 791.748 153.94C791.748 154.54 791.868 154.98 792.108 155.26C792.348 155.52 792.698 155.65 793.158 155.65C793.758 155.65 794.278 155.41 794.718 154.93C795.158 154.45 795.498 153.76 795.738 152.86C795.998 151.96 796.128 150.94 796.128 149.8C796.128 147.96 795.758 146.4 795.018 145.12C794.278 143.84 793.228 142.87 791.868 142.21C790.508 141.53 788.858 141.19 786.918 141.19C784.758 141.19 782.888 141.64 781.308 142.54C779.728 143.42 778.498 144.67 777.618 146.29C776.738 147.91 776.298 149.83 776.298 152.05C776.298 154.17 776.708 156 777.528 157.54C778.368 159.08 779.538 160.26 781.038 161.08C782.538 161.9 784.318 162.31 786.378 162.31C787.598 162.31 788.718 162.17 789.738 161.89C790.778 161.61 791.728 161.21 792.588 160.69C793.008 160.43 793.388 160.35 793.728 160.45C794.068 160.57 794.308 160.79 794.448 161.11C794.608 161.43 794.638 161.77 794.538 162.13C794.438 162.49 794.178 162.8 793.758 163.06C792.858 163.64 791.778 164.1 790.518 164.44C789.278 164.8 787.898 164.98 786.378 164.98ZM785.478 155.47C786.158 155.47 786.758 155.26 787.278 154.84C787.798 154.42 788.198 153.83 788.478 153.07C788.778 152.29 788.928 151.4 788.928 150.4C788.928 149.54 788.738 148.89 788.358 148.45C787.998 147.99 787.428 147.76 786.648 147.76C785.948 147.76 785.328 147.96 784.788 148.36C784.268 148.76 783.858 149.31 783.558 150.01C783.258 150.71 783.108 151.54 783.108 152.5C783.108 153.46 783.308 154.2 783.708 154.72C784.128 155.22 784.718 155.47 785.478 155.47ZM804.352 165.67C803.612 165.67 803.042 165.47 802.642 165.07C802.262 164.69 802.072 164.12 802.072 163.36V147.31C802.072 146.57 802.262 146.01 802.642 145.63C803.042 145.23 803.592 145.03 804.292 145.03C805.032 145.03 805.592 145.23 805.972 145.63C806.352 146.01 806.542 146.57 806.542 147.31V149.35L806.212 148.18C806.512 147.22 807.112 146.45 808.012 145.87C808.932 145.27 809.982 144.97 811.162 144.97C812.442 144.97 813.562 145.28 814.522 145.9C815.502 146.52 816.262 147.4 816.802 148.54C817.342 149.68 817.612 151.04 817.612 152.62C817.612 154.2 817.342 155.57 816.802 156.73C816.262 157.89 815.512 158.78 814.552 159.4C813.592 160.02 812.462 160.33 811.162 160.33C810.002 160.33 808.972 160.05 808.072 159.49C807.172 158.91 806.562 158.16 806.242 157.24H806.602V163.36C806.602 164.12 806.402 164.69 806.002 165.07C805.622 165.47 805.072 165.67 804.352 165.67ZM809.812 156.94C810.452 156.94 811.012 156.78 811.492 156.46C811.992 156.14 812.372 155.67 812.632 155.05C812.912 154.41 813.052 153.6 813.052 152.62C813.052 151.16 812.752 150.09 812.152 149.41C811.552 148.71 810.772 148.36 809.812 148.36C809.172 148.36 808.602 148.51 808.102 148.81C807.622 149.11 807.242 149.58 806.962 150.22C806.682 150.84 806.542 151.64 806.542 152.62C806.542 154.08 806.842 155.17 807.442 155.89C808.042 156.59 808.832 156.94 809.812 156.94ZM828.033 160.33C826.293 160.33 824.793 160.02 823.533 159.4C822.293 158.76 821.333 157.87 820.653 156.73C819.993 155.57 819.663 154.21 819.663 152.65C819.663 151.13 819.983 149.8 820.623 148.66C821.263 147.5 822.153 146.6 823.293 145.96C824.453 145.3 825.763 144.97 827.223 144.97C828.283 144.97 829.243 145.15 830.103 145.51C830.963 145.85 831.703 146.35 832.323 147.01C832.943 147.65 833.413 148.44 833.733 149.38C834.053 150.3 834.213 151.33 834.213 152.47C834.213 152.85 834.093 153.14 833.853 153.34C833.613 153.52 833.263 153.61 832.803 153.61H823.383V151.27H830.943L830.463 151.69C830.463 150.87 830.343 150.19 830.103 149.65C829.863 149.09 829.513 148.67 829.053 148.39C828.613 148.11 828.063 147.97 827.403 147.97C826.663 147.97 826.033 148.14 825.513 148.48C824.993 148.82 824.593 149.31 824.313 149.95C824.033 150.59 823.893 151.36 823.893 152.26V152.5C823.893 154.02 824.243 155.14 824.943 155.86C825.663 156.58 826.723 156.94 828.123 156.94C828.603 156.94 829.153 156.88 829.773 156.76C830.393 156.64 830.973 156.45 831.513 156.19C831.973 155.97 832.383 155.9 832.743 155.98C833.103 156.04 833.383 156.2 833.583 156.46C833.783 156.72 833.893 157.02 833.913 157.36C833.953 157.7 833.883 158.04 833.703 158.38C833.523 158.7 833.223 158.97 832.803 159.19C832.123 159.57 831.353 159.85 830.493 160.03C829.653 160.23 828.833 160.33 828.033 160.33ZM839.127 160.27C838.387 160.27 837.817 160.07 837.417 159.67C837.037 159.27 836.847 158.7 836.847 157.96V147.31C836.847 146.57 837.037 146.01 837.417 145.63C837.817 145.23 838.367 145.03 839.067 145.03C839.787 145.03 840.337 145.23 840.717 145.63C841.097 146.01 841.287 146.57 841.287 147.31V149.02L840.957 148.03C841.417 147.05 842.097 146.3 842.997 145.78C843.917 145.24 844.957 144.97 846.117 144.97C847.297 144.97 848.267 145.2 849.027 145.66C849.787 146.1 850.357 146.78 850.737 147.7C851.117 148.6 851.307 149.75 851.307 151.15V157.96C851.307 158.7 851.107 159.27 850.707 159.67C850.327 160.07 849.767 160.27 849.027 160.27C848.307 160.27 847.747 160.07 847.347 159.67C846.967 159.27 846.777 158.7 846.777 157.96V151.36C846.777 150.34 846.587 149.61 846.207 149.17C845.847 148.71 845.287 148.48 844.527 148.48C843.567 148.48 842.797 148.78 842.217 149.38C841.657 149.98 841.377 150.78 841.377 151.78V157.96C841.377 159.5 840.627 160.27 839.127 160.27ZM857.029 160.27C856.269 160.27 855.689 160.07 855.289 159.67C854.889 159.27 854.689 158.7 854.689 157.96V147.31C854.689 146.57 854.879 146.01 855.259 145.63C855.659 145.23 856.209 145.03 856.909 145.03C857.629 145.03 858.179 145.23 858.559 145.63C858.939 146.01 859.129 146.57 859.129 147.31V148.87H858.829C859.069 147.67 859.599 146.74 860.419 146.08C861.239 145.42 862.299 145.05 863.599 144.97C864.099 144.93 864.479 145.06 864.739 145.36C865.019 145.64 865.169 146.11 865.189 146.77C865.229 147.39 865.099 147.88 864.799 148.24C864.519 148.6 864.039 148.82 863.359 148.9L862.669 148.96C861.529 149.06 860.679 149.39 860.119 149.95C859.579 150.51 859.309 151.32 859.309 152.38V157.96C859.309 158.7 859.109 159.27 858.709 159.67C858.329 160.07 857.769 160.27 857.029 160.27ZM873.869 160.33C872.289 160.33 870.909 160.02 869.729 159.4C868.569 158.78 867.669 157.89 867.029 156.73C866.389 155.57 866.069 154.2 866.069 152.62C866.069 151.44 866.249 150.38 866.609 149.44C866.969 148.5 867.489 147.7 868.169 147.04C868.869 146.36 869.699 145.85 870.659 145.51C871.619 145.15 872.689 144.97 873.869 144.97C875.449 144.97 876.819 145.28 877.979 145.9C879.159 146.52 880.069 147.4 880.709 148.54C881.369 149.68 881.699 151.04 881.699 152.62C881.699 153.82 881.509 154.89 881.129 155.83C880.769 156.77 880.249 157.58 879.569 158.26C878.889 158.94 878.059 159.46 877.079 159.82C876.119 160.16 875.049 160.33 873.869 160.33ZM873.869 156.94C874.529 156.94 875.099 156.78 875.579 156.46C876.059 156.14 876.439 155.67 876.719 155.05C876.999 154.41 877.139 153.6 877.139 152.62C877.139 151.16 876.839 150.09 876.239 149.41C875.639 148.71 874.849 148.36 873.869 148.36C873.229 148.36 872.659 148.51 872.159 148.81C871.679 149.11 871.299 149.58 871.019 150.22C870.759 150.84 870.629 151.64 870.629 152.62C870.629 154.08 870.929 155.17 871.529 155.89C872.129 156.59 872.909 156.94 873.869 156.94ZM890.185 160.33C888.905 160.33 887.775 160.02 886.795 159.4C885.835 158.78 885.085 157.89 884.545 156.73C884.005 155.57 883.735 154.2 883.735 152.62C883.735 151.04 884.005 149.68 884.545 148.54C885.085 147.4 885.835 146.52 886.795 145.9C887.775 145.28 888.905 144.97 890.185 144.97C891.345 144.97 892.365 145.25 893.245 145.81C894.145 146.37 894.755 147.1 895.075 148H894.745V140.89C894.745 140.13 894.935 139.56 895.315 139.18C895.695 138.78 896.255 138.58 896.995 138.58C897.715 138.58 898.275 138.78 898.675 139.18C899.075 139.56 899.275 140.13 899.275 140.89V157.96C899.275 158.7 899.075 159.27 898.675 159.67C898.295 160.07 897.745 160.27 897.025 160.27C896.305 160.27 895.745 160.07 895.345 159.67C894.965 159.27 894.775 158.7 894.775 157.96V155.92L895.105 157.09C894.825 158.07 894.225 158.86 893.305 159.46C892.405 160.04 891.365 160.33 890.185 160.33ZM891.535 156.94C892.195 156.94 892.765 156.78 893.245 156.46C893.725 156.14 894.105 155.67 894.385 155.05C894.665 154.41 894.805 153.6 894.805 152.62C894.805 151.16 894.505 150.09 893.905 149.41C893.305 148.71 892.515 148.36 891.535 148.36C890.895 148.36 890.325 148.51 889.825 148.81C889.345 149.11 888.965 149.58 888.685 150.22C888.425 150.84 888.295 151.64 888.295 152.62C888.295 154.08 888.595 155.17 889.195 155.89C889.795 156.59 890.575 156.94 891.535 156.94ZM908.075 160.33C906.295 160.33 904.965 159.84 904.085 158.86C903.205 157.86 902.765 156.38 902.765 154.42V140.89C902.765 140.13 902.955 139.56 903.335 139.18C903.735 138.78 904.305 138.58 905.045 138.58C905.765 138.58 906.315 138.78 906.695 139.18C907.095 139.56 907.295 140.13 907.295 140.89V154.24C907.295 155.06 907.465 155.67 907.805 156.07C908.165 156.45 908.635 156.64 909.215 156.64C909.375 156.64 909.525 156.63 909.665 156.61C909.805 156.59 909.955 156.58 910.115 156.58C910.435 156.54 910.655 156.64 910.775 156.88C910.915 157.1 910.985 157.55 910.985 158.23C910.985 158.83 910.865 159.29 910.625 159.61C910.385 159.91 910.015 160.11 909.515 160.21C909.315 160.23 909.085 160.25 908.825 160.27C908.565 160.31 908.315 160.33 908.075 160.33ZM919.689 160.33C918.109 160.33 916.729 160.02 915.549 159.4C914.389 158.78 913.489 157.89 912.849 156.73C912.209 155.57 911.889 154.2 911.889 152.62C911.889 151.44 912.069 150.38 912.429 149.44C912.789 148.5 913.309 147.7 913.989 147.04C914.689 146.36 915.519 145.85 916.479 145.51C917.439 145.15 918.509 144.97 919.689 144.97C921.269 144.97 922.639 145.28 923.799 145.9C924.979 146.52 925.889 147.4 926.529 148.54C927.189 149.68 927.519 151.04 927.519 152.62C927.519 153.82 927.329 154.89 926.949 155.83C926.589 156.77 926.069 157.58 925.389 158.26C924.709 158.94 923.879 159.46 922.899 159.82C921.939 160.16 920.869 160.33 919.689 160.33ZM919.689 156.94C920.349 156.94 920.919 156.78 921.399 156.46C921.879 156.14 922.259 155.67 922.539 155.05C922.819 154.41 922.959 153.6 922.959 152.62C922.959 151.16 922.659 150.09 922.059 149.41C921.459 148.71 920.669 148.36 919.689 148.36C919.049 148.36 918.479 148.51 917.979 148.81C917.499 149.11 917.119 149.58 916.839 150.22C916.579 150.84 916.449 151.64 916.449 152.62C916.449 154.08 916.749 155.17 917.349 155.89C917.949 156.59 918.729 156.94 919.689 156.94ZM935.585 160.33C933.805 160.33 932.475 159.84 931.595 158.86C930.715 157.86 930.275 156.38 930.275 154.42V140.89C930.275 140.13 930.465 139.56 930.845 139.18C931.245 138.78 931.815 138.58 932.555 138.58C933.275 138.58 933.825 138.78 934.205 139.18C934.605 139.56 934.805 140.13 934.805 140.89V154.24C934.805 155.06 934.975 155.67 935.315 156.07C935.675 156.45 936.145 156.64 936.725 156.64C936.885 156.64 937.035 156.63 937.175 156.61C937.315 156.59 937.465 156.58 937.625 156.58C937.945 156.54 938.165 156.64 938.285 156.88C938.425 157.1 938.495 157.55 938.495 158.23C938.495 158.83 938.375 159.29 938.135 159.61C937.895 159.91 937.525 160.11 937.025 160.21C936.825 160.23 936.595 160.25 936.335 160.27C936.075 160.31 935.825 160.33 935.585 160.33Z" fill="#A9A9BD"/>
<path fill-rule="evenodd" clip-rule="evenodd" d="M417.883 169.02C416.667 165.676 406.219 164.269 374.818 163.096C345.518 161.981 311.409 158.755 251.814 160.515C206.261 161.864 149.541 167.26 149.541 170.251C149.541 172.421 151.753 172.48 172.871 170.544C192.386 168.785 202.392 168.374 214.609 167.905C165.629 172.48 155.18 175.471 129.087 178.345C112.723 180.164 122.287 185.384 128.258 184.856C128.313 184.856 204.437 178.287 211.624 178.639C212.287 178.697 205.045 179.753 195.481 180.985C168.78 184.504 173.921 190.369 193.933 187.671C261.268 178.579 324.622 175.764 373.436 179.694C388.86 180.926 390.574 180.926 390.574 179.401C390.574 176.703 386.372 174.65 379.794 174.24C369.511 173.536 329.929 171.541 312.017 170.954C310.635 170.896 311.298 169.782 312.515 169.665C319.812 168.902 377.748 169.488 400.525 170.309C417.275 170.896 418.492 170.838 417.883 169.02Z" fill="#ABACDB"/>
<path d="M154.76 136.72C152.787 136.72 151.267 136.187 150.2 135.12C149.187 134.053 148.68 132.533 148.68 130.56V105.76H145.8C144.307 105.76 143.133 105.36 142.28 104.56C141.48 103.76 141.08 102.667 141.08 101.28C141.08 99.7867 141.48 98.6667 142.28 97.92C143.133 97.12 144.307 96.72 145.8 96.72H152.2L148.68 99.92V97.44C148.68 91.7333 150.093 87.4667 152.92 84.64C155.8 81.8133 160.013 80.1067 165.56 79.52L168.12 79.28C169.507 79.1733 170.6 79.3867 171.4 79.92C172.253 80.4533 172.813 81.1467 173.08 82C173.347 82.8533 173.4 83.7333 173.24 84.64C173.08 85.4933 172.707 86.2667 172.12 86.96C171.587 87.6 170.84 87.9467 169.88 88L168.76 88.08C165.88 88.2933 163.827 88.9867 162.6 90.16C161.373 91.28 160.76 93.0133 160.76 95.36V98.08L159.24 96.72H166.44C167.987 96.72 169.16 97.12 169.96 97.92C170.76 98.6667 171.16 99.7867 171.16 101.28C171.16 102.667 170.76 103.76 169.96 104.56C169.16 105.36 167.987 105.76 166.44 105.76H160.76V130.56C160.76 134.667 158.76 136.72 154.76 136.72ZM195.649 136.88C191.009 136.88 187.009 136.053 183.649 134.4C180.343 132.693 177.783 130.32 175.969 127.28C174.209 124.187 173.329 120.56 173.329 116.4C173.329 112.347 174.183 108.8 175.889 105.76C177.596 102.667 179.969 100.267 183.009 98.56C186.103 96.8 189.596 95.92 193.489 95.92C196.316 95.92 198.876 96.4 201.169 97.36C203.463 98.2667 205.436 99.6 207.089 101.36C208.743 103.067 209.996 105.173 210.849 107.68C211.703 110.133 212.129 112.88 212.129 115.92C212.129 116.933 211.809 117.707 211.169 118.24C210.529 118.72 209.596 118.96 208.369 118.96H183.249V112.72H203.409L202.129 113.84C202.129 111.653 201.809 109.84 201.169 108.4C200.529 106.907 199.596 105.787 198.369 105.04C197.196 104.293 195.729 103.92 193.969 103.92C191.996 103.92 190.316 104.373 188.929 105.28C187.543 106.187 186.476 107.493 185.729 109.2C184.983 110.907 184.609 112.96 184.609 115.36V116C184.609 120.053 185.543 123.04 187.409 124.96C189.329 126.88 192.156 127.84 195.889 127.84C197.169 127.84 198.636 127.68 200.289 127.36C201.943 127.04 203.489 126.533 204.929 125.84C206.156 125.253 207.249 125.067 208.209 125.28C209.169 125.44 209.916 125.867 210.449 126.56C210.983 127.253 211.276 128.053 211.329 128.96C211.436 129.867 211.249 130.773 210.769 131.68C210.289 132.533 209.489 133.253 208.369 133.84C206.556 134.853 204.503 135.6 202.209 136.08C199.969 136.613 197.783 136.88 195.649 136.88ZM239.556 136.88C234.916 136.88 230.916 136.053 227.556 134.4C224.249 132.693 221.689 130.32 219.876 127.28C218.116 124.187 217.236 120.56 217.236 116.4C217.236 112.347 218.089 108.8 219.796 105.76C221.502 102.667 223.876 100.267 226.916 98.56C230.009 96.8 233.502 95.92 237.396 95.92C240.222 95.92 242.782 96.4 245.076 97.36C247.369 98.2667 249.342 99.6 250.996 101.36C252.649 103.067 253.902 105.173 254.756 107.68C255.609 110.133 256.036 112.88 256.036 115.92C256.036 116.933 255.716 117.707 255.076 118.24C254.436 118.72 253.502 118.96 252.276 118.96H227.156V112.72H247.316L246.036 113.84C246.036 111.653 245.716 109.84 245.076 108.4C244.436 106.907 243.502 105.787 242.276 105.04C241.102 104.293 239.636 103.92 237.876 103.92C235.902 103.92 234.222 104.373 232.836 105.28C231.449 106.187 230.382 107.493 229.636 109.2C228.889 110.907 228.516 112.96 228.516 115.36V116C228.516 120.053 229.449 123.04 231.316 124.96C233.236 126.88 236.062 127.84 239.796 127.84C241.076 127.84 242.542 127.68 244.196 127.36C245.849 127.04 247.396 126.533 248.836 125.84C250.062 125.253 251.156 125.067 252.116 125.28C253.076 125.44 253.822 125.867 254.356 126.56C254.889 127.253 255.182 128.053 255.236 128.96C255.342 129.867 255.156 130.773 254.676 131.68C254.196 132.533 253.396 133.253 252.276 133.84C250.462 134.853 248.409 135.6 246.116 136.08C243.876 136.613 241.689 136.88 239.556 136.88ZM278.342 136.88C274.929 136.88 271.915 136.053 269.302 134.4C266.742 132.747 264.742 130.373 263.302 127.28C261.862 124.187 261.142 120.533 261.142 116.32C261.142 112.107 261.862 108.48 263.302 105.44C264.742 102.4 266.742 100.053 269.302 98.4C271.915 96.7467 274.929 95.92 278.342 95.92C281.435 95.92 284.155 96.6667 286.502 98.16C288.902 99.6533 290.529 101.6 291.382 104H290.502V85.04C290.502 83.0133 291.009 81.4933 292.022 80.48C293.035 79.4133 294.529 78.88 296.502 78.88C298.422 78.88 299.915 79.4133 300.982 80.48C302.049 81.4933 302.582 83.0133 302.582 85.04V130.56C302.582 132.533 302.049 134.053 300.982 135.12C299.969 136.187 298.502 136.72 296.582 136.72C294.662 136.72 293.169 136.187 292.102 135.12C291.089 134.053 290.582 132.533 290.582 130.56V125.12L291.462 128.24C290.715 130.853 289.115 132.96 286.662 134.56C284.262 136.107 281.489 136.88 278.342 136.88ZM281.942 127.84C283.702 127.84 285.222 127.413 286.502 126.56C287.782 125.707 288.795 124.453 289.542 122.8C290.289 121.093 290.662 118.933 290.662 116.32C290.662 112.427 289.862 109.573 288.262 107.76C286.662 105.893 284.555 104.96 281.942 104.96C280.235 104.96 278.715 105.36 277.382 106.16C276.102 106.96 275.089 108.213 274.342 109.92C273.649 111.573 273.302 113.707 273.302 116.32C273.302 120.213 274.102 123.12 275.702 125.04C277.302 126.907 279.382 127.84 281.942 127.84ZM308.37 151.04C306.93 151.093 305.783 150.853 304.93 150.32C304.077 149.787 303.49 149.093 303.17 148.24C302.85 147.44 302.77 146.613 302.93 145.76C303.037 144.907 303.383 144.16 303.97 143.52C304.557 142.88 305.357 142.507 306.37 142.4C308.45 142.24 309.943 141.653 310.85 140.64C311.81 139.68 312.29 138.187 312.29 136.16V102.16C312.29 100.187 312.823 98.6933 313.89 97.68C314.957 96.6133 316.45 96.08 318.37 96.08C320.29 96.08 321.757 96.6133 322.77 97.68C323.837 98.6933 324.37 100.187 324.37 102.16V135.04C324.37 138.56 323.783 141.467 322.61 143.76C321.49 146.053 319.757 147.787 317.41 148.96C315.063 150.187 312.05 150.88 308.37 151.04ZM318.29 89.52C316.103 89.52 314.397 89.0133 313.17 88C311.997 86.9333 311.41 85.44 311.41 83.52C311.41 81.5467 311.997 80.0533 313.17 79.04C314.397 77.9733 316.103 77.44 318.29 77.44C320.53 77.44 322.237 77.9733 323.41 79.04C324.583 80.0533 325.17 81.5467 325.17 83.52C325.17 85.44 324.583 86.9333 323.41 88C322.237 89.0133 320.53 89.52 318.29 89.52ZM352.645 136.88C348.432 136.88 344.752 136.053 341.605 134.4C338.512 132.747 336.112 130.373 334.405 127.28C332.698 124.187 331.845 120.533 331.845 116.32C331.845 113.173 332.325 110.347 333.285 107.84C334.245 105.333 335.632 103.2 337.445 101.44C339.312 99.6267 341.525 98.2667 344.085 97.36C346.645 96.4 349.498 95.92 352.645 95.92C356.858 95.92 360.512 96.7467 363.605 98.4C366.752 100.053 369.178 102.4 370.885 105.44C372.645 108.48 373.525 112.107 373.525 116.32C373.525 119.52 373.018 122.373 372.005 124.88C371.045 127.387 369.658 129.547 367.845 131.36C366.032 133.173 363.818 134.56 361.205 135.52C358.645 136.427 355.792 136.88 352.645 136.88ZM352.645 127.84C354.405 127.84 355.925 127.413 357.205 126.56C358.485 125.707 359.498 124.453 360.245 122.8C360.992 121.093 361.365 118.933 361.365 116.32C361.365 112.427 360.565 109.573 358.965 107.76C357.365 105.893 355.258 104.96 352.645 104.96C350.938 104.96 349.418 105.36 348.085 106.16C346.805 106.96 345.792 108.213 345.045 109.92C344.352 111.573 344.005 113.707 344.005 116.32C344.005 120.213 344.805 123.12 346.405 125.04C348.005 126.907 350.085 127.84 352.645 127.84ZM390.657 151.12C389.27 151.12 388.124 150.747 387.217 150C386.31 149.253 385.777 148.267 385.617 147.04C385.457 145.867 385.67 144.613 386.257 143.28L391.617 131.44V136.4L377.457 103.92C376.924 102.533 376.737 101.253 376.897 100.08C377.11 98.8533 377.697 97.8933 378.657 97.2C379.67 96.4533 381.057 96.08 382.817 96.08C384.257 96.08 385.404 96.4267 386.257 97.12C387.164 97.76 387.99 99.0133 388.737 100.88L398.177 124.88H395.617L405.377 100.8C406.124 98.9867 406.95 97.76 407.857 97.12C408.817 96.4267 410.097 96.08 411.697 96.08C413.084 96.08 414.177 96.4533 414.977 97.2C415.83 97.8933 416.337 98.8267 416.497 100C416.71 101.173 416.497 102.453 415.857 103.84L397.057 146.48C396.257 148.293 395.35 149.52 394.337 150.16C393.377 150.8 392.15 151.12 390.657 151.12Z" fill="#9899EC"/>
</svg>
