<svg width="1204" height="328" viewBox="0 0 1204 328" fill="none" xmlns="http://www.w3.org/2000/svg">
<rect width="1204" height="328" fill="#0A0B0A"/>
<path d="M625.185 143.315C624.532 143.315 623.995 143.163 623.575 142.86C623.178 142.557 622.922 142.148 622.805 141.635C622.712 141.122 622.817 140.55 623.12 139.92L632.08 120.285C632.453 119.492 632.897 118.92 633.41 118.57C633.923 118.197 634.518 118.01 635.195 118.01C635.872 118.01 636.467 118.197 636.98 118.57C637.493 118.92 637.925 119.492 638.275 120.285L647.305 139.92C647.608 140.55 647.713 141.133 647.62 141.67C647.55 142.183 647.317 142.592 646.92 142.895C646.523 143.175 646.01 143.315 645.38 143.315C644.587 143.315 643.968 143.128 643.525 142.755C643.105 142.382 642.732 141.798 642.405 141.005L640.305 136.14L642.475 137.645H627.88L630.05 136.14L627.985 141.005C627.635 141.822 627.262 142.417 626.865 142.79C626.492 143.14 625.932 143.315 625.185 143.315ZM635.125 124.1L630.645 134.775L629.7 133.41H640.655L639.71 134.775L635.195 124.1H635.125ZM662.888 143.315C662.025 143.315 661.36 143.082 660.893 142.615C660.45 142.148 660.228 141.483 660.228 140.62V128.195C660.228 127.332 660.45 126.678 660.893 126.235C661.36 125.768 662.001 125.535 662.818 125.535C663.658 125.535 664.3 125.768 664.743 126.235C665.186 126.678 665.408 127.332 665.408 128.195V130.435L665.023 129.035C665.49 127.962 666.213 127.098 667.193 126.445C668.173 125.792 669.328 125.465 670.658 125.465C671.988 125.465 673.096 125.78 673.983 126.41C674.87 127.04 675.5 128.008 675.873 129.315H675.383C675.896 128.125 676.678 127.192 677.728 126.515C678.801 125.815 680.026 125.465 681.403 125.465C682.733 125.465 683.818 125.733 684.658 126.27C685.521 126.783 686.163 127.577 686.583 128.65C687.003 129.7 687.213 131.042 687.213 132.675V140.62C687.213 141.483 686.98 142.148 686.513 142.615C686.07 143.082 685.428 143.315 684.588 143.315C683.725 143.315 683.06 143.082 682.593 142.615C682.15 142.148 681.928 141.483 681.928 140.62V132.85C681.928 131.707 681.741 130.878 681.368 130.365C681.018 129.828 680.411 129.56 679.548 129.56C678.545 129.56 677.763 129.91 677.203 130.61C676.643 131.31 676.363 132.302 676.363 133.585V140.62C676.363 141.483 676.13 142.148 675.663 142.615C675.22 143.082 674.578 143.315 673.738 143.315C672.898 143.315 672.245 143.082 671.778 142.615C671.311 142.148 671.078 141.483 671.078 140.62V132.85C671.078 131.707 670.891 130.878 670.518 130.365C670.168 129.828 669.561 129.56 668.698 129.56C667.695 129.56 666.913 129.91 666.353 130.61C665.793 131.31 665.513 132.302 665.513 133.585V140.62C665.513 142.417 664.638 143.315 662.888 143.315ZM693.921 143.28C693.058 143.28 692.393 143.035 691.926 142.545C691.483 142.032 691.261 141.32 691.261 140.41V128.44C691.261 127.507 691.483 126.795 691.926 126.305C692.393 125.792 693.058 125.535 693.921 125.535C694.761 125.535 695.403 125.792 695.846 126.305C696.313 126.795 696.546 127.507 696.546 128.44V140.41C696.546 141.32 696.325 142.032 695.881 142.545C695.438 143.035 694.785 143.28 693.921 143.28ZM693.921 122.665C692.941 122.665 692.183 122.443 691.646 122C691.133 121.533 690.876 120.88 690.876 120.04C690.876 119.177 691.133 118.523 691.646 118.08C692.183 117.613 692.941 117.38 693.921 117.38C694.901 117.38 695.648 117.613 696.161 118.08C696.675 118.523 696.931 119.177 696.931 120.04C696.931 120.88 696.675 121.533 696.161 122C695.648 122.443 694.901 122.665 693.921 122.665ZM708.992 143.385C707.125 143.385 705.492 143.023 704.092 142.3C702.715 141.553 701.653 140.503 700.907 139.15C700.16 137.797 699.787 136.198 699.787 134.355C699.787 132.978 699.997 131.742 700.417 130.645C700.837 129.548 701.443 128.615 702.237 127.845C703.053 127.075 704.033 126.492 705.177 126.095C706.32 125.675 707.592 125.465 708.992 125.465C709.715 125.465 710.485 125.558 711.302 125.745C712.118 125.908 712.923 126.2 713.717 126.62C714.183 126.83 714.498 127.133 714.662 127.53C714.848 127.903 714.918 128.3 714.872 128.72C714.825 129.117 714.673 129.478 714.417 129.805C714.183 130.108 713.88 130.318 713.507 130.435C713.133 130.528 712.713 130.458 712.247 130.225C711.803 129.968 711.337 129.782 710.847 129.665C710.38 129.548 709.937 129.49 709.517 129.49C708.817 129.49 708.198 129.607 707.662 129.84C707.125 130.05 706.67 130.365 706.297 130.785C705.947 131.182 705.667 131.683 705.457 132.29C705.27 132.897 705.177 133.597 705.177 134.39C705.177 135.93 705.55 137.143 706.297 138.03C707.067 138.893 708.14 139.325 709.517 139.325C709.937 139.325 710.38 139.278 710.847 139.185C711.313 139.068 711.78 138.882 712.247 138.625C712.713 138.392 713.133 138.333 713.507 138.45C713.88 138.567 714.172 138.788 714.382 139.115C714.615 139.418 714.743 139.78 714.767 140.2C714.813 140.597 714.743 140.993 714.557 141.39C714.393 141.763 714.09 142.055 713.647 142.265C712.853 142.662 712.06 142.942 711.267 143.105C710.473 143.292 709.715 143.385 708.992 143.385ZM720.071 143.315C719.184 143.315 718.507 143.082 718.041 142.615C717.574 142.148 717.341 141.483 717.341 140.62V128.195C717.341 127.332 717.562 126.678 718.006 126.235C718.472 125.768 719.114 125.535 719.931 125.535C720.771 125.535 721.412 125.768 721.856 126.235C722.299 126.678 722.521 127.332 722.521 128.195V130.015H722.171C722.451 128.615 723.069 127.53 724.026 126.76C724.982 125.99 726.219 125.558 727.736 125.465C728.319 125.418 728.762 125.57 729.066 125.92C729.392 126.247 729.567 126.795 729.591 127.565C729.637 128.288 729.486 128.86 729.136 129.28C728.809 129.7 728.249 129.957 727.456 130.05L726.651 130.12C725.321 130.237 724.329 130.622 723.676 131.275C723.046 131.928 722.731 132.873 722.731 134.11V140.62C722.731 141.483 722.497 142.148 722.031 142.615C721.587 143.082 720.934 143.315 720.071 143.315ZM739.717 143.385C737.873 143.385 736.263 143.023 734.887 142.3C733.533 141.577 732.483 140.538 731.737 139.185C730.99 137.832 730.617 136.233 730.617 134.39C730.617 133.013 730.827 131.777 731.247 130.68C731.667 129.583 732.273 128.65 733.067 127.88C733.883 127.087 734.852 126.492 735.972 126.095C737.092 125.675 738.34 125.465 739.717 125.465C741.56 125.465 743.158 125.827 744.512 126.55C745.888 127.273 746.95 128.3 747.697 129.63C748.467 130.96 748.852 132.547 748.852 134.39C748.852 135.79 748.63 137.038 748.187 138.135C747.767 139.232 747.16 140.177 746.367 140.97C745.573 141.763 744.605 142.37 743.462 142.79C742.342 143.187 741.093 143.385 739.717 143.385ZM739.717 139.43C740.487 139.43 741.152 139.243 741.712 138.87C742.272 138.497 742.715 137.948 743.042 137.225C743.368 136.478 743.532 135.533 743.532 134.39C743.532 132.687 743.182 131.438 742.482 130.645C741.782 129.828 740.86 129.42 739.717 129.42C738.97 129.42 738.305 129.595 737.722 129.945C737.162 130.295 736.718 130.843 736.392 131.59C736.088 132.313 735.937 133.247 735.937 134.39C735.937 136.093 736.287 137.365 736.987 138.205C737.687 139.022 738.597 139.43 739.717 139.43ZM765.028 143.315C764.141 143.315 763.464 143.07 762.998 142.58C762.531 142.09 762.298 141.402 762.298 140.515V121.09C762.298 120.18 762.531 119.492 762.998 119.025C763.488 118.558 764.176 118.325 765.063 118.325H773.568C776.321 118.325 778.444 118.99 779.938 120.32C781.431 121.65 782.178 123.505 782.178 125.885C782.178 127.425 781.839 128.755 781.163 129.875C780.486 130.995 779.506 131.858 778.223 132.465C776.963 133.072 775.411 133.375 773.568 133.375L773.848 132.78H775.283C776.263 132.78 777.114 133.025 777.838 133.515C778.584 133.982 779.226 134.705 779.763 135.685L781.933 139.71C782.259 140.293 782.411 140.865 782.388 141.425C782.364 141.985 782.154 142.44 781.758 142.79C781.361 143.14 780.778 143.315 780.008 143.315C779.238 143.315 778.608 143.152 778.118 142.825C777.651 142.498 777.231 141.997 776.858 141.32L773.498 135.125C773.148 134.472 772.716 134.028 772.203 133.795C771.713 133.562 771.106 133.445 770.383 133.445H767.723V140.515C767.723 141.402 767.489 142.09 767.023 142.58C766.579 143.07 765.914 143.315 765.028 143.315ZM767.723 129.525H772.588C774.034 129.525 775.119 129.233 775.843 128.65C776.589 128.067 776.963 127.192 776.963 126.025C776.963 124.882 776.589 124.018 775.843 123.435C775.119 122.852 774.034 122.56 772.588 122.56H767.723V129.525ZM795.385 143.385C794.405 143.385 793.402 143.303 792.375 143.14C791.372 143 790.403 142.79 789.47 142.51C788.56 142.23 787.743 141.88 787.02 141.46C786.507 141.18 786.145 140.818 785.935 140.375C785.725 139.908 785.643 139.442 785.69 138.975C785.76 138.508 785.935 138.1 786.215 137.75C786.518 137.377 786.892 137.143 787.335 137.05C787.802 136.933 788.315 137.015 788.875 137.295C789.832 137.832 790.87 138.228 791.99 138.485C793.133 138.742 794.265 138.87 795.385 138.87C797.088 138.87 798.302 138.613 799.025 138.1C799.748 137.563 800.11 136.898 800.11 136.105C800.11 135.428 799.853 134.892 799.34 134.495C798.827 134.098 797.928 133.76 796.645 133.48L792.69 132.64C790.45 132.173 788.782 131.38 787.685 130.26C786.612 129.117 786.075 127.623 786.075 125.78C786.075 124.613 786.32 123.552 786.81 122.595C787.3 121.638 787.988 120.81 788.875 120.11C789.762 119.41 790.812 118.873 792.025 118.5C793.262 118.127 794.615 117.94 796.085 117.94C797.392 117.94 798.675 118.103 799.935 118.43C801.195 118.733 802.303 119.188 803.26 119.795C803.727 120.075 804.042 120.437 804.205 120.88C804.392 121.3 804.45 121.732 804.38 122.175C804.333 122.595 804.158 122.968 803.855 123.295C803.575 123.622 803.213 123.832 802.77 123.925C802.327 124.018 801.79 123.913 801.16 123.61C800.39 123.213 799.573 122.922 798.71 122.735C797.847 122.548 796.96 122.455 796.05 122.455C795.07 122.455 794.23 122.583 793.53 122.84C792.853 123.097 792.328 123.458 791.955 123.925C791.605 124.392 791.43 124.928 791.43 125.535C791.43 126.212 791.675 126.76 792.165 127.18C792.655 127.6 793.507 127.938 794.72 128.195L798.675 129.035C800.962 129.525 802.665 130.318 803.785 131.415C804.905 132.488 805.465 133.912 805.465 135.685C805.465 136.852 805.232 137.913 804.765 138.87C804.298 139.803 803.622 140.608 802.735 141.285C801.848 141.962 800.787 142.487 799.55 142.86C798.313 143.21 796.925 143.385 795.385 143.385ZM817.807 143.385C816.827 143.385 815.824 143.303 814.797 143.14C813.794 143 812.825 142.79 811.892 142.51C810.982 142.23 810.165 141.88 809.442 141.46C808.929 141.18 808.567 140.818 808.357 140.375C808.147 139.908 808.065 139.442 808.112 138.975C808.182 138.508 808.357 138.1 808.637 137.75C808.94 137.377 809.314 137.143 809.757 137.05C810.224 136.933 810.737 137.015 811.297 137.295C812.254 137.832 813.292 138.228 814.412 138.485C815.555 138.742 816.687 138.87 817.807 138.87C819.51 138.87 820.724 138.613 821.447 138.1C822.17 137.563 822.532 136.898 822.532 136.105C822.532 135.428 822.275 134.892 821.762 134.495C821.249 134.098 820.35 133.76 819.067 133.48L815.112 132.64C812.872 132.173 811.204 131.38 810.107 130.26C809.034 129.117 808.497 127.623 808.497 125.78C808.497 124.613 808.742 123.552 809.232 122.595C809.722 121.638 810.41 120.81 811.297 120.11C812.184 119.41 813.234 118.873 814.447 118.5C815.684 118.127 817.037 117.94 818.507 117.94C819.814 117.94 821.097 118.103 822.357 118.43C823.617 118.733 824.725 119.188 825.682 119.795C826.149 120.075 826.464 120.437 826.627 120.88C826.814 121.3 826.872 121.732 826.802 122.175C826.755 122.595 826.58 122.968 826.277 123.295C825.997 123.622 825.635 123.832 825.192 123.925C824.749 124.018 824.212 123.913 823.582 123.61C822.812 123.213 821.995 122.922 821.132 122.735C820.269 122.548 819.382 122.455 818.472 122.455C817.492 122.455 816.652 122.583 815.952 122.84C815.275 123.097 814.75 123.458 814.377 123.925C814.027 124.392 813.852 124.928 813.852 125.535C813.852 126.212 814.097 126.76 814.587 127.18C815.077 127.6 815.929 127.938 817.142 128.195L821.097 129.035C823.384 129.525 825.087 130.318 826.207 131.415C827.327 132.488 827.887 133.912 827.887 135.685C827.887 136.852 827.654 137.913 827.187 138.87C826.72 139.803 826.044 140.608 825.157 141.285C824.27 141.962 823.209 142.487 821.972 142.86C820.735 143.21 819.347 143.385 817.807 143.385ZM844.719 143.315C843.856 143.315 843.191 143.082 842.724 142.615C842.281 142.148 842.059 141.483 842.059 140.62V129.77H840.799C840.146 129.77 839.633 129.595 839.259 129.245C838.909 128.895 838.734 128.417 838.734 127.81C838.734 127.157 838.909 126.667 839.259 126.34C839.633 125.99 840.146 125.815 840.799 125.815H843.599L842.059 127.215V126.13C842.059 123.633 842.678 121.767 843.914 120.53C845.174 119.293 847.018 118.547 849.444 118.29L850.564 118.185C851.171 118.138 851.649 118.232 851.999 118.465C852.373 118.698 852.618 119.002 852.734 119.375C852.851 119.748 852.874 120.133 852.804 120.53C852.734 120.903 852.571 121.242 852.314 121.545C852.081 121.825 851.754 121.977 851.334 122L850.844 122.035C849.584 122.128 848.686 122.432 848.149 122.945C847.613 123.435 847.344 124.193 847.344 125.22V126.41L846.679 125.815H849.829C850.506 125.815 851.019 125.99 851.369 126.34C851.719 126.667 851.894 127.157 851.894 127.81C851.894 128.417 851.719 128.895 851.369 129.245C851.019 129.595 850.506 129.77 849.829 129.77H847.344V140.62C847.344 142.417 846.469 143.315 844.719 143.315ZM862.608 143.385C860.578 143.385 858.828 143.023 857.358 142.3C855.912 141.553 854.792 140.515 853.998 139.185C853.228 137.832 852.843 136.245 852.843 134.425C852.843 132.652 853.217 131.1 853.963 129.77C854.71 128.417 855.748 127.367 857.078 126.62C858.432 125.85 859.96 125.465 861.663 125.465C862.9 125.465 864.02 125.675 865.023 126.095C866.027 126.492 866.89 127.075 867.613 127.845C868.337 128.592 868.885 129.513 869.258 130.61C869.632 131.683 869.818 132.885 869.818 134.215C869.818 134.658 869.678 134.997 869.398 135.23C869.118 135.44 868.71 135.545 868.173 135.545H857.183V132.815H866.003L865.443 133.305C865.443 132.348 865.303 131.555 865.023 130.925C864.743 130.272 864.335 129.782 863.798 129.455C863.285 129.128 862.643 128.965 861.873 128.965C861.01 128.965 860.275 129.163 859.668 129.56C859.062 129.957 858.595 130.528 858.268 131.275C857.942 132.022 857.778 132.92 857.778 133.97V134.25C857.778 136.023 858.187 137.33 859.003 138.17C859.843 139.01 861.08 139.43 862.713 139.43C863.273 139.43 863.915 139.36 864.638 139.22C865.362 139.08 866.038 138.858 866.668 138.555C867.205 138.298 867.683 138.217 868.103 138.31C868.523 138.38 868.85 138.567 869.083 138.87C869.317 139.173 869.445 139.523 869.468 139.92C869.515 140.317 869.433 140.713 869.223 141.11C869.013 141.483 868.663 141.798 868.173 142.055C867.38 142.498 866.482 142.825 865.478 143.035C864.498 143.268 863.542 143.385 862.608 143.385ZM881.817 143.385C879.787 143.385 878.037 143.023 876.567 142.3C875.121 141.553 874.001 140.515 873.207 139.185C872.437 137.832 872.052 136.245 872.052 134.425C872.052 132.652 872.426 131.1 873.172 129.77C873.919 128.417 874.957 127.367 876.287 126.62C877.641 125.85 879.169 125.465 880.872 125.465C882.109 125.465 883.229 125.675 884.232 126.095C885.236 126.492 886.099 127.075 886.822 127.845C887.546 128.592 888.094 129.513 888.467 130.61C888.841 131.683 889.027 132.885 889.027 134.215C889.027 134.658 888.887 134.997 888.607 135.23C888.327 135.44 887.919 135.545 887.382 135.545H876.392V132.815H885.212L884.652 133.305C884.652 132.348 884.512 131.555 884.232 130.925C883.952 130.272 883.544 129.782 883.007 129.455C882.494 129.128 881.852 128.965 881.082 128.965C880.219 128.965 879.484 129.163 878.877 129.56C878.271 129.957 877.804 130.528 877.477 131.275C877.151 132.022 876.987 132.92 876.987 133.97V134.25C876.987 136.023 877.396 137.33 878.212 138.17C879.052 139.01 880.289 139.43 881.922 139.43C882.482 139.43 883.124 139.36 883.847 139.22C884.571 139.08 885.247 138.858 885.877 138.555C886.414 138.298 886.892 138.217 887.312 138.31C887.732 138.38 888.059 138.567 888.292 138.87C888.526 139.173 888.654 139.523 888.677 139.92C888.724 140.317 888.642 140.713 888.432 141.11C888.222 141.483 887.872 141.798 887.382 142.055C886.589 142.498 885.691 142.825 884.687 143.035C883.707 143.268 882.751 143.385 881.817 143.385ZM898.786 143.385C897.293 143.385 895.975 143.023 894.831 142.3C893.711 141.577 892.836 140.538 892.206 139.185C891.576 137.832 891.261 136.233 891.261 134.39C891.261 132.547 891.576 130.96 892.206 129.63C892.836 128.3 893.711 127.273 894.831 126.55C895.975 125.827 897.293 125.465 898.786 125.465C900.14 125.465 901.33 125.792 902.356 126.445C903.406 127.098 904.118 127.95 904.491 129H904.106V120.705C904.106 119.818 904.328 119.153 904.771 118.71C905.215 118.243 905.868 118.01 906.731 118.01C907.571 118.01 908.225 118.243 908.691 118.71C909.158 119.153 909.391 119.818 909.391 120.705V140.62C909.391 141.483 909.158 142.148 908.691 142.615C908.248 143.082 907.606 143.315 906.766 143.315C905.926 143.315 905.273 143.082 904.806 142.615C904.363 142.148 904.141 141.483 904.141 140.62V138.24L904.526 139.605C904.2 140.748 903.5 141.67 902.426 142.37C901.376 143.047 900.163 143.385 898.786 143.385ZM900.361 139.43C901.131 139.43 901.796 139.243 902.356 138.87C902.916 138.497 903.36 137.948 903.686 137.225C904.013 136.478 904.176 135.533 904.176 134.39C904.176 132.687 903.826 131.438 903.126 130.645C902.426 129.828 901.505 129.42 900.361 129.42C899.615 129.42 898.95 129.595 898.366 129.945C897.806 130.295 897.363 130.843 897.036 131.59C896.733 132.313 896.581 133.247 896.581 134.39C896.581 136.093 896.931 137.365 897.631 138.205C898.331 139.022 899.241 139.43 900.361 139.43ZM931.604 143.385C929.737 143.385 928.104 143.023 926.704 142.3C925.327 141.553 924.266 140.503 923.519 139.15C922.772 137.797 922.399 136.198 922.399 134.355C922.399 132.978 922.609 131.742 923.029 130.645C923.449 129.548 924.056 128.615 924.849 127.845C925.666 127.075 926.646 126.492 927.789 126.095C928.932 125.675 930.204 125.465 931.604 125.465C932.327 125.465 933.097 125.558 933.914 125.745C934.731 125.908 935.536 126.2 936.329 126.62C936.796 126.83 937.111 127.133 937.274 127.53C937.461 127.903 937.531 128.3 937.484 128.72C937.437 129.117 937.286 129.478 937.029 129.805C936.796 130.108 936.492 130.318 936.119 130.435C935.746 130.528 935.326 130.458 934.859 130.225C934.416 129.968 933.949 129.782 933.459 129.665C932.992 129.548 932.549 129.49 932.129 129.49C931.429 129.49 930.811 129.607 930.274 129.84C929.737 130.05 929.282 130.365 928.909 130.785C928.559 131.182 928.279 131.683 928.069 132.29C927.882 132.897 927.789 133.597 927.789 134.39C927.789 135.93 928.162 137.143 928.909 138.03C929.679 138.893 930.752 139.325 932.129 139.325C932.549 139.325 932.992 139.278 933.459 139.185C933.926 139.068 934.392 138.882 934.859 138.625C935.326 138.392 935.746 138.333 936.119 138.45C936.492 138.567 936.784 138.788 936.994 139.115C937.227 139.418 937.356 139.78 937.379 140.2C937.426 140.597 937.356 140.993 937.169 141.39C937.006 141.763 936.702 142.055 936.259 142.265C935.466 142.662 934.672 142.942 933.879 143.105C933.086 143.292 932.327 143.385 931.604 143.385ZM947.871 143.385C946.028 143.385 944.418 143.023 943.041 142.3C941.688 141.577 940.638 140.538 939.891 139.185C939.144 137.832 938.771 136.233 938.771 134.39C938.771 133.013 938.981 131.777 939.401 130.68C939.821 129.583 940.428 128.65 941.221 127.88C942.038 127.087 943.006 126.492 944.126 126.095C945.246 125.675 946.494 125.465 947.871 125.465C949.714 125.465 951.313 125.827 952.666 126.55C954.043 127.273 955.104 128.3 955.851 129.63C956.621 130.96 957.006 132.547 957.006 134.39C957.006 135.79 956.784 137.038 956.341 138.135C955.921 139.232 955.314 140.177 954.521 140.97C953.728 141.763 952.759 142.37 951.616 142.79C950.496 143.187 949.248 143.385 947.871 143.385ZM947.871 139.43C948.641 139.43 949.306 139.243 949.866 138.87C950.426 138.497 950.869 137.948 951.196 137.225C951.523 136.478 951.686 135.533 951.686 134.39C951.686 132.687 951.336 131.438 950.636 130.645C949.936 129.828 949.014 129.42 947.871 129.42C947.124 129.42 946.459 129.595 945.876 129.945C945.316 130.295 944.873 130.843 944.546 131.59C944.243 132.313 944.091 133.247 944.091 134.39C944.091 136.093 944.441 137.365 945.141 138.205C945.841 139.022 946.751 139.43 947.871 139.43ZM962.881 143.315C962.018 143.315 961.353 143.082 960.886 142.615C960.443 142.148 960.221 141.483 960.221 140.62V128.195C960.221 127.332 960.443 126.678 960.886 126.235C961.353 125.768 961.995 125.535 962.811 125.535C963.651 125.535 964.293 125.768 964.736 126.235C965.18 126.678 965.401 127.332 965.401 128.195V130.19L965.016 129.035C965.553 127.892 966.346 127.017 967.396 126.41C968.47 125.78 969.683 125.465 971.036 125.465C972.413 125.465 973.545 125.733 974.431 126.27C975.318 126.783 975.983 127.577 976.426 128.65C976.87 129.7 977.091 131.042 977.091 132.675V140.62C977.091 141.483 976.858 142.148 976.391 142.615C975.948 143.082 975.295 143.315 974.431 143.315C973.591 143.315 972.938 143.082 972.471 142.615C972.028 142.148 971.806 141.483 971.806 140.62V132.92C971.806 131.73 971.585 130.878 971.141 130.365C970.721 129.828 970.068 129.56 969.181 129.56C968.061 129.56 967.163 129.91 966.486 130.61C965.833 131.31 965.506 132.243 965.506 133.41V140.62C965.506 142.417 964.631 143.315 962.881 143.315ZM989.297 149.685C988.037 149.685 986.824 149.58 985.657 149.37C984.514 149.16 983.499 148.845 982.612 148.425C982.075 148.192 981.69 147.888 981.457 147.515C981.247 147.142 981.154 146.745 981.177 146.325C981.224 145.905 981.364 145.532 981.597 145.205C981.854 144.878 982.169 144.645 982.542 144.505C982.915 144.388 983.312 144.423 983.732 144.61C984.759 145.077 985.704 145.38 986.567 145.52C987.454 145.66 988.212 145.73 988.842 145.73C990.335 145.73 991.455 145.392 992.202 144.715C992.949 144.038 993.322 143 993.322 141.6V138.94H993.637C993.287 140.013 992.564 140.888 991.467 141.565C990.37 142.242 989.157 142.58 987.827 142.58C986.287 142.58 984.945 142.23 983.802 141.53C982.659 140.807 981.772 139.803 981.142 138.52C980.512 137.213 980.197 135.708 980.197 134.005C980.197 132.722 980.372 131.555 980.722 130.505C981.095 129.455 981.609 128.557 982.262 127.81C982.939 127.063 983.744 126.492 984.677 126.095C985.634 125.675 986.684 125.465 987.827 125.465C989.204 125.465 990.417 125.803 991.467 126.48C992.54 127.133 993.252 127.997 993.602 129.07L993.252 130.19V128.195C993.252 127.332 993.474 126.678 993.917 126.235C994.384 125.768 995.037 125.535 995.877 125.535C996.717 125.535 997.359 125.768 997.802 126.235C998.245 126.678 998.467 127.332 998.467 128.195V141.005C998.467 143.875 997.674 146.033 996.087 147.48C994.524 148.95 992.26 149.685 989.297 149.685ZM989.402 138.625C990.195 138.625 990.872 138.438 991.432 138.065C992.015 137.692 992.47 137.167 992.797 136.49C993.124 135.79 993.287 134.962 993.287 134.005C993.287 132.558 992.925 131.438 992.202 130.645C991.502 129.828 990.569 129.42 989.402 129.42C988.609 129.42 987.92 129.607 987.337 129.98C986.754 130.33 986.299 130.855 985.972 131.555C985.669 132.232 985.517 133.048 985.517 134.005C985.517 135.452 985.867 136.583 986.567 137.4C987.267 138.217 988.212 138.625 989.402 138.625ZM1005.3 143.315C1004.41 143.315 1003.74 143.082 1003.27 142.615C1002.8 142.148 1002.57 141.483 1002.57 140.62V128.195C1002.57 127.332 1002.79 126.678 1003.24 126.235C1003.7 125.768 1004.34 125.535 1005.16 125.535C1006 125.535 1006.64 125.768 1007.09 126.235C1007.53 126.678 1007.75 127.332 1007.75 128.195V130.015H1007.4C1007.68 128.615 1008.3 127.53 1009.26 126.76C1010.21 125.99 1011.45 125.558 1012.97 125.465C1013.55 125.418 1013.99 125.57 1014.3 125.92C1014.62 126.247 1014.8 126.795 1014.82 127.565C1014.87 128.288 1014.72 128.86 1014.37 129.28C1014.04 129.7 1013.48 129.957 1012.69 130.05L1011.88 130.12C1010.55 130.237 1009.56 130.622 1008.91 131.275C1008.28 131.928 1007.96 132.873 1007.96 134.11V140.62C1007.96 141.483 1007.73 142.148 1007.26 142.615C1006.82 143.082 1006.16 143.315 1005.3 143.315ZM1025.61 143.385C1023.58 143.385 1021.83 143.023 1020.36 142.3C1018.91 141.553 1017.79 140.515 1017 139.185C1016.23 137.832 1015.85 136.245 1015.85 134.425C1015.85 132.652 1016.22 131.1 1016.97 129.77C1017.71 128.417 1018.75 127.367 1020.08 126.62C1021.43 125.85 1022.96 125.465 1024.67 125.465C1025.9 125.465 1027.02 125.675 1028.03 126.095C1029.03 126.492 1029.89 127.075 1030.62 127.845C1031.34 128.592 1031.89 129.513 1032.26 130.61C1032.63 131.683 1032.82 132.885 1032.82 134.215C1032.82 134.658 1032.68 134.997 1032.4 135.23C1032.12 135.44 1031.71 135.545 1031.18 135.545H1020.19V132.815H1029.01L1028.45 133.305C1028.45 132.348 1028.31 131.555 1028.03 130.925C1027.75 130.272 1027.34 129.782 1026.8 129.455C1026.29 129.128 1025.65 128.965 1024.88 128.965C1024.01 128.965 1023.28 129.163 1022.67 129.56C1022.06 129.957 1021.6 130.528 1021.27 131.275C1020.94 132.022 1020.78 132.92 1020.78 133.97V134.25C1020.78 136.023 1021.19 137.33 1022.01 138.17C1022.85 139.01 1024.08 139.43 1025.72 139.43C1026.28 139.43 1026.92 139.36 1027.64 139.22C1028.36 139.08 1029.04 138.858 1029.67 138.555C1030.21 138.298 1030.69 138.217 1031.11 138.31C1031.53 138.38 1031.85 138.567 1032.09 138.87C1032.32 139.173 1032.45 139.523 1032.47 139.92C1032.52 140.317 1032.44 140.713 1032.23 141.11C1032.02 141.483 1031.67 141.798 1031.18 142.055C1030.38 142.498 1029.48 142.825 1028.48 143.035C1027.5 143.268 1026.54 143.385 1025.61 143.385ZM1044.16 149.685C1042.9 149.685 1041.68 149.58 1040.52 149.37C1039.37 149.16 1038.36 148.845 1037.47 148.425C1036.93 148.192 1036.55 147.888 1036.32 147.515C1036.11 147.142 1036.01 146.745 1036.04 146.325C1036.08 145.905 1036.22 145.532 1036.46 145.205C1036.71 144.878 1037.03 144.645 1037.4 144.505C1037.77 144.388 1038.17 144.423 1038.59 144.61C1039.62 145.077 1040.56 145.38 1041.43 145.52C1042.31 145.66 1043.07 145.73 1043.7 145.73C1045.19 145.73 1046.31 145.392 1047.06 144.715C1047.81 144.038 1048.18 143 1048.18 141.6V138.94H1048.5C1048.15 140.013 1047.42 140.888 1046.33 141.565C1045.23 142.242 1044.02 142.58 1042.69 142.58C1041.15 142.58 1039.8 142.23 1038.66 141.53C1037.52 140.807 1036.63 139.803 1036 138.52C1035.37 137.213 1035.06 135.708 1035.06 134.005C1035.06 132.722 1035.23 131.555 1035.58 130.505C1035.95 129.455 1036.47 128.557 1037.12 127.81C1037.8 127.063 1038.6 126.492 1039.54 126.095C1040.49 125.675 1041.54 125.465 1042.69 125.465C1044.06 125.465 1045.28 125.803 1046.33 126.48C1047.4 127.133 1048.11 127.997 1048.46 129.07L1048.11 130.19V128.195C1048.11 127.332 1048.33 126.678 1048.78 126.235C1049.24 125.768 1049.9 125.535 1050.74 125.535C1051.58 125.535 1052.22 125.768 1052.66 126.235C1053.1 126.678 1053.33 127.332 1053.33 128.195V141.005C1053.33 143.875 1052.53 146.033 1050.95 147.48C1049.38 148.95 1047.12 149.685 1044.16 149.685ZM1044.26 138.625C1045.05 138.625 1045.73 138.438 1046.29 138.065C1046.87 137.692 1047.33 137.167 1047.66 136.49C1047.98 135.79 1048.15 134.962 1048.15 134.005C1048.15 132.558 1047.78 131.438 1047.06 130.645C1046.36 129.828 1045.43 129.42 1044.26 129.42C1043.47 129.42 1042.78 129.607 1042.2 129.98C1041.61 130.33 1041.16 130.855 1040.83 131.555C1040.53 132.232 1040.38 133.048 1040.38 134.005C1040.38 135.452 1040.73 136.583 1041.43 137.4C1042.13 138.217 1043.07 138.625 1044.26 138.625ZM1063.24 143.385C1061.98 143.385 1060.85 143.14 1059.84 142.65C1058.84 142.16 1058.06 141.495 1057.5 140.655C1056.94 139.815 1056.66 138.87 1056.66 137.82C1056.66 136.56 1056.99 135.568 1057.64 134.845C1058.29 134.098 1059.35 133.573 1060.82 133.27C1062.29 132.943 1064.24 132.78 1066.67 132.78H1068.52V135.51H1066.7C1065.51 135.51 1064.55 135.58 1063.8 135.72C1063.08 135.837 1062.55 136.047 1062.22 136.35C1061.92 136.653 1061.77 137.073 1061.77 137.61C1061.77 138.263 1061.99 138.8 1062.43 139.22C1062.9 139.64 1063.57 139.85 1064.43 139.85C1065.11 139.85 1065.7 139.698 1066.21 139.395C1066.75 139.068 1067.17 138.637 1067.47 138.1C1067.78 137.54 1067.93 136.91 1067.93 136.21V132.185C1067.93 131.158 1067.7 130.435 1067.23 130.015C1066.76 129.572 1065.97 129.35 1064.85 129.35C1064.22 129.35 1063.53 129.432 1062.78 129.595C1062.06 129.735 1061.26 129.98 1060.37 130.33C1059.86 130.563 1059.4 130.622 1059 130.505C1058.61 130.365 1058.3 130.132 1058.09 129.805C1057.88 129.455 1057.78 129.082 1057.78 128.685C1057.78 128.265 1057.9 127.868 1058.13 127.495C1058.36 127.098 1058.75 126.807 1059.28 126.62C1060.38 126.177 1061.41 125.873 1062.36 125.71C1063.34 125.547 1064.24 125.465 1065.06 125.465C1066.86 125.465 1068.33 125.733 1069.47 126.27C1070.64 126.783 1071.51 127.588 1072.09 128.685C1072.68 129.758 1072.97 131.147 1072.97 132.85V140.62C1072.97 141.483 1072.76 142.148 1072.34 142.615C1071.92 143.082 1071.31 143.315 1070.52 143.315C1069.73 143.315 1069.11 143.082 1068.66 142.615C1068.24 142.148 1068.03 141.483 1068.03 140.62V139.325L1068.28 139.535C1068.14 140.328 1067.84 141.017 1067.37 141.6C1066.93 142.16 1066.35 142.603 1065.65 142.93C1064.95 143.233 1064.15 143.385 1063.24 143.385ZM1085.35 143.385C1083.74 143.385 1082.38 143.117 1081.29 142.58C1080.21 142.043 1079.41 141.262 1078.87 140.235C1078.36 139.208 1078.1 137.913 1078.1 136.35V129.77H1076.63C1075.98 129.77 1075.46 129.595 1075.09 129.245C1074.74 128.895 1074.57 128.417 1074.57 127.81C1074.57 127.157 1074.74 126.667 1075.09 126.34C1075.46 125.99 1075.98 125.815 1076.63 125.815H1078.1V123.155C1078.1 122.268 1078.33 121.603 1078.8 121.16C1079.27 120.693 1079.92 120.46 1080.76 120.46C1081.62 120.46 1082.28 120.693 1082.72 121.16C1083.16 121.603 1083.39 122.268 1083.39 123.155V125.815H1086.71C1087.36 125.815 1087.87 125.99 1088.22 126.34C1088.57 126.667 1088.74 127.157 1088.74 127.81C1088.74 128.417 1088.57 128.895 1088.22 129.245C1087.87 129.595 1087.36 129.77 1086.71 129.77H1083.39V136.14C1083.39 137.12 1083.61 137.855 1084.05 138.345C1084.52 138.835 1085.25 139.08 1086.26 139.08C1086.61 139.08 1086.93 139.045 1087.24 138.975C1087.54 138.905 1087.82 138.858 1088.08 138.835C1088.4 138.812 1088.67 138.917 1088.88 139.15C1089.09 139.36 1089.2 139.838 1089.2 140.585C1089.2 141.145 1089.1 141.635 1088.92 142.055C1088.73 142.475 1088.4 142.778 1087.94 142.965C1087.63 143.082 1087.21 143.175 1086.68 143.245C1086.16 143.338 1085.72 143.385 1085.35 143.385ZM1099.15 143.385C1097.31 143.385 1095.7 143.023 1094.32 142.3C1092.97 141.577 1091.92 140.538 1091.17 139.185C1090.42 137.832 1090.05 136.233 1090.05 134.39C1090.05 133.013 1090.26 131.777 1090.68 130.68C1091.1 129.583 1091.71 128.65 1092.5 127.88C1093.32 127.087 1094.29 126.492 1095.41 126.095C1096.53 125.675 1097.77 125.465 1099.15 125.465C1100.99 125.465 1102.59 125.827 1103.95 126.55C1105.32 127.273 1106.38 128.3 1107.13 129.63C1107.9 130.96 1108.29 132.547 1108.29 134.39C1108.29 135.79 1108.06 137.038 1107.62 138.135C1107.2 139.232 1106.59 140.177 1105.8 140.97C1105.01 141.763 1104.04 142.37 1102.9 142.79C1101.78 143.187 1100.53 143.385 1099.15 143.385ZM1099.15 139.43C1099.92 139.43 1100.59 139.243 1101.15 138.87C1101.71 138.497 1102.15 137.948 1102.48 137.225C1102.8 136.478 1102.97 135.533 1102.97 134.39C1102.97 132.687 1102.62 131.438 1101.92 130.645C1101.22 129.828 1100.29 129.42 1099.15 129.42C1098.4 129.42 1097.74 129.595 1097.16 129.945C1096.6 130.295 1096.15 130.843 1095.83 131.59C1095.52 132.313 1095.37 133.247 1095.37 134.39C1095.37 136.093 1095.72 137.365 1096.42 138.205C1097.12 139.022 1098.03 139.43 1099.15 139.43ZM1114.23 143.315C1113.34 143.315 1112.67 143.082 1112.2 142.615C1111.73 142.148 1111.5 141.483 1111.5 140.62V128.195C1111.5 127.332 1111.72 126.678 1112.17 126.235C1112.63 125.768 1113.27 125.535 1114.09 125.535C1114.93 125.535 1115.57 125.768 1116.02 126.235C1116.46 126.678 1116.68 127.332 1116.68 128.195V130.015H1116.33C1116.61 128.615 1117.23 127.53 1118.19 126.76C1119.14 125.99 1120.38 125.558 1121.9 125.465C1122.48 125.418 1122.92 125.57 1123.23 125.92C1123.55 126.247 1123.73 126.795 1123.75 127.565C1123.8 128.288 1123.65 128.86 1123.3 129.28C1122.97 129.7 1122.41 129.957 1121.62 130.05L1120.81 130.12C1119.48 130.237 1118.49 130.622 1117.84 131.275C1117.21 131.928 1116.89 132.873 1116.89 134.11V140.62C1116.89 141.483 1116.66 142.148 1116.19 142.615C1115.75 143.082 1115.09 143.315 1114.23 143.315ZM1127.66 143.175C1126.73 143.175 1125.98 142.895 1125.42 142.335C1124.88 141.775 1124.61 141.052 1124.61 140.165C1124.61 139.302 1124.88 138.602 1125.42 138.065C1125.98 137.505 1126.73 137.225 1127.66 137.225C1128.59 137.225 1129.32 137.505 1129.83 138.065C1130.37 138.602 1130.63 139.302 1130.63 140.165C1130.63 141.052 1130.37 141.775 1129.83 142.335C1129.32 142.895 1128.59 143.175 1127.66 143.175Z" fill="white"/>
<path d="M1056.74 283.315C1055.99 283.315 1055.38 283.152 1054.89 282.825C1054.42 282.475 1054.03 281.95 1053.73 281.25L1044.91 261.65C1044.58 260.95 1044.49 260.332 1044.63 259.795C1044.77 259.235 1045.06 258.803 1045.51 258.5C1045.95 258.173 1046.49 258.01 1047.12 258.01C1047.91 258.01 1048.52 258.197 1048.94 258.57C1049.36 258.92 1049.71 259.445 1049.99 260.145L1057.72 278.03H1055.97L1063.71 260.11C1064.01 259.41 1064.37 258.885 1064.79 258.535C1065.21 258.185 1065.79 258.01 1066.54 258.01C1067.17 258.01 1067.68 258.173 1068.08 258.5C1068.5 258.803 1068.76 259.235 1068.85 259.795C1068.97 260.332 1068.87 260.95 1068.57 261.65L1059.75 281.25C1059.42 281.95 1059.03 282.475 1058.56 282.825C1058.12 283.152 1057.51 283.315 1056.74 283.315ZM1075.12 283.385C1073.86 283.385 1072.72 283.14 1071.72 282.65C1070.72 282.16 1069.94 281.495 1069.38 280.655C1068.82 279.815 1068.54 278.87 1068.54 277.82C1068.54 276.56 1068.86 275.568 1069.52 274.845C1070.17 274.098 1071.23 273.573 1072.7 273.27C1074.17 272.943 1076.12 272.78 1078.55 272.78H1080.4V275.51H1078.58C1077.39 275.51 1076.42 275.58 1075.68 275.72C1074.95 275.837 1074.43 276.047 1074.1 276.35C1073.8 276.653 1073.65 277.073 1073.65 277.61C1073.65 278.263 1073.87 278.8 1074.31 279.22C1074.78 279.64 1075.44 279.85 1076.31 279.85C1076.98 279.85 1077.58 279.698 1078.09 279.395C1078.63 279.068 1079.05 278.637 1079.35 278.1C1079.65 277.54 1079.81 276.91 1079.81 276.21V272.185C1079.81 271.158 1079.57 270.435 1079.11 270.015C1078.64 269.572 1077.85 269.35 1076.73 269.35C1076.1 269.35 1075.41 269.432 1074.66 269.595C1073.94 269.735 1073.13 269.98 1072.25 270.33C1071.73 270.563 1071.28 270.622 1070.88 270.505C1070.48 270.365 1070.18 270.132 1069.97 269.805C1069.76 269.455 1069.66 269.082 1069.66 268.685C1069.66 268.265 1069.77 267.868 1070.01 267.495C1070.24 267.098 1070.62 266.807 1071.16 266.62C1072.26 266.177 1073.28 265.873 1074.24 265.71C1075.22 265.547 1076.12 265.465 1076.94 265.465C1078.73 265.465 1080.2 265.733 1081.35 266.27C1082.51 266.783 1083.39 267.588 1083.97 268.685C1084.55 269.758 1084.85 271.147 1084.85 272.85V280.62C1084.85 281.483 1084.64 282.148 1084.22 282.615C1083.8 283.082 1083.19 283.315 1082.4 283.315C1081.6 283.315 1080.98 283.082 1080.54 282.615C1080.12 282.148 1079.91 281.483 1079.91 280.62V279.325L1080.16 279.535C1080.02 280.328 1079.71 281.017 1079.25 281.6C1078.8 282.16 1078.23 282.603 1077.53 282.93C1076.83 283.233 1076.03 283.385 1075.12 283.385ZM1095.12 283.385C1093.68 283.385 1092.48 283.117 1091.52 282.58C1090.56 282.043 1089.85 281.238 1089.38 280.165C1088.94 279.068 1088.72 277.715 1088.72 276.105V268.195C1088.72 267.308 1088.94 266.643 1089.38 266.2C1089.85 265.757 1090.5 265.535 1091.34 265.535C1092.18 265.535 1092.84 265.757 1093.3 266.2C1093.77 266.643 1094 267.308 1094 268.195V276.245C1094 277.272 1094.21 278.042 1094.63 278.555C1095.05 279.045 1095.72 279.29 1096.63 279.29C1097.63 279.29 1098.45 278.94 1099.08 278.24C1099.73 277.517 1100.06 276.572 1100.06 275.405V268.195C1100.06 267.308 1100.28 266.643 1100.72 266.2C1101.19 265.757 1101.84 265.535 1102.68 265.535C1103.55 265.535 1104.2 265.757 1104.64 266.2C1105.11 266.643 1105.34 267.308 1105.34 268.195V280.62C1105.34 282.417 1104.49 283.315 1102.79 283.315C1101.95 283.315 1101.31 283.082 1100.86 282.615C1100.42 282.148 1100.2 281.483 1100.2 280.62V278.275L1100.72 279.64C1100.21 280.83 1099.48 281.752 1098.52 282.405C1097.56 283.058 1096.43 283.385 1095.12 283.385ZM1115.63 283.385C1113.55 283.385 1112 282.813 1110.97 281.67C1109.95 280.503 1109.43 278.777 1109.43 276.49V260.705C1109.43 259.818 1109.65 259.153 1110.1 258.71C1110.56 258.243 1111.23 258.01 1112.09 258.01C1112.93 258.01 1113.57 258.243 1114.02 258.71C1114.48 259.153 1114.72 259.818 1114.72 260.705V276.28C1114.72 277.237 1114.92 277.948 1115.31 278.415C1115.73 278.858 1116.28 279.08 1116.96 279.08C1117.14 279.08 1117.32 279.068 1117.48 279.045C1117.65 279.022 1117.82 279.01 1118.01 279.01C1118.38 278.963 1118.64 279.08 1118.78 279.36C1118.94 279.617 1119.02 280.142 1119.02 280.935C1119.02 281.635 1118.88 282.172 1118.6 282.545C1118.32 282.895 1117.89 283.128 1117.31 283.245C1117.07 283.268 1116.81 283.292 1116.5 283.315C1116.2 283.362 1115.91 283.385 1115.63 283.385ZM1129.01 283.385C1127.4 283.385 1126.05 283.117 1124.95 282.58C1123.88 282.043 1123.07 281.262 1122.54 280.235C1122.02 279.208 1121.77 277.913 1121.77 276.35V269.77H1120.3C1119.64 269.77 1119.13 269.595 1118.76 269.245C1118.41 268.895 1118.23 268.417 1118.23 267.81C1118.23 267.157 1118.41 266.667 1118.76 266.34C1119.13 265.99 1119.64 265.815 1120.3 265.815H1121.77V263.155C1121.77 262.268 1122 261.603 1122.47 261.16C1122.93 260.693 1123.59 260.46 1124.43 260.46C1125.29 260.46 1125.94 260.693 1126.39 261.16C1126.83 261.603 1127.05 262.268 1127.05 263.155V265.815H1130.38C1131.03 265.815 1131.53 265.99 1131.88 266.34C1132.23 266.667 1132.41 267.157 1132.41 267.81C1132.41 268.417 1132.23 268.895 1131.88 269.245C1131.53 269.595 1131.03 269.77 1130.38 269.77H1127.05V276.14C1127.05 277.12 1127.27 277.855 1127.72 278.345C1128.18 278.835 1128.92 279.08 1129.92 279.08C1130.27 279.08 1130.6 279.045 1130.9 278.975C1131.2 278.905 1131.48 278.858 1131.74 278.835C1132.07 278.812 1132.34 278.917 1132.55 279.15C1132.76 279.36 1132.86 279.838 1132.86 280.585C1132.86 281.145 1132.77 281.635 1132.58 282.055C1132.39 282.475 1132.07 282.778 1131.6 282.965C1131.3 283.082 1130.88 283.175 1130.34 283.245C1129.83 283.338 1129.38 283.385 1129.01 283.385Z" fill="white"/>
<path d="M626.56 194C625.78 194 625.18 193.79 624.76 193.37C624.34 192.95 624.13 192.35 624.13 191.57V175.28C624.13 174.5 624.34 173.9 624.76 173.48C625.18 173.06 625.78 172.85 626.56 172.85H633.82C635.32 172.85 636.6 173.07 637.66 173.51C638.72 173.95 639.52 174.58 640.06 175.4C640.62 176.22 640.9 177.2 640.9 178.34C640.9 179.6 640.54 180.67 639.82 181.55C639.1 182.43 638.11 183.02 636.85 183.32V182.84C638.31 183.1 639.44 183.68 640.24 184.58C641.06 185.46 641.47 186.61 641.47 188.03C641.47 189.91 640.82 191.38 639.52 192.44C638.22 193.48 636.43 194 634.15 194H626.56ZM628.57 190.55H633.52C634.72 190.55 635.6 190.32 636.16 189.86C636.72 189.38 637 188.68 637 187.76C637 186.84 636.72 186.15 636.16 185.69C635.6 185.23 634.72 185 633.52 185H628.57V190.55ZM628.57 181.55H633.01C634.17 181.55 635.03 181.33 635.59 180.89C636.15 180.45 636.43 179.79 636.43 178.91C636.43 178.05 636.15 177.4 635.59 176.96C635.03 176.52 634.17 176.3 633.01 176.3H628.57V181.55ZM650.029 194.33C648.789 194.33 647.759 194.1 646.939 193.64C646.119 193.18 645.509 192.49 645.109 191.57C644.729 190.63 644.539 189.47 644.539 188.09V181.31C644.539 180.55 644.729 179.98 645.109 179.6C645.509 179.22 646.069 179.03 646.789 179.03C647.509 179.03 648.069 179.22 648.469 179.6C648.869 179.98 649.069 180.55 649.069 181.31V188.21C649.069 189.09 649.249 189.75 649.609 190.19C649.969 190.61 650.539 190.82 651.319 190.82C652.179 190.82 652.879 190.52 653.419 189.92C653.979 189.3 654.259 188.49 654.259 187.49V181.31C654.259 180.55 654.449 179.98 654.829 179.6C655.229 179.22 655.789 179.03 656.509 179.03C657.249 179.03 657.809 179.22 658.189 179.6C658.589 179.98 658.789 180.55 658.789 181.31V191.96C658.789 193.5 658.059 194.27 656.599 194.27C655.879 194.27 655.329 194.07 654.949 193.67C654.569 193.27 654.379 192.7 654.379 191.96V189.95L654.829 191.12C654.389 192.14 653.759 192.93 652.939 193.49C652.119 194.05 651.149 194.33 650.029 194.33ZM664.575 194.24C663.835 194.24 663.265 194.03 662.865 193.61C662.485 193.17 662.295 192.56 662.295 191.78V181.52C662.295 180.72 662.485 180.11 662.865 179.69C663.265 179.25 663.835 179.03 664.575 179.03C665.295 179.03 665.845 179.25 666.225 179.69C666.625 180.11 666.825 180.72 666.825 181.52V191.78C666.825 192.56 666.635 193.17 666.255 193.61C665.875 194.03 665.315 194.24 664.575 194.24ZM664.575 176.57C663.735 176.57 663.085 176.38 662.625 176C662.185 175.6 661.965 175.04 661.965 174.32C661.965 173.58 662.185 173.02 662.625 172.64C663.085 172.24 663.735 172.04 664.575 172.04C665.415 172.04 666.055 172.24 666.495 172.64C666.935 173.02 667.155 173.58 667.155 174.32C667.155 175.04 666.935 175.6 666.495 176C666.055 176.38 665.415 176.57 664.575 176.57ZM675.632 194.33C673.852 194.33 672.522 193.84 671.642 192.86C670.762 191.86 670.322 190.38 670.322 188.42V174.89C670.322 174.13 670.512 173.56 670.892 173.18C671.292 172.78 671.862 172.58 672.602 172.58C673.322 172.58 673.872 172.78 674.252 173.18C674.652 173.56 674.852 174.13 674.852 174.89V188.24C674.852 189.06 675.022 189.67 675.362 190.07C675.722 190.45 676.192 190.64 676.772 190.64C676.932 190.64 677.082 190.63 677.222 190.61C677.362 190.59 677.512 190.58 677.672 190.58C677.992 190.54 678.212 190.64 678.332 190.88C678.472 191.1 678.542 191.55 678.542 192.23C678.542 192.83 678.422 193.29 678.182 193.61C677.942 193.91 677.572 194.11 677.072 194.21C676.872 194.23 676.642 194.25 676.382 194.27C676.122 194.31 675.872 194.33 675.632 194.33ZM687.103 194.33C685.723 194.33 684.563 194.1 683.623 193.64C682.703 193.18 682.013 192.51 681.553 191.63C681.113 190.75 680.893 189.64 680.893 188.3V182.66H679.633C679.073 182.66 678.633 182.51 678.313 182.21C678.013 181.91 677.863 181.5 677.863 180.98C677.863 180.42 678.013 180 678.313 179.72C678.633 179.42 679.073 179.27 679.633 179.27H680.893V176.99C680.893 176.23 681.093 175.66 681.493 175.28C681.893 174.88 682.453 174.68 683.173 174.68C683.913 174.68 684.473 174.88 684.853 175.28C685.233 175.66 685.423 176.23 685.423 176.99V179.27H688.273C688.833 179.27 689.263 179.42 689.563 179.72C689.863 180 690.013 180.42 690.013 180.98C690.013 181.5 689.863 181.91 689.563 182.21C689.263 182.51 688.833 182.66 688.273 182.66H685.423V188.12C685.423 188.96 685.613 189.59 685.993 190.01C686.393 190.43 687.023 190.64 687.883 190.64C688.183 190.64 688.463 190.61 688.723 190.55C688.983 190.49 689.223 190.45 689.443 190.43C689.723 190.41 689.953 190.5 690.133 190.7C690.313 190.88 690.403 191.29 690.403 191.93C690.403 192.41 690.323 192.83 690.163 193.19C690.003 193.55 689.723 193.81 689.323 193.97C689.063 194.07 688.703 194.15 688.243 194.21C687.803 194.29 687.423 194.33 687.103 194.33ZM709.471 194.33C708.291 194.33 707.241 194.04 706.321 193.46C705.421 192.86 704.821 192.07 704.521 191.09L704.851 190.1V191.96C704.851 192.7 704.661 193.27 704.281 193.67C703.901 194.07 703.351 194.27 702.631 194.27C701.911 194.27 701.351 194.07 700.951 193.67C700.571 193.27 700.381 192.7 700.381 191.96V174.89C700.381 174.13 700.571 173.56 700.951 173.18C701.351 172.78 701.921 172.58 702.661 172.58C703.381 172.58 703.931 172.78 704.311 173.18C704.711 173.56 704.911 174.13 704.911 174.89V182H704.551C704.871 181.1 705.481 180.37 706.381 179.81C707.281 179.25 708.311 178.97 709.471 178.97C710.771 178.97 711.901 179.28 712.861 179.9C713.821 180.52 714.571 181.4 715.111 182.54C715.651 183.68 715.921 185.04 715.921 186.62C715.921 188.2 715.651 189.57 715.111 190.73C714.571 191.89 713.811 192.78 712.831 193.4C711.871 194.02 710.751 194.33 709.471 194.33ZM708.121 190.94C708.761 190.94 709.321 190.78 709.801 190.46C710.301 190.14 710.681 189.67 710.941 189.05C711.221 188.41 711.361 187.6 711.361 186.62C711.361 185.16 711.061 184.09 710.461 183.41C709.861 182.71 709.081 182.36 708.121 182.36C707.481 182.36 706.911 182.51 706.411 182.81C705.931 183.11 705.551 183.58 705.271 184.22C704.991 184.84 704.851 185.64 704.851 186.62C704.851 188.08 705.151 189.17 705.751 189.89C706.351 190.59 707.141 190.94 708.121 190.94ZM722.36 199.67C721.84 199.67 721.41 199.53 721.07 199.25C720.73 198.97 720.53 198.6 720.47 198.14C720.41 197.7 720.49 197.23 720.71 196.73L722.72 192.29V194.15L717.41 181.97C717.21 181.45 717.14 180.97 717.2 180.53C717.28 180.07 717.5 179.71 717.86 179.45C718.24 179.17 718.76 179.03 719.42 179.03C719.96 179.03 720.39 179.16 720.71 179.42C721.05 179.66 721.36 180.13 721.64 180.83L725.18 189.83H724.22L727.88 180.8C728.16 180.12 728.47 179.66 728.81 179.42C729.17 179.16 729.65 179.03 730.25 179.03C730.77 179.03 731.18 179.17 731.48 179.45C731.8 179.71 731.99 180.06 732.05 180.5C732.13 180.94 732.05 181.42 731.81 181.94L724.76 197.93C724.46 198.61 724.12 199.07 723.74 199.31C723.38 199.55 722.92 199.67 722.36 199.67ZM736.526 194.15C735.726 194.15 735.086 193.91 734.606 193.43C734.146 192.95 733.916 192.33 733.916 191.57C733.916 190.83 734.146 190.23 734.606 189.77C735.086 189.29 735.726 189.05 736.526 189.05C737.326 189.05 737.946 189.29 738.386 189.77C738.846 190.23 739.076 190.83 739.076 191.57C739.076 192.33 738.846 192.95 738.386 193.43C737.946 193.91 737.326 194.15 736.526 194.15ZM736.526 184.22C735.726 184.22 735.086 183.98 734.606 183.5C734.146 183.02 733.916 182.41 733.916 181.67C733.916 180.91 734.146 180.3 734.606 179.84C735.086 179.36 735.726 179.12 736.526 179.12C737.326 179.12 737.946 179.36 738.386 179.84C738.846 180.3 739.076 180.91 739.076 181.67C739.076 182.41 738.846 183.02 738.386 183.5C737.946 183.98 737.326 184.22 736.526 184.22ZM763.378 198.98C761.438 198.98 759.658 198.67 758.038 198.05C756.438 197.45 755.058 196.57 753.898 195.41C752.738 194.27 751.838 192.91 751.198 191.33C750.578 189.75 750.268 187.99 750.268 186.05C750.268 184.01 750.588 182.16 751.228 180.5C751.888 178.84 752.818 177.42 754.018 176.24C755.238 175.04 756.678 174.12 758.338 173.48C760.018 172.84 761.888 172.52 763.948 172.52C766.328 172.52 768.408 172.99 770.188 173.93C771.988 174.85 773.378 176.15 774.358 177.83C775.338 179.51 775.828 181.5 775.828 183.8C775.828 185.52 775.578 187.02 775.078 188.3C774.598 189.56 773.918 190.53 773.038 191.21C772.158 191.89 771.128 192.23 769.948 192.23C768.708 192.23 767.738 191.9 767.038 191.24C766.338 190.58 765.928 189.65 765.808 188.45L766.948 187.88C766.448 189.34 765.738 190.43 764.818 191.15C763.898 191.87 762.878 192.23 761.758 192.23C760.138 192.23 758.878 191.72 757.978 190.7C757.078 189.68 756.628 188.29 756.628 186.53C756.628 185.07 756.898 183.77 757.438 182.63C757.998 181.49 758.758 180.6 759.718 179.96C760.678 179.3 761.778 178.97 763.018 178.97C764.078 178.97 764.938 179.23 765.598 179.75C766.258 180.27 766.718 181.05 766.978 182.09H766.378L766.618 180.71C766.798 179.71 767.398 179.21 768.418 179.21C768.978 179.21 769.388 179.37 769.648 179.69C769.908 179.99 769.988 180.43 769.888 181.01L768.958 186.2C768.898 186.56 768.848 186.89 768.808 187.19C768.768 187.47 768.748 187.72 768.748 187.94C768.748 188.54 768.868 188.98 769.108 189.26C769.348 189.52 769.698 189.65 770.158 189.65C770.758 189.65 771.278 189.41 771.718 188.93C772.158 188.45 772.498 187.76 772.738 186.86C772.998 185.96 773.128 184.94 773.128 183.8C773.128 181.96 772.758 180.4 772.018 179.12C771.278 177.84 770.228 176.87 768.868 176.21C767.508 175.53 765.858 175.19 763.918 175.19C761.758 175.19 759.888 175.64 758.308 176.54C756.728 177.42 755.498 178.67 754.618 180.29C753.738 181.91 753.298 183.83 753.298 186.05C753.298 188.17 753.708 190 754.528 191.54C755.368 193.08 756.538 194.26 758.038 195.08C759.538 195.9 761.318 196.31 763.378 196.31C764.598 196.31 765.718 196.17 766.738 195.89C767.778 195.61 768.728 195.21 769.588 194.69C770.008 194.43 770.388 194.35 770.728 194.45C771.068 194.57 771.308 194.79 771.448 195.11C771.608 195.43 771.638 195.77 771.538 196.13C771.438 196.49 771.178 196.8 770.758 197.06C769.858 197.64 768.778 198.1 767.518 198.44C766.278 198.8 764.898 198.98 763.378 198.98ZM762.478 189.47C763.158 189.47 763.758 189.26 764.278 188.84C764.798 188.42 765.198 187.83 765.478 187.07C765.778 186.29 765.928 185.4 765.928 184.4C765.928 183.54 765.738 182.89 765.358 182.45C764.998 181.99 764.428 181.76 763.648 181.76C762.948 181.76 762.328 181.96 761.788 182.36C761.268 182.76 760.858 183.31 760.558 184.01C760.258 184.71 760.108 185.54 760.108 186.5C760.108 187.46 760.308 188.2 760.708 188.72C761.128 189.22 761.718 189.47 762.478 189.47ZM781.352 199.67C780.612 199.67 780.042 199.47 779.642 199.07C779.262 198.69 779.072 198.12 779.072 197.36V181.31C779.072 180.57 779.262 180.01 779.642 179.63C780.042 179.23 780.592 179.03 781.292 179.03C782.032 179.03 782.592 179.23 782.972 179.63C783.352 180.01 783.542 180.57 783.542 181.31V183.35L783.212 182.18C783.512 181.22 784.112 180.45 785.012 179.87C785.932 179.27 786.982 178.97 788.162 178.97C789.442 178.97 790.562 179.28 791.522 179.9C792.502 180.52 793.262 181.4 793.802 182.54C794.342 183.68 794.612 185.04 794.612 186.62C794.612 188.2 794.342 189.57 793.802 190.73C793.262 191.89 792.512 192.78 791.552 193.4C790.592 194.02 789.462 194.33 788.162 194.33C787.002 194.33 785.972 194.05 785.072 193.49C784.172 192.91 783.562 192.16 783.242 191.24H783.602V197.36C783.602 198.12 783.402 198.69 783.002 199.07C782.622 199.47 782.072 199.67 781.352 199.67ZM786.812 190.94C787.452 190.94 788.012 190.78 788.492 190.46C788.992 190.14 789.372 189.67 789.632 189.05C789.912 188.41 790.052 187.6 790.052 186.62C790.052 185.16 789.752 184.09 789.152 183.41C788.552 182.71 787.772 182.36 786.812 182.36C786.172 182.36 785.602 182.51 785.102 182.81C784.622 183.11 784.242 183.58 783.962 184.22C783.682 184.84 783.542 185.64 783.542 186.62C783.542 188.08 783.842 189.17 784.442 189.89C785.042 190.59 785.832 190.94 786.812 190.94ZM805.033 194.33C803.293 194.33 801.793 194.02 800.533 193.4C799.293 192.76 798.333 191.87 797.653 190.73C796.993 189.57 796.663 188.21 796.663 186.65C796.663 185.13 796.983 183.8 797.623 182.66C798.263 181.5 799.153 180.6 800.293 179.96C801.453 179.3 802.763 178.97 804.223 178.97C805.283 178.97 806.243 179.15 807.103 179.51C807.963 179.85 808.703 180.35 809.323 181.01C809.943 181.65 810.413 182.44 810.733 183.38C811.053 184.3 811.213 185.33 811.213 186.47C811.213 186.85 811.093 187.14 810.853 187.34C810.613 187.52 810.263 187.61 809.803 187.61H800.383V185.27H807.943L807.463 185.69C807.463 184.87 807.343 184.19 807.103 183.65C806.863 183.09 806.513 182.67 806.053 182.39C805.613 182.11 805.063 181.97 804.403 181.97C803.663 181.97 803.033 182.14 802.513 182.48C801.993 182.82 801.593 183.31 801.313 183.95C801.033 184.59 800.893 185.36 800.893 186.26V186.5C800.893 188.02 801.243 189.14 801.943 189.86C802.663 190.58 803.723 190.94 805.123 190.94C805.603 190.94 806.153 190.88 806.773 190.76C807.393 190.64 807.973 190.45 808.513 190.19C808.973 189.97 809.383 189.9 809.743 189.98C810.103 190.04 810.383 190.2 810.583 190.46C810.783 190.72 810.893 191.02 810.913 191.36C810.953 191.7 810.883 192.04 810.703 192.38C810.523 192.7 810.223 192.97 809.803 193.19C809.123 193.57 808.353 193.85 807.493 194.03C806.653 194.23 805.833 194.33 805.033 194.33ZM816.127 194.27C815.387 194.27 814.817 194.07 814.417 193.67C814.037 193.27 813.847 192.7 813.847 191.96V181.31C813.847 180.57 814.037 180.01 814.417 179.63C814.817 179.23 815.367 179.03 816.067 179.03C816.787 179.03 817.337 179.23 817.717 179.63C818.097 180.01 818.287 180.57 818.287 181.31V183.02L817.957 182.03C818.417 181.05 819.097 180.3 819.997 179.78C820.917 179.24 821.957 178.97 823.117 178.97C824.297 178.97 825.267 179.2 826.027 179.66C826.787 180.1 827.357 180.78 827.737 181.7C828.117 182.6 828.307 183.75 828.307 185.15V191.96C828.307 192.7 828.107 193.27 827.707 193.67C827.327 194.07 826.767 194.27 826.027 194.27C825.307 194.27 824.747 194.07 824.347 193.67C823.967 193.27 823.777 192.7 823.777 191.96V185.36C823.777 184.34 823.587 183.61 823.207 183.17C822.847 182.71 822.287 182.48 821.527 182.48C820.567 182.48 819.797 182.78 819.217 183.38C818.657 183.98 818.377 184.78 818.377 185.78V191.96C818.377 193.5 817.627 194.27 816.127 194.27ZM834.029 194.27C833.269 194.27 832.689 194.07 832.289 193.67C831.889 193.27 831.689 192.7 831.689 191.96V181.31C831.689 180.57 831.879 180.01 832.259 179.63C832.659 179.23 833.209 179.03 833.909 179.03C834.629 179.03 835.179 179.23 835.559 179.63C835.939 180.01 836.129 180.57 836.129 181.31V182.87H835.829C836.069 181.67 836.599 180.74 837.419 180.08C838.239 179.42 839.299 179.05 840.599 178.97C841.099 178.93 841.479 179.06 841.739 179.36C842.019 179.64 842.169 180.11 842.189 180.77C842.229 181.39 842.099 181.88 841.799 182.24C841.519 182.6 841.039 182.82 840.359 182.9L839.669 182.96C838.529 183.06 837.679 183.39 837.119 183.95C836.579 184.51 836.309 185.32 836.309 186.38V191.96C836.309 192.7 836.109 193.27 835.709 193.67C835.329 194.07 834.769 194.27 834.029 194.27ZM850.869 194.33C849.289 194.33 847.909 194.02 846.729 193.4C845.569 192.78 844.669 191.89 844.029 190.73C843.389 189.57 843.069 188.2 843.069 186.62C843.069 185.44 843.249 184.38 843.609 183.44C843.969 182.5 844.489 181.7 845.169 181.04C845.869 180.36 846.699 179.85 847.659 179.51C848.619 179.15 849.689 178.97 850.869 178.97C852.449 178.97 853.819 179.28 854.979 179.9C856.159 180.52 857.069 181.4 857.709 182.54C858.369 183.68 858.699 185.04 858.699 186.62C858.699 187.82 858.509 188.89 858.129 189.83C857.769 190.77 857.249 191.58 856.569 192.26C855.889 192.94 855.059 193.46 854.079 193.82C853.119 194.16 852.049 194.33 850.869 194.33ZM850.869 190.94C851.529 190.94 852.099 190.78 852.579 190.46C853.059 190.14 853.439 189.67 853.719 189.05C853.999 188.41 854.139 187.6 854.139 186.62C854.139 185.16 853.839 184.09 853.239 183.41C852.639 182.71 851.849 182.36 850.869 182.36C850.229 182.36 849.659 182.51 849.159 182.81C848.679 183.11 848.299 183.58 848.019 184.22C847.759 184.84 847.629 185.64 847.629 186.62C847.629 188.08 847.929 189.17 848.529 189.89C849.129 190.59 849.909 190.94 850.869 190.94ZM867.185 194.33C865.905 194.33 864.775 194.02 863.795 193.4C862.835 192.78 862.085 191.89 861.545 190.73C861.005 189.57 860.735 188.2 860.735 186.62C860.735 185.04 861.005 183.68 861.545 182.54C862.085 181.4 862.835 180.52 863.795 179.9C864.775 179.28 865.905 178.97 867.185 178.97C868.345 178.97 869.365 179.25 870.245 179.81C871.145 180.37 871.755 181.1 872.075 182H871.745V174.89C871.745 174.13 871.935 173.56 872.315 173.18C872.695 172.78 873.255 172.58 873.995 172.58C874.715 172.58 875.275 172.78 875.675 173.18C876.075 173.56 876.275 174.13 876.275 174.89V191.96C876.275 192.7 876.075 193.27 875.675 193.67C875.295 194.07 874.745 194.27 874.025 194.27C873.305 194.27 872.745 194.07 872.345 193.67C871.965 193.27 871.775 192.7 871.775 191.96V189.92L872.105 191.09C871.825 192.07 871.225 192.86 870.305 193.46C869.405 194.04 868.365 194.33 867.185 194.33ZM868.535 190.94C869.195 190.94 869.765 190.78 870.245 190.46C870.725 190.14 871.105 189.67 871.385 189.05C871.665 188.41 871.805 187.6 871.805 186.62C871.805 185.16 871.505 184.09 870.905 183.41C870.305 182.71 869.515 182.36 868.535 182.36C867.895 182.36 867.325 182.51 866.825 182.81C866.345 183.11 865.965 183.58 865.685 184.22C865.425 184.84 865.295 185.64 865.295 186.62C865.295 188.08 865.595 189.17 866.195 189.89C866.795 190.59 867.575 190.94 868.535 190.94ZM885.075 194.33C883.295 194.33 881.965 193.84 881.085 192.86C880.205 191.86 879.765 190.38 879.765 188.42V174.89C879.765 174.13 879.955 173.56 880.335 173.18C880.735 172.78 881.305 172.58 882.045 172.58C882.765 172.58 883.315 172.78 883.695 173.18C884.095 173.56 884.295 174.13 884.295 174.89V188.24C884.295 189.06 884.465 189.67 884.805 190.07C885.165 190.45 885.635 190.64 886.215 190.64C886.375 190.64 886.525 190.63 886.665 190.61C886.805 190.59 886.955 190.58 887.115 190.58C887.435 190.54 887.655 190.64 887.775 190.88C887.915 191.1 887.985 191.55 887.985 192.23C887.985 192.83 887.865 193.29 887.625 193.61C887.385 193.91 887.015 194.11 886.515 194.21C886.315 194.23 886.085 194.25 885.825 194.27C885.565 194.31 885.315 194.33 885.075 194.33ZM896.689 194.33C895.109 194.33 893.729 194.02 892.549 193.4C891.389 192.78 890.489 191.89 889.849 190.73C889.209 189.57 888.889 188.2 888.889 186.62C888.889 185.44 889.069 184.38 889.429 183.44C889.789 182.5 890.309 181.7 890.989 181.04C891.689 180.36 892.519 179.85 893.479 179.51C894.439 179.15 895.509 178.97 896.689 178.97C898.269 178.97 899.639 179.28 900.799 179.9C901.979 180.52 902.889 181.4 903.529 182.54C904.189 183.68 904.519 185.04 904.519 186.62C904.519 187.82 904.329 188.89 903.949 189.83C903.589 190.77 903.069 191.58 902.389 192.26C901.709 192.94 900.879 193.46 899.899 193.82C898.939 194.16 897.869 194.33 896.689 194.33ZM896.689 190.94C897.349 190.94 897.919 190.78 898.399 190.46C898.879 190.14 899.259 189.67 899.539 189.05C899.819 188.41 899.959 187.6 899.959 186.62C899.959 185.16 899.659 184.09 899.059 183.41C898.459 182.71 897.669 182.36 896.689 182.36C896.049 182.36 895.479 182.51 894.979 182.81C894.499 183.11 894.119 183.58 893.839 184.22C893.579 184.84 893.449 185.64 893.449 186.62C893.449 188.08 893.749 189.17 894.349 189.89C894.949 190.59 895.729 190.94 896.689 190.94ZM912.585 194.33C910.805 194.33 909.475 193.84 908.595 192.86C907.715 191.86 907.275 190.38 907.275 188.42V174.89C907.275 174.13 907.465 173.56 907.845 173.18C908.245 172.78 908.815 172.58 909.555 172.58C910.275 172.58 910.825 172.78 911.205 173.18C911.605 173.56 911.805 174.13 911.805 174.89V188.24C911.805 189.06 911.975 189.67 912.315 190.07C912.675 190.45 913.145 190.64 913.725 190.64C913.885 190.64 914.035 190.63 914.175 190.61C914.315 190.59 914.465 190.58 914.625 190.58C914.945 190.54 915.165 190.64 915.285 190.88C915.425 191.1 915.495 191.55 915.495 192.23C915.495 192.83 915.375 193.29 915.135 193.61C914.895 193.91 914.525 194.11 914.025 194.21C913.825 194.23 913.595 194.25 913.335 194.27C913.075 194.31 912.825 194.33 912.585 194.33Z" fill="#A9A9BD"/>
<path fill-rule="evenodd" clip-rule="evenodd" d="M494.848 227.774C493.26 223.41 479.621 221.572 438.632 220.041C400.385 218.586 355.859 214.375 278.066 216.672C218.603 218.433 144.563 225.477 144.563 229.382C144.563 232.215 147.449 232.291 175.016 229.764C200.49 227.468 213.552 226.932 229.5 226.319C165.562 232.291 151.923 236.196 117.862 239.948C96.5011 242.321 108.986 249.135 116.779 248.446C116.851 248.446 216.222 239.871 225.603 240.33C226.469 240.407 217.015 241.785 204.531 243.393C169.676 247.987 176.387 255.642 202.51 252.12C290.406 240.253 373.107 236.578 436.828 241.708C456.962 243.316 459.199 243.316 459.199 241.325C459.199 237.803 453.714 235.124 445.127 234.588C431.704 233.669 380.034 231.065 356.653 230.3C354.849 230.223 355.715 228.769 357.303 228.616C366.828 227.621 442.457 228.386 472.188 229.457C494.054 230.223 495.642 230.147 494.848 227.774Z" fill="#ABACDB"/>
<path d="M144.2 175.9C141.733 175.9 139.833 175.233 138.5 173.9C137.233 172.567 136.6 170.667 136.6 168.2V137.2H133C131.133 137.2 129.667 136.7 128.6 135.7C127.6 134.7 127.1 133.333 127.1 131.6C127.1 129.733 127.6 128.333 128.6 127.4C129.667 126.4 131.133 125.9 133 125.9H141L136.6 129.9V126.8C136.6 119.667 138.367 114.333 141.9 110.8C145.5 107.267 150.767 105.133 157.7 104.4L160.9 104.1C162.633 103.967 164 104.233 165 104.9C166.067 105.567 166.767 106.433 167.1 107.5C167.433 108.567 167.5 109.667 167.3 110.8C167.1 111.867 166.633 112.833 165.9 113.7C165.233 114.5 164.3 114.933 163.1 115L161.7 115.1C158.1 115.367 155.533 116.233 154 117.7C152.467 119.1 151.7 121.267 151.7 124.2V127.6L149.8 125.9H158.8C160.733 125.9 162.2 126.4 163.2 127.4C164.2 128.333 164.7 129.733 164.7 131.6C164.7 133.333 164.2 134.7 163.2 135.7C162.2 136.7 160.733 137.2 158.8 137.2H151.7V168.2C151.7 173.333 149.2 175.9 144.2 175.9ZM195.312 176.1C189.512 176.1 184.512 175.067 180.312 173C176.178 170.867 172.978 167.9 170.712 164.1C168.512 160.233 167.412 155.7 167.412 150.5C167.412 145.433 168.478 141 170.612 137.2C172.745 133.333 175.712 130.333 179.512 128.2C183.378 126 187.745 124.9 192.612 124.9C196.145 124.9 199.345 125.5 202.212 126.7C205.078 127.833 207.545 129.5 209.612 131.7C211.678 133.833 213.245 136.467 214.312 139.6C215.378 142.667 215.912 146.1 215.912 149.9C215.912 151.167 215.512 152.133 214.712 152.8C213.912 153.4 212.745 153.7 211.212 153.7H179.812V145.9H205.012L203.412 147.3C203.412 144.567 203.012 142.3 202.212 140.5C201.412 138.633 200.245 137.233 198.712 136.3C197.245 135.367 195.412 134.9 193.212 134.9C190.745 134.9 188.645 135.467 186.912 136.6C185.178 137.733 183.845 139.367 182.912 141.5C181.978 143.633 181.512 146.2 181.512 149.2V150C181.512 155.067 182.678 158.8 185.012 161.2C187.412 163.6 190.945 164.8 195.612 164.8C197.212 164.8 199.045 164.6 201.112 164.2C203.178 163.8 205.112 163.167 206.912 162.3C208.445 161.567 209.812 161.333 211.012 161.6C212.212 161.8 213.145 162.333 213.812 163.2C214.478 164.067 214.845 165.067 214.912 166.2C215.045 167.333 214.812 168.467 214.212 169.6C213.612 170.667 212.612 171.567 211.212 172.3C208.945 173.567 206.378 174.5 203.512 175.1C200.712 175.767 197.978 176.1 195.312 176.1ZM250.195 176.1C244.395 176.1 239.395 175.067 235.195 173C231.061 170.867 227.861 167.9 225.595 164.1C223.395 160.233 222.295 155.7 222.295 150.5C222.295 145.433 223.361 141 225.495 137.2C227.628 133.333 230.595 130.333 234.395 128.2C238.261 126 242.628 124.9 247.495 124.9C251.028 124.9 254.228 125.5 257.095 126.7C259.961 127.833 262.428 129.5 264.495 131.7C266.561 133.833 268.128 136.467 269.195 139.6C270.261 142.667 270.795 146.1 270.795 149.9C270.795 151.167 270.395 152.133 269.595 152.8C268.795 153.4 267.628 153.7 266.095 153.7H234.695V145.9H259.895L258.295 147.3C258.295 144.567 257.895 142.3 257.095 140.5C256.295 138.633 255.128 137.233 253.595 136.3C252.128 135.367 250.295 134.9 248.095 134.9C245.628 134.9 243.528 135.467 241.795 136.6C240.061 137.733 238.728 139.367 237.795 141.5C236.861 143.633 236.395 146.2 236.395 149.2V150C236.395 155.067 237.561 158.8 239.895 161.2C242.295 163.6 245.828 164.8 250.495 164.8C252.095 164.8 253.928 164.6 255.995 164.2C258.061 163.8 259.995 163.167 261.795 162.3C263.328 161.567 264.695 161.333 265.895 161.6C267.095 161.8 268.028 162.333 268.695 163.2C269.361 164.067 269.728 165.067 269.795 166.2C269.928 167.333 269.695 168.467 269.095 169.6C268.495 170.667 267.495 171.567 266.095 172.3C263.828 173.567 261.261 174.5 258.395 175.1C255.595 175.767 252.861 176.1 250.195 176.1ZM298.677 176.1C294.411 176.1 290.644 175.067 287.377 173C284.177 170.933 281.677 167.967 279.877 164.1C278.077 160.233 277.177 155.667 277.177 150.4C277.177 145.133 278.077 140.6 279.877 136.8C281.677 133 284.177 130.067 287.377 128C290.644 125.933 294.411 124.9 298.677 124.9C302.544 124.9 305.944 125.833 308.877 127.7C311.877 129.567 313.911 132 314.977 135H313.877V111.3C313.877 108.767 314.511 106.867 315.777 105.6C317.044 104.267 318.911 103.6 321.377 103.6C323.777 103.6 325.644 104.267 326.977 105.6C328.311 106.867 328.977 108.767 328.977 111.3V168.2C328.977 170.667 328.311 172.567 326.977 173.9C325.711 175.233 323.877 175.9 321.477 175.9C319.077 175.9 317.211 175.233 315.877 173.9C314.611 172.567 313.977 170.667 313.977 168.2V161.4L315.077 165.3C314.144 168.567 312.144 171.2 309.077 173.2C306.077 175.133 302.611 176.1 298.677 176.1ZM303.177 164.8C305.377 164.8 307.277 164.267 308.877 163.2C310.477 162.133 311.744 160.567 312.677 158.5C313.611 156.367 314.077 153.667 314.077 150.4C314.077 145.533 313.077 141.967 311.077 139.7C309.077 137.367 306.444 136.2 303.177 136.2C301.044 136.2 299.144 136.7 297.477 137.7C295.877 138.7 294.611 140.267 293.677 142.4C292.811 144.467 292.377 147.133 292.377 150.4C292.377 155.267 293.377 158.9 295.377 161.3C297.377 163.633 299.977 164.8 303.177 164.8ZM336.213 193.8C334.412 193.867 332.979 193.567 331.912 192.9C330.846 192.233 330.112 191.367 329.712 190.3C329.312 189.3 329.212 188.267 329.412 187.2C329.546 186.133 329.979 185.2 330.712 184.4C331.446 183.6 332.446 183.133 333.712 183C336.313 182.8 338.179 182.067 339.313 180.8C340.513 179.6 341.113 177.733 341.113 175.2V132.7C341.113 130.233 341.779 128.367 343.113 127.1C344.446 125.767 346.313 125.1 348.713 125.1C351.113 125.1 352.946 125.767 354.213 127.1C355.546 128.367 356.213 130.233 356.213 132.7V173.8C356.213 178.2 355.479 181.833 354.013 184.7C352.613 187.567 350.446 189.733 347.513 191.2C344.579 192.733 340.813 193.6 336.213 193.8ZM348.613 116.9C345.879 116.9 343.746 116.267 342.213 115C340.746 113.667 340.013 111.8 340.013 109.4C340.013 106.933 340.746 105.067 342.213 103.8C343.746 102.467 345.879 101.8 348.613 101.8C351.413 101.8 353.546 102.467 355.013 103.8C356.479 105.067 357.213 106.933 357.213 109.4C357.213 111.8 356.479 113.667 355.013 115C353.546 116.267 351.413 116.9 348.613 116.9ZM391.556 176.1C386.29 176.1 381.69 175.067 377.756 173C373.89 170.933 370.89 167.967 368.756 164.1C366.623 160.233 365.556 155.667 365.556 150.4C365.556 146.467 366.156 142.933 367.356 139.8C368.556 136.667 370.29 134 372.556 131.8C374.89 129.533 377.656 127.833 380.856 126.7C384.056 125.5 387.623 124.9 391.556 124.9C396.823 124.9 401.39 125.933 405.256 128C409.19 130.067 412.223 133 414.356 136.8C416.556 140.6 417.656 145.133 417.656 150.4C417.656 154.4 417.023 157.967 415.756 161.1C414.556 164.233 412.823 166.933 410.556 169.2C408.29 171.467 405.523 173.2 402.256 174.4C399.056 175.533 395.49 176.1 391.556 176.1ZM391.556 164.8C393.756 164.8 395.656 164.267 397.256 163.2C398.856 162.133 400.123 160.567 401.056 158.5C401.99 156.367 402.456 153.667 402.456 150.4C402.456 145.533 401.456 141.967 399.456 139.7C397.456 137.367 394.823 136.2 391.556 136.2C389.423 136.2 387.523 136.7 385.856 137.7C384.256 138.7 382.99 140.267 382.056 142.4C381.19 144.467 380.756 147.133 380.756 150.4C380.756 155.267 381.756 158.9 383.756 161.3C385.756 163.633 388.356 164.8 391.556 164.8ZM439.071 193.9C437.338 193.9 435.904 193.433 434.771 192.5C433.638 191.567 432.971 190.333 432.771 188.8C432.571 187.333 432.838 185.767 433.571 184.1L440.271 169.3V175.5L422.571 134.9C421.904 133.167 421.671 131.567 421.871 130.1C422.138 128.567 422.871 127.367 424.071 126.5C425.338 125.567 427.071 125.1 429.271 125.1C431.071 125.1 432.504 125.533 433.571 126.4C434.704 127.2 435.738 128.767 436.671 131.1L448.471 161.1H445.271L457.471 131C458.404 128.733 459.438 127.2 460.571 126.4C461.771 125.533 463.371 125.1 465.371 125.1C467.104 125.1 468.471 125.567 469.471 126.5C470.538 127.367 471.171 128.533 471.371 130C471.638 131.467 471.371 133.067 470.571 134.8L447.071 188.1C446.071 190.367 444.938 191.9 443.671 192.7C442.471 193.5 440.938 193.9 439.071 193.9Z" fill="#9899EC"/>
<path d="M987 259.667C998.184 259.667 1007.25 256.701 1007.25 253.042C1007.25 249.383 998.184 246.417 987 246.417C975.816 246.417 966.75 249.383 966.75 253.042C966.75 256.701 975.816 259.667 987 259.667Z" stroke="#9899EC" stroke-width="2" stroke-linecap="round" stroke-linejoin="round"/>
<path d="M1007.25 268.5C1007.25 272.166 998.25 275.125 987 275.125C975.75 275.125 966.75 272.166 966.75 268.5" stroke="#9899EC" stroke-width="2" stroke-linecap="round" stroke-linejoin="round"/>
<path d="M966.75 253.042V283.958C966.75 287.624 975.75 290.583 987 290.583C998.25 290.583 1007.25 287.624 1007.25 283.958V253.042" stroke="#9899EC" stroke-width="2" stroke-linecap="round" stroke-linejoin="round"/>
</svg>
